<svg width="342" height="342" viewBox="0 0 342 342" fill="none" xmlns="http://www.w3.org/2000/svg">
<path d="M87.9665 47.0335C87.2999 51.8335 86.4999 52.6335 81.0332 55.0335L74.8999 57.8335L70.6332 54.5002L66.3665 51.3002L59.1665 58.5002L51.9665 65.8335L54.8999 69.7002C58.3665 74.5002 58.3665 74.3668 55.5665 81.4335C53.4332 86.3668 52.6332 87.0335 48.4999 87.4335L43.8332 87.8335L43.4332 98.1002L43.0332 108.5L48.3665 109.3C53.0332 110.1 53.8332 110.767 55.8332 115.967C58.0999 122.1 57.9665 123.167 54.4999 127.833C52.6332 130.5 53.0332 131.033 59.6999 137.7L66.8999 144.9L71.0332 141.833C75.1665 138.9 75.2999 138.9 81.1665 141.433C86.3665 143.567 87.1665 144.5 87.8332 148.767L88.7665 153.833H99.2999H109.833V150.1C109.833 145.3 110.767 144.233 117.3 141.3C122.9 138.9 122.9 138.9 127.033 141.967L131.167 145.033L138.5 137.833L145.833 130.633L142.633 126.633L139.567 122.633L142.1 116.367C144.5 110.767 145.3 110.1 149.967 109.3L155.3 108.5L154.9 98.1002L154.5 87.8335L149.7 87.4335C145.433 87.0335 144.767 86.3668 142.233 80.6335L139.567 74.2335L142.633 70.3668L145.833 66.5002L138.9 59.5668C135.033 55.7002 131.433 52.5002 130.767 52.5002C130.1 52.5002 128.1 53.7002 126.367 55.0335C123.3 57.4335 122.767 57.4335 117.433 55.4335C110.367 52.7668 110.9 53.3002 109.967 47.5668L109.167 42.5002L99.0332 42.1002L88.8999 41.7002L87.9665 47.0335ZM105.967 76.6335C108.5 77.5668 112.5 79.9668 114.767 82.2335C131.433 97.8335 115.567 126.233 93.5665 120.367C87.6999 118.9 81.1665 113.7 78.4999 108.367C73.1665 98.2335 78.2332 83.1668 88.7665 77.9668C95.2999 74.7668 99.4332 74.5002 105.967 76.6335Z" fill="#E11D48"/>
<path d="M284.767 85.6999C276.767 88.4999 269.567 94.6333 265.433 102.5C261.7 109.567 261.567 123.033 265.167 130.5C275.167 151.033 301.7 155.833 317.7 140.233C335.7 122.633 328.233 92.3666 304.367 85.2999C295.567 82.6333 293.433 82.6333 284.767 85.6999ZM303.3 108.367C311.3 116.367 306.367 128.5 295.167 128.5C287.833 128.5 283.167 123.967 283.167 116.767C283.167 105.433 295.3 100.5 303.3 108.367Z" fill="#E11D48"/>
<path d="M17.5665 100.9C15.6998 102.5 13.4332 105.166 12.6332 106.766C11.6998 108.766 11.1665 127.966 11.1665 166.367V223.167H126.5H241.833V203.7V184.233L234.9 188.1C229.167 191.3 226.233 194.5 218.767 205.3C213.7 212.5 209.167 219.3 208.633 220.367C207.7 221.833 203.033 221.167 182.1 217.033L156.633 211.833L155.833 204.5C154.233 190.5 154.1 190.233 145.033 183.7C140.367 180.367 136.5 177.033 136.5 176.367C136.5 175.433 142.633 155.7 145.567 147.166C145.967 146.1 143.3 147.966 139.7 151.433C135.967 155.033 132.5 157.833 131.967 157.833C131.3 157.833 128.767 156.233 126.233 154.367C123.7 152.5 121.3 151.3 120.767 151.7C120.367 152.233 119.7 155.033 119.3 158.233L118.5 163.833L99.0332 164.233L79.5665 164.633L78.6332 157.833C78.0998 154.233 77.4332 151.167 76.8998 151.167C76.4998 151.167 74.0998 152.633 71.6998 154.5C69.2998 156.367 66.8998 157.833 66.2332 157.833C65.5665 157.833 59.1665 151.833 51.9665 144.633L38.7665 131.3L42.2332 126.633C44.2332 124.1 45.8332 121.433 45.8332 120.766C45.8332 119.966 42.8998 119.033 39.1665 118.5L32.4998 117.566V107.7V97.8332H26.8998C22.8998 97.8332 20.0998 98.7665 17.5665 100.9Z" fill="#E11D48"/>
<path d="M165.833 107.7V117.567L159.166 118.5C155.566 119.033 152.233 119.833 151.966 120.233C151.7 120.767 152.5 122.633 153.966 124.233C156.366 127.3 156.633 127.3 171.7 126.1C185.966 124.9 187.7 124.367 196.9 119.3C207.033 113.7 212.5 112.633 218.366 115.3C221.166 116.633 222.9 116.1 231.033 111.7C236.233 108.9 240.5 106.233 240.5 105.7C240.5 105.167 238.633 103.167 236.366 101.3L232.233 97.8332H199.033H165.833V107.7Z" fill="#E11D48"/>
<path d="M239.567 118.767C233.433 122.233 228.5 125.433 228.5 125.967C228.5 127.033 245.433 156.5 247.033 158.1C247.567 158.767 251.967 157.033 256.9 154.367L265.967 149.567L262.5 145.433C260.633 143.033 257.967 139.033 256.633 136.367C253.833 131.167 250.633 115.833 251.833 113.833C253.3 111.433 250.633 112.5 239.567 118.767Z" fill="#E11D48"/>
<path d="M199.567 129.567C194.9 132.233 191.167 135.033 191.167 135.567C191.167 136.9 216.367 180.633 218.5 183.033C219.967 184.5 221.833 183.833 229.567 179.3C234.767 176.233 239.433 172.633 239.833 171.033C240.5 169.033 237.3 162.5 228.1 146.767C213.433 121.433 213.167 121.3 199.567 129.567Z" fill="#E11D48"/>
<path d="M159.433 138.767C158.633 140.1 155.967 148.367 153.167 157.167L148.233 173.033L151.967 176.1C154.1 177.833 156.367 179.033 157.033 178.767C157.7 178.5 161.167 173.3 164.5 167.033L170.767 155.833L177.967 154.367C181.967 153.567 185.967 152.633 186.767 152.367C187.833 151.967 186.633 149.033 183.7 144.1L178.9 136.5H169.833C162.367 136.5 160.367 136.9 159.433 138.767Z" fill="#E11D48"/>
<path d="M272.767 205.433L273.167 256.9L295.167 257.033L317.167 257.167L317.567 205.967L317.833 154.9L314.9 155.7C299.7 159.966 296.633 160.5 290.5 159.7C286.9 159.3 281.3 157.833 278.1 156.5L272.5 153.966L272.767 205.433Z" fill="#E11D48"/>
<path d="M197.167 185.967L192.1 192.767L178.1 191.833L164.233 190.767L165.167 196.633C165.7 199.833 166.367 202.633 166.5 202.9C166.767 203.167 174.9 205.033 184.5 206.9L202.1 210.5L205.167 206.5C206.9 204.367 209.3 200.767 210.5 198.5C212.633 194.633 212.633 194.367 208.367 186.767C205.967 182.633 203.567 179.167 203.167 179.167C202.767 179.167 200.1 182.233 197.167 185.967Z" fill="#E11D48"/>
<path d="M11.1665 244.5C11.1665 251.567 11.8332 256.633 13.1665 259.167C17.4332 267.433 12.8998 267.167 126.5 267.167C240.1 267.167 235.567 267.433 239.833 259.167C241.167 256.633 241.833 251.567 241.833 244.5V233.833H126.5H11.1665V244.5ZM130.9 247.033C131.567 251.3 127.833 254.233 124.367 252.367C121.833 251.033 120.9 245.833 122.767 243.967C123.3 243.433 125.3 243.167 127.167 243.433C129.567 243.7 130.633 244.767 130.9 247.033Z" fill="#E11D48"/>
<path d="M259.167 280.5V293.833H295.167H331.167V280.5V267.167H295.167H259.167V280.5Z" fill="#E11D48"/>
<path d="M88.5 283.833V289.7L80.2333 290.1C72.6333 290.5 71.8333 290.767 71.4333 293.567C70.3666 300.5 70.1 300.5 126.633 300.5C178.767 300.5 179.033 300.5 181.033 297.567C184.5 292.767 181.7 289.967 172.767 289.567L165.167 289.167L164.767 283.433L164.367 277.833H126.367H88.5V283.833Z" fill="#E11D48"/>
</svg>
