<svg width="683" height="683" viewBox="0 0 683 683" fill="none" xmlns="http://www.w3.org/2000/svg">
<path d="M119.067 22.4C109.334 25.8666 100.934 33.2 96.4003 42.4L92.667 50L92.267 280.8C92.0003 505.067 92.0003 511.733 94.5337 514.8C98.0003 519.067 106 519.067 109.467 514.8C111.867 511.867 112 505.2 112 313.867V116H276.667H441.334V142C441.334 169.6 442 173.333 447.6 175.867C452.134 178 453.867 177.733 457.867 174.533L461.334 171.867V112.133C461.334 45.0666 461.334 44.9333 451.734 34C448.8 30.6666 443.2 26.2666 439.467 24.2666L432.667 20.6666L279.334 20.4C134.667 20.1333 125.6 20.1333 119.067 22.4ZM430.8 42.6666C440.267 47.6 441.334 50.9333 441.334 74.9333V96H276.667H112V75.8666C112 52.2666 113.6 47.4666 123.2 42.6666C128.534 40 130.934 40 277.067 40C423.734 40 425.467 40 430.8 42.6666Z" fill="#E11D48"/>
<path d="M271.733 59.3331C266.8 61.9998 265.467 68.5331 269.067 73.1998L271.6 76.6664L301.733 77.0664C330.533 77.3331 332.133 77.1998 334.667 74.6664C338.667 70.6664 338.267 63.5998 333.867 60.1331C330.533 57.4664 328.667 57.3331 302.8 57.3331C281.467 57.4664 274.533 57.8664 271.733 59.3331Z" fill="#E11D48"/>
<path d="M295.6 142.4C293.066 145.2 233.333 294.8 233.333 298.4C233.333 305.2 242.666 310 248.533 306.133C250.933 304.667 258.666 286.4 281.866 228.267C298.4 186.533 312 150.8 312 148.933C312 141.333 300.666 136.8 295.6 142.4Z" fill="#E11D48"/>
<path d="M204.667 172C203.2 172.533 191.6 183.467 179.067 196.267C159.733 215.733 156 220.133 156 223.467C156 226.667 159.867 231.333 179.733 251.733C205.2 278 206.667 278.933 213.867 273.2C216.4 271.2 217.333 269.333 217.333 265.6C217.333 261.2 215.733 259.2 198.667 242.133L180.133 223.333L198.667 204.533C215.6 187.6 217.333 185.333 217.333 181.067C217.333 174.133 210.8 169.467 204.667 172Z" fill="#E11D48"/>
<path d="M341.733 172C338.133 173.467 336 177.333 336 182.133C336 185.067 339.867 189.6 354.667 204.667L373.467 223.467L354.667 242.933C334.4 264.133 333.067 266.533 339.333 272.667C345.867 279.333 347.733 278.133 373.6 252.267C394.8 231.067 397.333 228.133 397.333 224.133C397.333 220.267 394.8 217.067 375.733 197.067C356.4 176.8 349.2 170.533 345.733 170.8C345.2 170.8 343.333 171.333 341.733 172Z" fill="#E11D48"/>
<path fill-rule="evenodd" clip-rule="evenodd" d="M441.333 524V535.333V546.667H269.6H97.7333L94.9333 549.733C92 552.8 92 553.6 92 591.067C92 626 92.2667 629.867 94.6667 636.4C98.2667 646.133 105.2 653.733 114.4 658.267L122 662H276.667H431.333L438.4 658.8C442.533 656.933 447.733 653.067 451.2 649.2C461.2 638 461.333 637.333 461.333 577.067V524H441.333ZM438.4 633.333C441.2 629.067 441.333 627.867 441.333 597.867V566.667H276.667H112V596.8C112 625.333 112.133 627.2 114.933 632.133C116.8 635.467 119.867 638.267 123.333 640C128.8 642.667 131.6 642.667 277.467 642.667C419.467 642.667 426.267 642.533 430.667 640.133C433.2 638.8 436.667 635.733 438.4 633.333Z" fill="#E11D48"/>
<path d="M224.267 601.733C218.934 607.467 221.734 616 229.6 618C231.334 618.4 253.867 618.667 279.734 618.4L326.934 618L329.467 614.8C332.8 610.8 332.667 604.667 329.334 601.333C326.8 598.8 324.934 598.667 276.934 598.667H227.067L224.267 601.733Z" fill="#E11D48"/>
<path d="M528.5 337.129C528.5 337.129 546.5 304.999 550 299C553.5 293 544.5 289 541 294.5C537.5 300 518.5 331.826 518.5 331.826C521.959 333.463 525.292 335.236 528.5 337.129Z" fill="#E11D48"/>
<path d="M402.505 331.826C394 319.5 380.2 286.8 373 292C365.8 297.2 385.5 324 392.222 337.129C395.52 335.234 398.947 333.461 402.505 331.826Z" fill="#E11D48"/>
<path fill-rule="evenodd" clip-rule="evenodd" d="M325 444H595.5C595.141 416.502 574.715 364.392 528.5 337.129C525.292 335.236 521.959 333.463 518.5 331.826C502.325 324.173 483.39 319.5 461.5 319.5C438.82 319.5 419.216 324.147 402.505 331.826C398.947 333.461 395.52 335.234 392.222 337.129C346.817 363.214 325.943 412.405 325 444ZM410 391C407.792 381.124 397.667 381.333 393.5 382.5C387.454 386.192 385.436 389.078 386.5 397C388.348 402.555 390.559 404.818 398.5 406C404.543 405.365 412.154 400.638 410 391ZM535 393.5C534.2 383.5 526.333 382 522.5 382.5C513.211 383.929 511.429 387.734 511.5 396.5C512.654 402.69 514.877 404.94 522.5 406C527 406 535.8 403.5 535 393.5Z" fill="#E11D48"/>
<path d="M528.5 337.129C574.715 364.392 595.141 416.502 595.5 444H325C325.943 412.405 346.817 363.214 392.222 337.129M528.5 337.129C528.5 337.129 546.5 304.999 550 299C553.5 293 544.5 289 541 294.5C537.5 300 518.5 331.826 518.5 331.826M528.5 337.129C525.292 335.236 521.959 333.463 518.5 331.826M518.5 331.826C502.325 324.173 483.39 319.5 461.5 319.5C438.82 319.5 419.216 324.147 402.505 331.826M402.505 331.826C394 319.5 380.2 286.8 373 292C365.8 297.2 385.5 324 392.222 337.129M402.505 331.826C398.947 333.461 395.52 335.234 392.222 337.129M393.5 382.5C397.667 381.333 407.792 381.124 410 391C412.154 400.638 404.543 405.365 398.5 406C390.559 404.818 388.348 402.555 386.5 397C385.436 389.078 387.454 386.192 393.5 382.5ZM522.5 382.5C526.333 382 534.2 383.5 535 393.5C535.8 403.5 527 406 522.5 406C514.877 404.94 512.654 402.69 511.5 396.5C511.429 387.734 513.211 383.929 522.5 382.5Z" stroke="black"/>
</svg>
