<svg width="684" height="684" viewBox="0 0 684 684" fill="none" xmlns="http://www.w3.org/2000/svg">
<path d="M106.5 493.167L109.7 489.833H47.7001C71.7001 489.833 72.5001 489.967 75.9668 493.033C81.1668 497.433 81.1668 504.9 75.9668 509.3C74.6371 510.476 73.6997 511.221 71.6949 511.692L109.7 510.413C104.115 509.531 104.648 508.279 103.967 506.5C102.233 501.833 103.167 496.367 106.5 493.167Z" fill="#E11D48"/>
<path fill-rule="evenodd" clip-rule="evenodd" d="M136.5 80.5H81.4334H26.3667L19.4334 83.9666C15.5667 85.8333 10.7667 89.5666 8.50008 92.2333C-0.0332527 102.633 0.500081 87.5666 0.766747 327.167L1.16675 545.167L4.10008 550.633C5.70008 553.567 9.30008 558.1 11.9667 560.5C22.5001 569.7 15.3001 569.167 132.9 569.567L239.3 569.967L238.5 574.233C235.7 586.9 228.767 599.967 219.033 610.5C213.7 616.367 213.3 616.5 205.3 616.5C192.5 616.633 181.3 623.3 175.7 634.1C172.633 639.967 171.833 651.3 173.967 658.767C176.233 667.033 186.767 677.833 194.633 680.233C198.767 681.433 234.5 681.833 342.1 681.833C503.033 681.833 491.967 682.633 502.233 671.167C521.833 649.433 507.433 616.633 478.367 616.5C470.367 616.5 469.967 616.367 464.633 610.5C454.9 599.967 447.967 586.9 445.167 574.233L444.367 569.967L550.767 569.567C668.367 569.167 661.167 569.7 671.7 560.5C674.367 558.1 677.967 553.567 679.567 550.633L682.5 545.167L682.9 327.167C683.167 87.8333 683.7 103.3 675.167 92.5C672.9 89.7 667.967 85.8333 664.233 83.9666L657.3 80.5H581.967H506.633H136.5ZM529.433 103.167H591.3C656.5 103.3 655.567 103.167 658.9 109.433C660.1 111.567 660.5 160.1 660.5 301.033V489.833H385.167H109.7L106.5 493.167C103.167 496.367 102.233 501.833 103.967 506.5C104.648 508.279 104.115 509.531 109.7 510.413C123.789 512.637 176.814 512.5 386.5 512.5H660.5V525.833C660.5 538.233 660.233 539.567 657.3 542.5C655.567 544.233 652.1 545.967 649.7 546.5C647.167 546.9 506.633 547.033 337.433 546.9L29.5667 546.5L26.3667 542.767C23.4334 539.3 23.1667 537.833 23.1667 525.7V512.5H47.7001L71.6949 511.692C73.6997 511.221 74.6371 510.476 75.9668 509.3C81.1668 504.9 81.1668 497.433 75.9668 493.033C72.5001 489.967 71.7001 489.833 47.7001 489.833H23.1667V301.033C23.1667 160.1 23.5667 111.567 24.7667 109.433C27.9667 103.167 27.7001 103.3 83.4334 103.167H136.5H529.433ZM437.167 608.767C432.633 601.833 427.3 588.367 425.433 578.633L423.7 570.5L342.1 570.1C277.433 569.833 260.367 570.1 259.967 571.433C259.7 572.367 258.5 577.167 257.3 582.1C254.9 592.1 250.1 603.967 245.833 609.833C244.367 611.833 243.167 614.233 243.167 615.033C243.167 616.1 271.167 616.5 341.833 616.5C408.1 616.5 440.5 616.1 440.5 615.167C440.5 614.367 439.033 611.567 437.167 608.767ZM486.233 658.1C492.767 651.967 491.833 642.233 484.367 638.5C478.767 635.567 204.367 635.567 199.033 638.5C191.833 642.367 191.033 652.1 197.433 658.1L200.767 661.167H341.833H482.9L486.233 658.1Z" fill="#E11D48"/>
<path d="M200.178 159.582C201.433 159.576 202.689 159.571 203.982 159.565C208.211 159.548 212.441 159.542 216.67 159.536C219.693 159.526 222.716 159.516 225.739 159.505C233.969 159.478 242.2 159.461 250.43 159.448C255.569 159.44 260.708 159.431 265.848 159.421C281.92 159.391 297.992 159.369 314.064 159.356C332.631 159.341 351.197 159.3 369.764 159.237C384.105 159.19 398.446 159.167 412.787 159.162C421.357 159.158 429.926 159.144 438.496 159.105C446.558 159.069 454.621 159.062 462.683 159.078C465.642 159.079 468.602 159.069 471.561 159.048C475.602 159.02 479.641 159.031 483.682 159.052C484.852 159.035 486.022 159.018 487.228 159C495.207 159.098 499.673 161.045 505.833 166.04C512.851 173.934 512.929 180.545 512.769 190.596C512.77 192.101 512.771 193.606 512.772 195.157C512.767 200.111 512.719 205.065 512.67 210.019C512.658 213.462 512.65 216.905 512.643 220.348C512.62 229.396 512.558 238.443 512.489 247.49C512.426 256.727 512.397 265.965 512.366 275.203C512.299 293.318 512.193 311.433 512.062 329.548C505.518 326.668 501.071 323.032 494.932 318.647C494.932 287.3 494.932 255.954 494.932 223.657C393.698 223.657 292.463 223.657 188.161 223.657C188.354 257.766 188.547 291.875 188.745 327.017C188.798 337.801 188.851 348.586 188.906 359.697C188.968 369.333 188.968 369.333 189.034 378.97C189.062 383.274 189.084 387.578 189.1 391.883C189.124 398.389 189.172 404.895 189.222 411.401C189.225 413.33 189.229 415.259 189.232 417.247C189.25 418.99 189.267 420.733 189.285 422.529C189.293 424.054 189.302 425.578 189.311 427.149C189.372 431.067 189.372 431.067 192.833 433.881C196.664 434.331 196.664 434.331 201.191 434.22C202.966 434.217 204.74 434.215 206.569 434.212C208.526 434.193 210.482 434.174 212.498 434.155C215.651 434.144 218.804 434.134 221.957 434.124C225.354 434.111 228.751 434.091 232.148 434.07C239.237 434.029 246.326 434.022 253.415 434.024C255.844 434.024 258.272 434.024 260.701 434.024C262.525 434.024 262.525 434.024 264.387 434.024C280.892 434.023 297.397 433.994 313.902 433.887C325.032 433.815 336.161 433.793 347.291 433.827C353.177 433.843 359.06 433.834 364.946 433.763C370.496 433.696 376.041 433.696 381.591 433.744C384.573 433.753 387.555 433.693 390.536 433.63C403.739 433.833 438.134 439.197 438.134 439.197C438.134 439.197 423.241 449.546 423.301 451.01C392.804 451.156 362.307 451.266 331.81 451.333C317.649 451.365 303.489 451.409 289.328 451.48C276.986 451.542 264.643 451.582 252.301 451.596C245.766 451.604 239.231 451.624 232.696 451.669C226.543 451.711 220.39 451.724 214.237 451.715C211.981 451.717 209.725 451.729 207.469 451.753C204.383 451.784 201.297 451.773 198.212 451.759C195.624 451.768 195.624 451.768 192.983 451.777C185.745 450.626 180.864 447.039 175.996 441.667C172.242 435.345 172.389 429.255 172.37 422.012C172.366 420.978 172.361 419.943 172.356 418.878C172.343 415.415 172.341 411.952 172.338 408.489C172.331 406.005 172.323 403.521 172.315 401.037C172.294 394.29 172.284 387.543 172.277 380.796C172.273 376.58 172.266 372.363 172.259 368.147C172.238 354.951 172.223 341.755 172.217 328.559C172.21 313.333 172.183 298.106 172.138 282.88C172.104 271.106 172.088 259.332 172.086 247.558C172.085 240.528 172.075 233.498 172.048 226.467C172.022 219.853 172.019 213.239 172.032 206.624C172.033 204.201 172.027 201.777 172.011 199.353C171.991 196.036 172.001 192.72 172.017 189.403C172.015 187.549 172.012 185.696 172.01 183.786C172.899 175.668 175.129 169.573 181.251 163.899C187.735 159.577 192.565 159.58 200.178 159.582Z" fill="#E11D48"/>
<path d="M512.062 329.548C505.518 326.668 501.071 323.032 494.932 318.647V427.081C494.932 431.624 495.18 433.744 490.384 433.744C485.588 433.744 390.536 433.63 390.536 433.63C403.739 433.833 438.134 439.197 438.134 439.197C438.134 439.197 423.241 449.546 423.301 451.01C423.301 451.01 470.443 451.465 490.384 451.01C510.325 450.556 510.83 447.779 510.83 427.081C510.83 406.382 512.062 329.548 512.062 329.548Z" fill="#E11D48"/>
<path d="M253.431 182.055C256.546 184.585 256.546 184.585 258.103 188.284C258.001 194.107 257.734 197.721 254.015 202.298C248.579 204.587 245.035 203.831 239.416 202.298C236.302 199.768 236.302 199.768 234.745 196.07C234.847 190.246 235.113 186.632 238.832 182.055C244.268 179.766 247.812 180.522 253.431 182.055Z" fill="#F3F3F3"/>
<path d="M289.247 180.497C293.934 184.064 296.563 186.401 298.007 192.176C296.543 198.032 294.096 200.348 289.247 203.856C283.249 203.959 279.906 203.657 275.33 199.67C273.149 194.923 272.921 191.897 273.675 186.726C277.997 180.41 281.765 179.123 289.247 180.497Z" fill="#F2F2F2"/>
<path d="M212.944 180.498C216.642 182.931 216.642 182.931 219.173 186.727C220.049 192.177 220.049 192.177 219.173 197.627C215.406 201.824 212.932 203.554 207.396 204.635C202.275 203.584 200.504 201.766 197.372 197.627C195.813 193.173 195.448 190.909 196.982 186.435C201.294 180.182 205.835 179.627 212.944 180.498Z" fill="#F4F4F4"/>
<path d="M356.773 267.981C354.763 270.203 307.364 388.912 307.364 391.769C307.364 397.165 314.77 400.974 319.426 397.905C321.33 396.742 327.466 382.247 345.876 336.117C358.995 303.002 369.787 274.647 369.787 273.166C369.787 267.135 360.794 263.538 356.773 267.981Z" fill="#E11D48"/>
<path d="M284.617 291.47C283.454 291.893 274.249 300.568 264.304 310.725C248.962 326.172 246 329.664 246 332.309C246 334.848 249.068 338.551 264.833 354.739C285.041 375.582 286.204 376.322 291.918 371.773C293.928 370.186 294.669 368.704 294.669 365.742C294.669 362.251 293.399 360.664 279.856 347.121L265.15 332.203L279.856 317.285C293.293 303.848 294.669 302.05 294.669 298.664C294.669 293.162 289.484 289.459 284.617 291.47Z" fill="#E11D48"/>
<path d="M393.381 291.469C390.524 292.633 388.832 295.701 388.832 299.51C388.832 301.838 391.9 305.435 403.644 317.391L418.562 332.309L403.644 347.756C387.562 364.578 386.504 366.483 391.477 371.349C396.661 376.639 398.142 375.687 418.667 355.162C435.49 338.339 437.5 336.012 437.5 332.838C437.5 329.769 435.49 327.23 420.36 311.36C405.019 295.278 399.306 290.306 396.555 290.517C396.132 290.517 394.651 290.94 393.381 291.469Z" fill="#E11D48"/>
</svg>
