<svg width="684" height="684" viewBox="0 0 684 684" fill="none" xmlns="http://www.w3.org/2000/svg">
<g clip-path="url(#clip0_1674_48)">
<path d="M326.233 2.36663C302.5 8.09996 281.967 28.2333 275.833 51.8333C268.233 81.0333 282.233 113.167 308.9 128.233C328.633 139.433 355.033 139.433 374.767 128.233C414.233 105.967 421.7 52.7666 389.7 20.7666C373.033 4.09996 348.5 -2.96671 326.233 2.36663ZM358.233 26.6333C367.033 29.5666 379.3 41.1666 383.3 50.1C387.967 60.6333 387.833 77.0333 382.9 87.4333C378.633 96.6333 370.1 105.3 361.167 109.833C355.433 112.633 352.633 113.167 341.833 113.167C331.033 113.167 328.233 112.633 322.5 109.833C313.567 105.3 305.033 96.6333 300.767 87.4333C295.833 77.0333 295.7 60.5 300.233 50.5C303.433 43.4333 311.833 33.9666 318.633 29.8333C329.167 23.3 344.767 21.9666 358.233 26.6333Z" fill="#E11D48"/>
<path d="M191.567 69.5663C187.7 70.0997 183.167 75.9663 183.167 80.0997C183.167 86.0997 185.967 88.7663 199.3 95.033L212.634 101.3L200.9 108.233C140.634 143.833 94.6337 205.966 77.3003 274.9C73.4337 290.1 70.367 310.5 69.167 329.3C67.8337 348.233 71.0337 353.7 82.5003 352.233C89.167 351.433 90.767 347.033 92.367 326.5C97.7003 253.833 130.1 191.033 185.167 146.9C195.434 138.766 212.767 127.033 213.567 127.7C213.834 127.966 212.234 131.833 209.967 136.366C205.167 145.833 204.767 150.766 208.634 155.7C210.767 158.366 212.5 159.166 216.234 159.166C218.9 159.166 222.234 158.233 223.567 157.3C224.9 156.233 231.567 143.566 238.634 129.033C251.834 101.166 252.5 98.7663 247.3 93.433C244.9 90.8997 204.367 71.833 197.834 69.9663C195.967 69.433 193.167 69.2997 191.567 69.5663Z" fill="#E11D48"/>
<path d="M437.433 92.4998C433.033 95.9665 431.967 100.9 434.633 105.966C436.1 109.033 439.3 111.166 446.633 114.633C522.1 149.033 577.7 223.3 589.167 305.033L590.1 311.7L581.833 304.1C572.5 295.433 568.367 294.5 562.367 299.7C559.567 302.1 558.633 303.967 558.633 307.7C558.633 312.233 560.1 314.1 578.5 332.5C605.3 359.3 602.367 359.3 628.767 332.767C647.167 314.367 648.5 312.767 648.5 308.1C648.5 301.567 643.7 296.5 637.7 296.5C634.367 296.5 631.7 298.367 623.7 305.967C612.5 316.9 614.1 318.1 610.5 295.167C599.3 224.767 556.233 157.7 495.567 116.366C479.033 105.166 449.567 89.8332 444.367 89.8332C442.5 89.8332 439.3 91.0332 437.433 92.4998Z" fill="#E11D48"/>
<path d="M282.234 150.5C271.434 153.433 264.634 157.433 256.5 165.7C247.434 174.767 242.367 184.633 240.5 197.3C239.567 203.033 239.167 221.7 239.434 243.967C239.834 285.567 240.367 288.233 249.967 297.7C259.7 307.433 256.367 307.167 341.834 307.167C413.3 307.167 418.9 306.9 423.834 304.633C430.9 301.433 437.567 294.633 441.034 287.167C443.7 281.433 443.834 278.9 443.834 238.5C443.834 190.367 443.3 186.9 434.234 173.833C423.567 158.767 407.567 149.567 391.167 149.433C384.367 149.3 379.967 150.233 370.5 153.833C359.167 158.1 357.567 158.367 341.834 158.367C326.234 158.367 324.367 158.1 313.167 153.967C299.034 148.633 291.7 147.833 282.234 150.5ZM302.1 174.367C313.3 178.633 330.5 181.833 341.834 181.833C353.3 181.833 370.1 178.633 381.834 174.233C390.9 170.9 391.034 170.9 397.967 173.167C406.5 176.1 413.967 182.633 418.1 190.9C421.034 197.033 421.167 198.1 421.167 237.433V277.567L417.967 281.033L414.767 284.5H341.834H268.9L265.7 281.033L262.5 277.567V237.433C262.5 198.367 262.634 197.033 265.434 191.167C269.434 183.033 275.967 177.033 283.967 173.833C292.367 170.633 291.967 170.633 302.1 174.367Z" fill="#E11D48"/>
<path d="M81.8336 379.566C60.6336 386.766 43.4336 404.633 37.3003 425.7C34.767 434.5 34.5003 452.1 37.0336 461.166C46.367 496.1 81.967 518.366 116.767 511.033C141.567 505.833 164.5 482.9 169.7 458.1C177.034 423.3 154.767 387.7 119.834 378.366C109.3 375.433 91.967 376.1 81.8336 379.566ZM122.1 403.433C156.634 419.433 156.5 469.033 121.967 485.033C104.234 493.166 85.167 489.966 71.3003 476.5C55.567 461.3 53.4336 435.166 66.367 417.566C71.7003 410.5 81.0336 403.566 89.0336 401.033C97.8336 398.1 113.167 399.3 122.1 403.433Z" fill="#E11D48"/>
<path d="M563.167 378.366C528.767 387.966 506.767 423.566 513.967 458.1C519.167 482.9 542.1 505.833 566.9 511.033C601.7 518.366 637.3 496.1 646.634 461.166C649.034 452.233 649.034 436.233 646.5 426.5C640.767 404.5 620.5 384.233 598.5 378.5C589.167 376.1 571.567 376.1 563.167 378.366ZM599.834 403.166C608.367 407.3 617.7 416.633 621.834 425.166C624.634 430.766 625.167 433.833 625.167 443.833C625.167 453.966 624.634 456.9 621.567 463.433C610.767 486.5 584.367 495.833 561.034 484.633C534.9 472.1 527.3 437.966 545.7 415.566C550.767 409.433 555.834 405.833 564.367 402.233C574.367 397.966 589.967 398.366 599.834 403.166Z" fill="#E11D48"/>
<path d="M41.0334 526.5C27.1668 530.9 14.9001 540.767 7.96676 553.167C1.16676 565.567 0.366763 572.633 0.766763 617.7C1.16676 656.633 1.3001 658.767 4.1001 663.833C7.43343 670.1 13.9668 676.5 20.5001 679.967C24.9001 682.367 29.9668 682.5 99.8334 682.9C180.367 683.3 181.7 683.167 191.167 676.367C204.5 666.633 206.367 657.833 205.433 607.433C204.767 567.967 204.233 563.967 197.3 552.233C193.433 545.567 183.167 535.3 176.5 531.567C163.7 524.367 148.367 522.5 138.367 527.033C118.1 536.233 84.2334 535.967 65.9668 526.633C61.1668 524.1 48.7668 524.1 41.0334 526.5ZM66.7668 551.033C89.5668 558.767 116.367 558.767 139.033 551.167C145.567 548.9 152.1 547.167 153.567 547.167C161.833 547.167 175.167 557.433 179.7 567.167C182.233 572.633 182.5 576.233 182.9 609.167C183.3 633.3 182.9 647.167 181.967 650.9C179.3 660.767 181.833 660.5 101.833 660.5H30.9001L27.0334 656.633L23.1668 652.767V614.9C23.1668 593.3 23.7001 575.033 24.5001 572.233C26.9001 563.567 33.8334 554.9 41.7001 550.9C45.5668 548.9 50.2334 547.167 51.9668 547.167C53.5668 547.167 60.2334 548.9 66.7668 551.033Z" fill="#E11D48"/>
<path d="M517.833 526.9C499.567 533.7 486.767 546.633 481.033 563.967C478.1 572.5 476.767 639.833 479.033 653.3C480.9 663.7 485.167 671.033 492.5 676.367C501.967 683.167 503.3 683.3 583.833 682.9C653.7 682.5 658.767 682.367 663.167 679.967C669.7 676.5 676.233 670.1 679.567 663.833C682.367 658.767 682.5 656.633 682.9 617.7C683.3 572.633 682.5 565.567 675.7 553.167C671.167 545.033 660.767 534.767 653.567 531.033C640.767 524.5 625.433 522.633 617.7 526.633C599.433 535.967 565.567 536.233 545.3 527.033C538.5 523.967 525.967 523.833 517.833 526.9ZM544.633 551.167C567.433 558.767 593.967 558.767 617.433 550.9C626.367 547.967 631.033 547.033 634.367 547.7C641.967 549.167 651.167 556.367 655.7 564.5L659.833 571.833L660.233 612.233L660.633 652.5L656.633 656.5L652.767 660.5H581.833C501.833 660.5 504.367 660.767 501.7 650.9C500.767 647.167 500.367 633.3 500.767 609.167C501.167 575.967 501.433 572.767 503.967 567.167C507.3 560.1 513.833 553.567 521.167 549.967C528.367 546.367 530.767 546.5 544.633 551.167Z" fill="#E11D48"/>
<path d="M267.833 562.367C259.833 564.9 248.767 568.1 243.433 569.7C227.967 574.367 225.433 579.7 231.967 592.9C245.967 621.033 254.367 635.033 257.833 636.5C262.1 638.233 267.433 637.167 270.233 634.1C274.5 629.433 274.1 625.567 268.633 614.367L263.433 603.433L272.9 605.967C287.833 609.967 312.9 613.567 331.167 614.633C364.633 616.367 406.233 609.433 440.367 596.367C446.367 594.1 452.1 591.033 453.167 589.433C457.567 583.167 454.1 573.567 446.767 571.833C444.9 571.3 439.167 572.633 432.767 575.033C411.567 582.767 390.1 587.833 368.9 590.367C355.833 591.967 321.3 591.3 307.833 589.3C288.1 586.233 277.833 583.7 281.167 582.5C289.7 579.433 291.567 578.5 293.833 575.433C297.3 571.033 297.167 566.767 293.567 562.633C289.033 557.433 284.233 557.433 267.833 562.367Z" fill="#E11D48"/>
</g>
<defs>
<clipPath id="clip0_1674_48">
<rect width="682.667" height="682.667" fill="white" transform="translate(0.5 0.5)"/>
</clipPath>
</defs>
</svg>
