<svg width="268" height="268" viewBox="0 0 268 268" fill="none" xmlns="http://www.w3.org/2000/svg">
<path d="M17.0335 56.5C9.8335 59.4333 9.8335 59.0333 9.8335 122.233V180.633L13.1668 183.833L16.3668 187.167H45.8335C77.3002 187.167 77.4335 187.167 72.9002 193.833C69.5668 198.767 67.1668 200.367 60.7668 201.967C54.1002 203.833 51.4335 207.3 54.6335 210.367C56.3668 212.233 61.9668 212.5 94.3668 212.5C127.3 212.5 132.367 212.233 133.967 210.367C136.5 207.3 133.967 204.233 126.5 201.567C118.9 198.9 115.834 196.233 113.967 191.033L112.634 187.167H128.634H144.634L144.234 174.1L143.834 161.167L81.8335 160.5L19.8335 159.833V113.167V66.5L94.2335 66.1L168.5 65.8333V80.5V95.1667H173.834H179.167V80.5C179.167 64.1 177.7 59.4333 171.834 56.7667C167.7 54.9 21.7002 54.6333 17.0335 56.5ZM96.3668 169.833C99.7002 171.567 100.767 174.767 99.1668 177.967C97.5668 180.767 92.5002 181.3 90.1002 178.9C87.7002 176.5 88.1002 171.567 90.9002 169.967C93.7002 168.233 93.5668 168.233 96.3668 169.833Z" fill="#E11D48"/>
<path d="M154.633 107.433C152.767 109.967 152.5 117.167 152.5 158.633V207.033L155.967 209.7C159.3 212.367 161.3 212.5 183.7 212.5H207.833L207.433 205.167L206.9 197.833H185.167C168.5 197.833 163.167 197.433 161.967 195.967C160.9 194.767 160.5 182.633 160.767 154.367L161.167 114.5L190.367 114.1C212.9 113.833 219.833 114.233 220.767 115.433C221.3 116.367 221.833 119.967 221.833 123.433C221.833 129.7 221.967 129.833 225.833 129.833H229.833V121.033C229.833 112.633 228.367 107.567 225.3 105.567C224.5 105.033 208.767 104.5 190.233 104.5C157.033 104.5 156.633 104.5 154.633 107.433ZM194.5 205.167C194.5 208.1 190.367 209.567 188.233 207.433C185.967 205.167 188.1 201.567 191.433 202.1C193.433 202.367 194.5 203.433 194.5 205.167Z" fill="#E11D48"/>
<path d="M219.834 139.433C218.367 140.233 216.767 141.567 216.234 142.367C215.7 143.167 215.167 158.1 215.167 175.433C215.167 215.033 213.7 212.5 236.234 212.5C259.567 212.5 257.834 215.433 257.834 175.3C257.834 146.1 257.567 141.967 255.567 140.367C252.767 137.833 223.7 137.167 219.834 139.433ZM251.167 175.167V197.833H236.5H221.834V175.167V152.5H236.5H251.167V175.167ZM238.9 201.7C241.567 203.3 240.234 207.833 237.034 208.233C233.7 208.767 231.7 205.033 233.967 202.367C235.7 200.233 236.5 200.1 238.9 201.7Z" fill="#E11D48"/>
</svg>
