<svg width="1120" height="1059" viewBox="0 0 1120 1059" fill="none" xmlns="http://www.w3.org/2000/svg">
<path d="M296 54.5336L136.667 55.3336L131.333 58.267C125.733 61.3336 119.867 67.0669 114.533 74.6669L111.333 79.3336L110.933 260.934L110.533 442.667H133.2H156V290V137.2L159.467 130.267C164.667 120.134 170.133 113.734 175.067 112.267C177.467 111.467 186.267 110.534 194.667 110.134C203.067 109.734 349.6 108.934 520.133 108.534L830.4 107.6L834.8 110.4C843.2 115.6 850.933 124.667 852.133 130.934C852.8 134 853.733 205.734 854.267 290.134L855.067 443.6L875.867 444.534C887.467 445.067 897.867 445.067 899.067 444.534C901.2 443.734 901.333 433.6 901.2 289.467C901.2 124.4 900.4 83.7336 897.067 75.8669C894.533 69.8669 887.467 61.7336 882.533 59.2003C880.267 58.0003 871.333 56.8003 859.733 56.0003C835.6 54.4003 504.933 53.467 296 54.5336Z" fill="#E11D48"/>
<path d="M40.4 477.2C30 478.534 29.0667 480 27.7333 497.6C26.2667 516 27.0667 863.467 28.6667 867.734C29.2 869.467 31.2 871.467 33.2 872.267C41.0667 875.467 249.6 874.8 252.8 871.734C253.2 871.2 254.133 868.134 254.8 865.067C256.133 858 258.133 490 256.8 484.934C256.133 482.267 254.4 480.4 250.933 478.934C246.4 476.934 236.667 476.667 146.667 476.534C92 476.4 44.1333 476.667 40.4 477.2ZM170.667 499.334V505.334L141.733 505.067L112.667 504.667L112.267 498.934L111.867 493.334H141.2H170.667V499.334ZM236.267 526.4C237.333 527.467 238.267 535.867 239.067 552.4C240.267 580.267 239.467 777.867 238 782.267C237.333 784.534 235.6 785.467 230.8 786.267C220.4 787.867 53.2 787.467 49.2 785.734C46.2667 784.4 45.6 783.067 44.9333 777.067C43.6 766.534 43.8667 540.267 45.2 533.6C45.8667 530.534 46.8 527.467 47.3333 526.934C49.4667 524.8 69.0667 524.267 149.6 524.534C216.267 524.667 234.933 525.067 236.267 526.4ZM151.333 807.334C168.8 814.4 171.733 838.534 156.533 850.134C152.133 853.6 150.533 854 141.867 854C133.067 854 131.733 853.6 127.067 849.867C110.667 836.8 115.467 813.067 135.867 805.867C140.8 804.134 144.4 804.534 151.333 807.334Z" fill="#E11D48"/>
<path d="M718.8 482.8C714.133 483.333 709.733 484.533 709.2 485.467C706.933 489.2 706.533 545.6 706.933 767.333C707.2 950.8 707.733 1002.67 708.933 1004.93C710.4 1007.33 712.4 1008 720.933 1008.8C735.6 1010.27 1079.6 1010 1085.2 1008.53C1088.67 1007.6 1090.13 1006.27 1091.2 1003.33C1092.8 998.4 1093.2 501.333 1091.6 491.6C1090.67 486.533 1089.73 484.933 1086.93 483.6C1082.67 481.733 732.933 480.933 718.8 482.8ZM1048.93 517.067C1054.27 517.6 1058.93 518.533 1059.47 519.067C1062.13 521.6 1062.53 547.2 1063.47 721.333L1064.27 908.667L1059.07 913.733L1053.87 918.8L899.2 918.4C754.133 918 744.4 917.867 740.4 915.6L736 913.2V717.333V521.467L739.067 519.733C740.667 518.8 746.267 517.733 751.333 517.2C764.8 516.133 1037.47 516 1048.93 517.067ZM910.133 939.2C921.2 944.4 926.133 953.067 925.067 965.867C923.467 984.4 903.733 995.334 887.067 986.934C877.2 981.867 872.533 972.934 873.6 960.534C874.4 951.334 879.333 944.8 889.333 939.6C898 935.2 901.333 935.067 910.133 939.2Z" fill="#E11D48"/>
<path d="M288 630.667V689.333H479.333H670.667V630.667V572H479.333H288V630.667Z" fill="#E11D48"/>
<path d="M411.733 754.267L411.333 788.667L378.266 789.333C340.933 790.133 342.133 789.733 343.066 800.4C344.133 812.4 330.133 811.333 488.4 811.733C636.266 812.267 662.8 811.733 666 808.4C668.133 806.4 668.8 795.2 666.933 792.533C664.933 789.6 659.866 789.2 630.4 789.2L600 789.333L599.733 755.067L599.333 720.667L505.733 720.267L412 720L411.733 754.267Z" fill="#E11D48"/>
<path d="M918.6 664.497C916.066 667.297 856.333 816.897 856.333 820.497C856.333 827.297 865.666 832.097 871.533 828.23C873.933 826.764 881.666 808.497 904.866 750.364C921.4 708.63 935 672.897 935 671.03C935 663.43 923.666 658.897 918.6 664.497Z" fill="#E11D48"/>
<path d="M827.667 694.097C826.2 694.63 814.6 705.564 802.067 718.364C782.733 737.83 779 742.23 779 745.564C779 748.764 782.867 753.43 802.733 773.83C828.2 800.097 829.667 801.03 836.867 795.297C839.4 793.297 840.333 791.43 840.333 787.697C840.333 783.297 838.733 781.297 821.667 764.23L803.133 745.43L821.667 726.63C838.6 709.697 840.333 707.43 840.333 703.164C840.333 696.23 833.8 691.564 827.667 694.097Z" fill="#E11D48"/>
<path d="M964.733 694.097C961.133 695.564 959 699.431 959 704.231C959 707.164 962.867 711.697 977.667 726.764L996.467 745.564L977.667 765.031C957.4 786.231 956.067 788.631 962.333 794.764C968.867 801.431 970.733 800.231 996.6 774.364C1017.8 753.164 1020.33 750.231 1020.33 746.231C1020.33 742.364 1017.8 739.164 998.733 719.164C979.4 698.897 972.2 692.631 968.733 692.897C968.2 692.897 966.333 693.431 964.733 694.097Z" fill="#E11D48"/>
<path d="M474.439 181.008C475.5 181.005 475.5 181.005 476.583 181.002C478.928 180.998 481.272 181.001 483.617 181.004C485.244 181.004 486.87 181.003 488.497 181.001C491.909 181 495.321 181.002 498.734 181.007C503.11 181.012 507.486 181.009 511.862 181.003C515.222 181 518.582 181.001 521.943 181.003C523.556 181.004 525.17 181.003 526.783 181.001C529.038 180.998 531.293 181.002 533.549 181.008C534.833 181.008 536.117 181.009 537.44 181.01C540.559 181.137 540.559 181.137 543.559 182.137C543.559 182.797 543.559 183.457 543.559 184.137C544.549 184.467 545.539 184.797 546.559 185.137C549.204 189.605 548.815 194.352 548.754 199.375C548.751 200.256 548.748 201.137 548.745 202.044C548.734 204.846 548.709 207.648 548.684 210.45C548.674 212.354 548.664 214.258 548.656 216.162C548.634 220.821 548.6 225.479 548.559 230.137C549.326 230.28 550.093 230.423 550.883 230.571C553.612 231.148 556 232.04 558.559 233.137C558.559 233.797 558.559 234.457 558.559 235.137C559.631 235.385 560.704 235.632 561.809 235.887C565.657 237.17 566.796 238.374 569.559 241.137C572.831 240.725 575.365 239.258 578.191 237.625C579.081 237.114 579.97 236.603 580.887 236.077C581.81 235.54 582.733 235.003 583.684 234.45C584.583 233.932 585.483 233.414 586.41 232.881C590.072 230.769 593.724 228.654 597.318 226.428C598.194 225.886 599.07 225.344 599.973 224.786C600.753 224.294 601.534 223.802 602.338 223.295C606.117 221.324 608.357 221.367 612.559 222.137C618.777 225.635 621.749 231.844 625.247 237.875C626.775 240.511 628.321 243.136 629.867 245.762C635.618 255.555 641.336 265.364 646.806 275.316C648.169 277.777 649.515 280.082 651.266 282.289C653.628 285.665 653.232 289.203 652.559 293.137C649.856 300.202 643.003 303.072 636.559 306.137C635.746 306.466 634.934 306.795 634.097 307.133C624.25 311.096 624.25 311.096 616.559 318.137C614.099 326.872 615.328 336.266 616.559 345.137C617.677 345.772 617.677 345.772 618.818 346.419C621.624 348.014 624.427 349.613 627.228 351.216C628.433 351.905 629.639 352.591 630.847 353.276C646.674 362.252 646.674 362.252 652.559 368.137C652.966 375.045 650.886 380.48 647.371 386.262C646.717 387.388 646.717 387.388 646.049 388.537C645.088 390.186 644.119 391.83 643.143 393.47C641.453 396.315 639.791 399.175 638.133 402.039C635.759 406.138 633.368 410.227 630.965 414.309C628.817 417.963 626.71 421.634 624.652 425.34C624.21 426.125 623.768 426.91 623.312 427.719C622.505 429.155 621.71 430.598 620.93 432.049C618.451 436.415 616.342 438.545 611.559 440.137C605.846 440.816 602.669 439.526 597.809 436.575C597.209 436.216 596.609 435.858 595.991 435.488C591.183 432.594 586.453 429.57 581.766 426.485C579.518 424.999 579.518 424.999 576.559 424.137C576.559 423.477 576.559 422.817 576.559 422.137C570.03 421.425 567.054 422.7 561.801 426.536C557.806 429.389 553.558 432.137 548.559 432.137C548.58 433.312 548.6 434.487 548.622 435.698C548.695 440.079 548.74 444.461 548.778 448.842C548.798 450.735 548.826 452.627 548.86 454.519C548.909 457.247 548.932 459.975 548.949 462.703C548.98 463.962 548.98 463.962 549.012 465.245C549.014 471.03 548.005 474.437 544.559 479.137C541.046 481.556 537.754 481.396 533.574 481.412C532.532 481.419 532.532 481.419 531.469 481.427C529.177 481.441 526.886 481.44 524.594 481.438C522.997 481.442 521.401 481.446 519.804 481.451C516.459 481.458 513.115 481.458 509.77 481.453C505.488 481.447 501.207 481.464 496.925 481.487C493.628 481.502 490.331 481.503 487.034 481.5C485.456 481.5 483.877 481.505 482.299 481.515C480.09 481.528 477.881 481.521 475.672 481.509C473.788 481.51 473.788 481.51 471.866 481.511C467.323 480.997 464.706 479.486 461.764 476.027C460.058 471.938 460.186 468.284 460.266 463.899C460.27 463.018 460.274 462.137 460.278 461.23C460.295 458.428 460.333 455.626 460.371 452.825C460.386 450.92 460.4 449.016 460.412 447.112C460.445 442.453 460.497 437.795 460.559 433.137C459.622 432.836 458.686 432.535 457.721 432.225C454.658 431.171 452.237 429.907 449.496 428.2C448.68 427.696 447.864 427.192 447.023 426.672C445.349 425.629 443.696 424.552 442.062 423.446C439.216 421.958 437.723 421.708 434.559 422.137C432.442 423.036 432.442 423.036 430.371 424.45C429.095 425.254 429.095 425.254 427.793 426.075C426.726 426.755 425.658 427.436 424.559 428.137C421.42 430.086 418.271 432.018 415.121 433.95C413.931 434.688 413.931 434.688 412.716 435.441C411.588 436.136 411.588 436.136 410.438 436.844C409.425 437.47 409.425 437.47 408.393 438.109C404.416 440.338 400.019 441.028 395.559 440.137C391.174 437.348 388.976 433.888 386.621 429.387C385.843 427.954 385.063 426.521 384.281 425.09C383.853 424.305 383.426 423.519 382.985 422.709C380.264 417.802 377.4 412.976 374.559 408.137C370.039 400.422 365.565 392.686 361.223 384.87C359.748 382.219 358.243 379.663 356.559 377.137C356.188 375.051 356.188 375.051 356.121 372.762C356.081 372.012 356.041 371.262 356 370.489C357.072 365.978 360.755 363.684 364.434 361.18C365.465 360.568 366.496 359.955 367.559 359.325C368.706 358.639 369.853 357.953 371 357.266C371.585 356.918 372.171 356.57 372.774 356.212C374.56 355.136 376.325 354.031 378.086 352.914C378.658 352.554 379.229 352.193 379.818 351.822C381.409 350.817 382.997 349.809 384.586 348.801C387.534 347.151 390.35 346.159 393.559 345.137C394.5 336.216 395.39 326.777 392.559 318.137C387.864 312.44 380.815 309.852 374.107 307.185C367.12 304.312 359.678 300.268 356.559 293.137C354.239 281.541 366.598 267.038 372.434 257.387C375.682 252.001 378.908 246.624 381.871 241.075C389.744 226.46 389.744 226.46 394.559 222.95C399.584 221.589 403.218 221.486 407.961 223.789C409.148 224.537 410.326 225.3 411.496 226.075C412.805 226.895 414.115 227.714 415.426 228.532C416.1 228.958 416.773 229.384 417.468 229.823C420.983 232.032 424.537 234.166 428.121 236.262C428.775 236.664 429.429 237.066 430.103 237.481C433.015 239.172 435.156 240.133 438.547 240.164C442.482 238.822 445.712 236.833 449.184 234.575C456.025 230.137 456.025 230.137 460.559 230.137C460.532 228.896 460.506 227.655 460.479 226.377C460.389 221.759 460.331 217.141 460.284 212.522C460.259 210.526 460.225 208.53 460.181 206.534C460.121 203.659 460.092 200.786 460.07 197.911C460.045 197.023 460.019 196.135 459.992 195.22C459.99 190.885 460.18 188.032 462.964 184.589C466.954 180.819 469.015 181.011 474.439 181.008Z" fill="#E11D48"/>
<path d="M507.478 281.325C521.233 281.428 531.908 287.386 541.402 296.016L541.572 296.17L541.729 296.338C552.01 307.381 555.542 320.336 555.305 334.514L555.302 334.65L555.293 334.786C554.384 348.503 547.684 360.925 538.048 370.052L537.841 370.248L537.615 370.421C524.058 380.829 509.894 382.969 494.09 381.617L493.673 381.582L493.266 381.483C489.101 380.475 485.625 379.01 482.049 377.033C480.883 376.468 479.717 375.904 478.552 375.344L478.461 375.301L478.372 375.254L475.997 374.004L473.059 372.458V371.284C469.594 369.518 466.936 366.608 464.982 363.974C462.607 360.772 460.719 357.202 459.371 354.621L459.292 354.469L459.223 354.313C458.638 353 458.071 351.677 457.521 350.346C457.128 349.504 457.109 349.464 456.673 348.529L456.617 348.412L456.568 348.291C452.248 337.758 452.546 323.965 456.294 313.623L456.375 313.399L456.476 313.183C462.695 299.768 471.948 289.834 485.984 283.941L486.121 283.883L486.261 283.833C492.637 281.552 498.383 281.423 504.116 281.388C505.405 281.357 505.406 281.357 506.722 281.326L506.771 281.325H507.478Z" fill="#E11D48" stroke="white" stroke-width="11"/>
<path d="M57.3415 592.324C53.6397 594.93 52.8412 603.202 55.8172 607.507C57.4867 609.887 57.9947 610 75.4876 610H93.416L95.1581 607.167C97.6259 603.428 97.6259 597.763 95.0855 594.024C93.2709 591.304 93.1257 591.304 76.4312 591.078C63.4386 590.851 59.0835 591.078 57.3415 592.324Z" fill="#E11D48"/>
<path d="M57.3415 664.324C53.6397 666.93 52.8412 675.202 55.8172 679.507C57.4867 681.887 57.9947 682 75.4876 682H93.416L95.1581 679.167C97.6259 675.428 97.6259 669.763 95.0855 666.024C93.2709 663.304 93.1257 663.304 76.4312 663.078C63.4386 662.851 59.0835 663.078 57.3415 664.324Z" fill="#E11D48"/>
<path d="M113.23 592.676C109.471 595.806 108.881 602.288 112.051 607.429L113.525 610H169.687H225.849L227.397 607.429C229.092 604.635 229.534 599.047 228.281 595.471C226.734 591.112 224.67 591 169.024 591C124.433 591.112 114.851 591.335 113.23 592.676Z" fill="#E11D48"/>
<path d="M113.23 664.676C109.471 667.806 108.881 674.288 112.051 679.429L113.525 682H169.687H225.849L227.397 679.429C229.092 676.635 229.534 671.047 228.281 667.471C226.734 663.112 224.67 663 169.024 663C124.433 663.112 114.851 663.335 113.23 664.676Z" fill="#E11D48"/>
<path d="M58.8016 628.686C54.025 630.486 52.3348 639.715 55.9356 644.893L57.8463 647.594L111.418 647.932C147.941 648.157 166.019 647.819 168.003 647.031C170.281 646.018 171.236 644.893 172.118 641.966C173.294 638.365 173.294 637.69 172.118 634.2C171.236 631.274 170.208 630.036 168.15 629.136C165.357 627.898 61.9615 627.56 58.8016 628.686Z" fill="#E11D48"/>
<path d="M58.8016 700.686C54.025 702.486 52.3348 711.715 55.9356 716.893L57.8463 719.594L111.418 719.932C147.941 720.157 166.019 719.819 168.003 719.031C170.281 718.018 171.236 716.893 172.118 713.966C173.294 710.365 173.294 709.69 172.118 706.2C171.236 703.274 170.208 702.036 168.15 701.136C165.357 699.898 61.9615 699.56 58.8016 700.686Z" fill="#E11D48"/>
<path d="M190.584 629.374C188.328 630.039 186 634.918 186 638.687C186 640.35 186.8 643.233 187.746 644.896L189.492 648H207.318H225.144L227.036 645.339C229.655 641.57 229.655 635.583 227.036 631.813C225.217 629.152 225.071 629.152 208.701 629.042C199.606 628.931 191.457 629.042 190.584 629.374Z" fill="#E11D48"/>
<path d="M190.584 701.374C188.328 702.039 186 706.918 186 710.687C186 712.35 186.8 715.233 187.746 716.896L189.492 720H207.318H225.144L227.036 717.339C229.655 713.57 229.655 707.583 227.036 703.813C225.217 701.152 225.071 701.152 208.701 701.042C199.606 700.931 191.457 701.042 190.584 701.374Z" fill="#E11D48"/>
</svg>
