<svg width="342" height="342" viewBox="0 0 342 342" fill="none" xmlns="http://www.w3.org/2000/svg">
<path d="M132.533 6.66645C128.4 8.26645 122.933 15.4665 121.867 20.6665C120.8 26.6665 124.533 34.3998 130.267 37.9998L134.533 40.6665L134.667 56.9331V73.3331H124.667H114.667V61.8665C114.667 49.7331 113.333 45.3331 109.6 45.3331C105.067 45.3331 104 48.1331 104 60.9331V73.3331H98.3999C85.1999 73.3331 74.6665 83.1998 73.5999 96.7998L73.0665 104H60.7999C48.1332 104 45.3332 105.066 45.3332 109.6C45.3332 113.333 49.7332 114.666 61.8665 114.666H73.3332V124.666V134.666H57.0665L40.6665 134.533L37.9999 130.266C36.5332 127.866 33.0665 124.933 30.2665 123.466C23.5999 120.266 17.1999 121.466 11.0665 127.066C2.93319 134.666 3.73319 147.333 12.7999 154.533C18.1332 158.8 29.1999 158.4 34.5332 154C36.6665 152.133 38.9332 149.333 39.3332 148C40.1332 145.6 41.4665 145.333 56.7999 145.333H73.3332V155.333V165.2L60.5332 165.6C49.9999 165.866 47.3332 166.4 46.1332 168.266C45.0665 170 45.0665 171.333 46.1332 172.933C47.3332 174.933 49.9999 175.466 60.5332 175.733L73.3332 176.133V186V196H56.7999C41.4665 196 40.1332 195.733 39.3332 193.333C38.9332 192 36.6665 189.2 34.5332 187.333C29.1999 182.933 18.1332 182.533 12.7999 186.8C3.73319 194 2.93319 206.666 11.0665 214.266C17.1999 219.866 23.5999 221.066 30.2665 217.866C33.0665 216.4 36.5332 213.466 37.9999 211.066L40.6665 206.8L57.0665 206.666H73.3332V216.666V226.666H61.8665C49.7332 226.666 45.3332 228 45.3332 231.733C45.3332 236.266 48.1332 237.333 60.9332 237.333H73.3332V242.933C73.3332 256.133 83.1999 266.666 96.7999 267.733L104 268.266V280.533C104 293.2 105.067 296 109.6 296C113.333 296 114.667 291.6 114.667 279.466V268H124.667H134.667V284.266L134.533 300.666L130.267 303.333C127.867 304.8 124.933 308.266 123.467 311.066C120.267 317.733 121.467 324.133 127.067 330.266C134.667 338.4 147.333 337.6 154.533 328.533C158.8 323.2 158.4 312.133 154 306.8C152.133 304.666 149.333 302.4 148 302C145.6 301.2 145.333 299.866 145.333 284.533V268H155.333H165.2L165.6 280.8C165.867 291.333 166.4 294 168.4 295.2C170 296.266 171.333 296.266 173.067 295.2C174.933 294 175.467 291.333 175.733 280.8L176.133 268H186H196V284.533C196 299.866 195.733 301.2 193.333 302C192 302.4 189.2 304.666 187.333 306.8C182.933 312.133 182.533 323.2 186.8 328.533C194 337.6 206.667 338.4 214.267 330.266C219.867 324.133 221.067 317.733 217.867 311.066C216.4 308.266 213.467 304.8 211.067 303.333L206.8 300.666L206.667 284.266V268H216.667H226.667V279.466C226.667 291.6 228 296 231.733 296C236.267 296 237.333 293.2 237.333 280.533V268.266L244.533 267.733C258.133 266.666 268 256.133 268 242.933V237.333H280.4C293.2 237.333 296 236.266 296 231.733C296 228 291.6 226.666 279.467 226.666H268V216.666V206.666H284.4L300.667 206.8L303.333 211.066C304.8 213.466 308.267 216.4 311.067 217.866C317.733 221.066 324.133 219.866 330.267 214.266C338.4 206.666 337.6 194 328.533 186.8C323.2 182.533 312.133 182.933 306.8 187.333C304.667 189.2 302.4 192 302 193.333C301.2 195.733 299.867 196 284.533 196H268V186V176.133L280.8 175.733C291.333 175.466 294 174.933 295.2 173.066C296.267 171.333 296.267 170 295.2 168.266C294 166.4 291.333 165.866 280.8 165.6L268 165.2V155.333V145.333H284.533C299.867 145.333 301.2 145.6 302 148C302.4 149.333 304.667 152.133 306.8 154C312.133 158.4 323.2 158.8 328.533 154.533C337.6 147.333 338.4 134.666 330.267 127.066C324.133 121.466 317.733 120.266 311.067 123.466C308.267 124.933 304.8 127.866 303.333 130.266L300.667 134.533L284.4 134.666H268V124.666V114.666H279.467C291.6 114.666 296 113.333 296 109.6C296 105.066 293.2 104 280.533 104H268.267L267.733 96.7998C266.667 83.1998 256.133 73.3331 242.933 73.3331H237.333V60.9331C237.333 48.1331 236.267 45.3331 231.733 45.3331C228 45.3331 226.667 49.7331 226.667 61.8665V73.3331H216.667H206.667V56.9331L206.8 40.6665L211.067 37.9998C213.467 36.5331 216.4 33.0665 217.867 30.2665C221.067 23.5998 219.867 17.1998 214.267 11.0665C206.667 2.93312 194 3.73312 186.8 12.7998C182.533 18.1331 182.933 29.1998 187.333 34.5331C189.2 36.6665 192 38.9331 193.333 39.3331C195.733 40.1331 196 41.4665 196 56.7998V73.3331H186H176.133L175.733 60.5331C175.467 49.9998 174.933 47.3331 173.067 46.1331C171.333 45.0665 170 45.0665 168.4 46.1331C166.4 47.3331 165.867 49.9998 165.6 60.5331L165.2 73.3331H155.333H145.333V56.7998C145.333 41.4665 145.6 40.1331 148 39.3331C149.333 38.9331 152.133 36.6665 154 34.5331C158.4 29.1998 158.8 18.1331 154.533 12.7998C149.333 6.26645 140 3.59979 132.533 6.66645ZM146.267 19.4665C148.267 22.6665 148.267 23.3331 146.533 26.5331C142.933 32.9331 132 30.7998 132 23.5998C132 16.1331 142.133 13.3331 146.267 19.4665ZM206.933 18.2665C212.133 22.9331 207.867 31.3331 200.533 30.3998C198.133 30.1331 196 28.6665 194.8 26.5331C193.067 23.3331 193.067 22.6665 195.067 19.4665C197.733 15.4665 203.2 14.7998 206.933 18.2665ZM250.8 85.7331C258.133 90.6665 258 88.7998 258 170.666C258 252.533 258.133 250.666 250.8 255.6C247.6 257.866 241.6 258 171.2 258C88.7999 258 90.6665 258.133 85.7332 250.8C83.4665 247.6 83.3332 241.6 83.0665 176C82.9332 136.8 83.1999 101.866 83.4665 98.2665C84.3999 90.9331 89.7332 84.3998 95.7332 83.7331C97.7332 83.4665 132.667 83.3331 173.333 83.3331C241.6 83.3331 247.6 83.4665 250.8 85.7331ZM28.5332 134.533C31.8665 138.133 30.7999 144.133 26.5332 146.533C23.3332 148.266 22.6665 148.266 19.4665 146.266C17.1999 144.666 15.9999 142.8 15.9999 140.4C15.9999 133.066 23.8665 129.333 28.5332 134.533ZM323.2 134.533C326.533 138.133 325.467 144.133 321.2 146.533C318 148.266 317.333 148.266 314.133 146.266C311.867 144.666 310.667 142.8 310.667 140.4C310.667 133.066 318.533 129.333 323.2 134.533ZM27.7332 195.466C33.1999 199.2 30.1332 209.333 23.5999 209.333C16.5332 209.333 13.3332 199.333 18.9332 195.466C20.5332 194.266 22.5332 193.333 23.3332 193.333C24.1332 193.333 26.1332 194.266 27.7332 195.466ZM322.4 195.466C327.867 199.2 324.8 209.333 318.267 209.333C311.2 209.333 308 199.333 313.6 195.466C315.2 194.266 317.2 193.333 318 193.333C318.8 193.333 320.8 194.266 322.4 195.466ZM146.267 314.133C148.267 317.333 148.267 318 146.533 321.2C142.933 327.6 132 325.466 132 318.266C132 310.8 142.133 308 146.267 314.133ZM206.933 312.933C212.133 317.6 207.867 326 200.533 325.066C198.133 324.8 196 323.333 194.8 321.2C193.067 318 193.067 317.333 195.067 314.133C197.733 310.133 203.2 309.466 206.933 312.933Z" fill="#E11D48"/>
<path d="M95.4663 95.4664C92.933 97.8664 92.933 98.133 94.6663 101.466C96.533 104.666 102.133 104.8 103.866 101.6C104.8 99.733 104.666 98.2664 103.2 96.2664C100.8 92.7997 98.2663 92.533 95.4663 95.4664Z" fill="#E11D48"/>
<path d="M118.133 95.3329C115.6 97.9996 115.467 98.7996 117.733 101.733C119.2 103.866 121.733 104 140.533 103.733C159.067 103.333 161.867 103.066 163.2 100.933C164.267 99.3329 164.267 97.9996 163.2 96.2663C161.867 94.2663 159.067 93.9996 140.933 93.5996C123.467 93.3329 119.867 93.5996 118.133 95.3329Z" fill="#E11D48"/>
<path d="M178.933 94.9333C178 95.8667 177.333 97.4667 177.333 98.6667C177.333 103.333 180.133 104 201.6 104C220.933 104 222.666 103.867 224 101.467C225.733 98.1333 225.733 97.8667 223.2 95.4667C221.466 93.7333 217.466 93.3333 200.8 93.3333C186.8 93.3333 180 93.8667 178.933 94.9333Z" fill="#E11D48"/>
<path d="M238.667 95.3333C235.2 99.5999 240.4 106.133 245.067 103.2C248.267 101.067 248.667 97.1999 245.867 95.0666C242.8 92.7999 240.667 92.9333 238.667 95.3333Z" fill="#E11D48"/>
<path d="M180.266 122.4C178.533 124 174.133 137.733 165.466 169.467C158.8 194.133 153.333 215.2 153.333 216.4C153.333 217.6 154.533 219.2 155.866 220C161.333 222.8 163.066 218.667 175.866 171.867C182.533 147.2 188 126.133 188 124.933C188 121.2 183.333 119.733 180.266 122.4Z" fill="#E11D48"/>
<path d="M126 152C113.6 164.4 112.667 165.733 112.667 170.666C112.667 175.6 113.6 176.933 126 189.333C139.867 203.2 143.867 205.333 146.667 199.866C148 197.466 146.8 195.733 135.2 183.866L122.134 170.666L134.534 158.133C144.267 148.266 146.8 145.066 146.4 142.533C146.134 140.266 145.067 139.2 142.667 138.933C140 138.666 136.667 141.2 126 152Z" fill="#E11D48"/>
<path d="M195.6 139.6C192.8 142.266 195.6 146.933 206.933 158.266L219.2 170.666L206.133 183.866C194.533 195.733 193.333 197.466 194.666 199.866C197.466 205.333 201.466 203.2 215.333 189.333C227.733 176.933 228.666 175.6 228.666 170.666C228.666 165.733 227.733 164.4 215.333 152C202.933 139.6 198.4 136.666 195.6 139.6Z" fill="#E11D48"/>
<path d="M94.9332 238.933C92.2665 241.6 93.0665 245.333 96.6665 246.933C100.666 248.8 104 246.533 104 242C104 237.6 98.1332 235.733 94.9332 238.933Z" fill="#E11D48"/>
<path d="M117.333 240.133C116.133 242.4 116.267 243.333 118.133 245.466C120.267 247.866 122.133 248 141.067 247.733C159.067 247.333 161.867 247.066 163.2 244.933C164.267 243.333 164.267 242 163.2 240.266C161.867 238.266 158.933 238 140.267 237.6C119.6 237.333 118.8 237.333 117.333 240.133Z" fill="#E11D48"/>
<path d="M178.933 238.933C178 239.867 177.333 241.467 177.333 242.667C177.333 247.333 180.133 248 200.8 248C217.466 248 221.466 247.6 223.2 245.867C225.733 243.467 225.733 243.2 224 239.867C222.666 237.467 220.933 237.333 201.6 237.333C186.933 237.333 180 237.867 178.933 238.933Z" fill="#E11D48"/>
<path d="M238.933 238.933C234.667 243.2 239.2 249.467 244.667 246.933C249.867 244.533 248.267 237.333 242.667 237.333C241.467 237.333 239.867 238 238.933 238.933Z" fill="#E11D48"/>
</svg>
