<svg width="801" height="801" viewBox="0 0 801 801" fill="none" xmlns="http://www.w3.org/2000/svg">
<g clip-path="url(#clip0_1674_64)">
<path d="M533.833 433.833L765.967 569.233L666.866 597.567L737.7 720.266L679.967 753.6L609.133 630.933L535.033 702.6L533.833 433.833ZM467.166 200.5H533.833V267.166H700.5C709.34 267.166 717.819 270.678 724.07 276.93C730.321 283.181 733.833 291.659 733.833 300.5V433.833H667.166V333.833H333.833V667.166H467.166V733.833H300.5C291.659 733.833 283.181 730.321 276.93 724.07C270.678 717.819 267.166 709.34 267.166 700.5V533.833H200.5V467.166H267.166V300.5C267.166 291.659 270.678 283.181 276.93 276.93C283.181 270.678 291.659 267.166 300.5 267.166H467.166V200.5ZM133.833 467.166V533.833H67.1665V467.166H133.833ZM133.833 333.833V400.5H67.1665V333.833H133.833ZM133.833 200.5V267.166H67.1665V200.5H133.833ZM133.833 67.1665V133.833H67.1665V67.1665H133.833ZM267.166 67.1665V133.833H200.5V67.1665H267.166ZM400.5 67.1665V133.833H333.833V67.1665H400.5ZM533.833 67.1665V133.833H467.166V67.1665H533.833Z" fill="#E11D48"/>
</g>
<defs>
<clipPath id="clip0_1674_64">
<rect width="800" height="800" fill="white" transform="translate(0.5 0.5)"/>
</clipPath>
</defs>
</svg>
