<svg width="225" height="225" viewBox="0 0 225 225" fill="none" xmlns="http://www.w3.org/2000/svg">
<g clip-path="url(#clip0_1702_4)">
<path fill-rule="evenodd" clip-rule="evenodd" d="M1 18H0L0 26L1 28C2.5909 31.3727 3.95317 34.0281 6.69141 36.5703C11.2981 39.8276 15.1382 40.6147 20.7422 40.2891C26.4054 39.564 29.292 37.3092 33 33L35 28L66 29C46.236 38.882 30.8375 60.1389 22.9299 80.3401L22 82.8125C19.7975 88.5973 18.5941 93.9535 18.1133 100.135L18 102L15.6641 101.93L12.625 101.875C11.0021 101.837 10.2503 101.82 9.49971 101.842C8.85197 101.861 8.20509 101.91 7 102C6.4157 102.584 5.9812 103.019 5.65737 103.524C4.71808 104.99 4.70985 107.053 4.67773 115.098C4.68438 117.304 4.68741 119.508 4.66382 121.714C4.64728 123.153 4.63755 124.592 4.63521 126.032L4.63672 128.094C4.63168 130.249 4.62945 131.203 4.69302 132.152C4.74345 132.905 4.8353 133.655 5 135C6.04257 135.695 6.76742 136.178 7.55451 136.517C9.35026 137.289 11.47 137.308 18.4258 137.371C20.4674 137.371 22.507 137.375 24.5483 137.412L26.5742 137.449L30.4688 137.461C32.414 137.474 33.3011 137.481 34.1813 137.405C34.9192 137.342 35.6523 137.222 37 137C39.5672 134.781 39.95 133.384 40.3882 130.023L40.3984 126.59L40.4102 122.842L40.375 118.938L40.4102 115.021L40.3984 111.277C40.3974 110.941 40.3989 110.617 40.4003 110.304C40.4131 107.497 40.4219 105.566 38.6028 103.126C36.5411 101.678 35.3063 101.69 32.8125 101.812L29 102C30.7914 94.5514 32.8395 87.0527 35.8564 79.9971C47.9118 54.2277 67.8457 39.0876 94 29L93.9648 31.8086L93.9375 35.4375C93.9163 37.625 93.9274 39.8136 94 42C94.2661 42.2661 94.4687 42.4687 94.7029 42.6237C95.451 43.1188 96.5209 43.1276 101.008 43.1646L103.559 43.168C105.324 43.1748 107.089 43.1806 108.854 43.1855C111.65 43.1853 114.445 43.1876 117.241 43.2058C119.061 43.2182 120.881 43.2261 122.701 43.2291L125.309 43.2305C128.238 43.2555 131.071 43.1877 134 43C135.036 41.964 135.535 41.4646 135.803 40.8623C136.052 40.3019 136.101 39.6524 136.195 38.3984L136.125 35.375L136.07 32.3359L136 30C142.374 31.5582 148.174 33.9841 154 37C179.824 51.715 192.47 74.3719 201 102L199.137 101.895L196.688 101.812C193.995 101.695 192.526 101.666 190.234 103.119C189.819 103.751 189.51 104.223 189.279 104.729C188.601 106.213 188.589 108 188.541 115.021L188.562 118.938L188.502 122.842L188.504 126.59C188.498 130.326 188.502 132.278 190.633 135.367C191.791 136.166 192.383 136.574 193.032 136.843C193.709 137.124 194.449 137.253 195.961 137.518L199.375 137.531L203.109 137.547L207 137.5L210.891 137.547L214.625 137.531C216.44 137.524 217.29 137.521 218.133 137.441C218.876 137.371 219.613 137.242 221 137C223.633 134.939 224.363 133.823 225 130.5V127.5V124V120.5C225 119.177 225.004 117.855 225.007 116.534C225.015 113.69 225.022 110.85 225 108C224.996 107.494 224.998 106.965 225 106.456C225.003 105.935 225.005 105.435 225 105L222 103L212 102C211.194 91.3449 196.578 59.5119 194.5 59.5C184.347 45.5029 177.424 38.7755 162 28H190L194.5 35.5C200.205 38.987 203.303 40.1226 208.5 39.5C217.741 37.4478 221.076 34.4345 223.971 26H225.098L225.072 19C224.678 18.3117 224.336 17.5509 223.971 16.7393C222.923 14.4065 221.685 11.6544 218.5 9C214.206 5.42205 210.5 4.5 206 4.5C201.5 4.5 196.5 7 194.5 8.5C193.313 9.17028 190 16 190 16H136.195L135 2H95L94 16H35C35 16 31.5 10 31 9C26.2247 5.34533 22.8909 4.42762 16 4.5C11.4632 5.32701 9.0054 6.30218 5 10C4.92323 9.79201 1.89959 15.3848 1 18Z" fill="#E11D48"/>
<path d="M103 71C105.97 71 108.94 71 112 71C112.116 81.2138 112.205 91.4275 112.259 101.642C112.285 106.385 112.32 111.128 112.377 115.87C112.431 120.448 112.461 125.025 112.474 129.603C112.483 131.349 112.501 133.095 112.528 134.841C112.565 137.288 112.57 139.733 112.567 142.18C112.585 142.901 112.603 143.622 112.622 144.364C112.581 148.341 112.166 149.813 109.481 152.835C108.253 153.907 108.253 153.907 107 155C106.608 157.45 106.608 157.45 107.187 159.812C107.325 160.603 107.463 161.393 107.605 162.207C107.735 162.799 107.866 163.39 108 164C111.592 165.198 114.227 165.331 118 165C120.563 163.52 120.563 163.52 122 161C122.75 158.043 122.75 158.043 122 155C121.175 154.271 120.35 153.542 119.5 152.792C116.365 149.291 116.319 146.746 116.432 142.272C116.431 141.511 116.431 140.749 116.43 139.965C116.433 137.459 116.472 134.955 116.512 132.449C116.521 130.708 116.528 128.966 116.533 127.224C116.552 122.649 116.601 118.074 116.656 113.499C116.708 108.827 116.73 104.155 116.756 99.4824C116.809 90.3213 116.895 81.1607 117 72C120.3 72 123.6 72 127 72C127.306 72.9649 127.612 73.9297 127.927 74.9238C134.176 94.5448 140.79 113.534 150 132C151.095 134.23 152.19 136.461 153.285 138.691C158.212 149.088 158.212 149.088 164 159C163.662 164.339 161.582 169.149 159.656 174.082C159.327 174.937 158.998 175.792 158.659 176.672C157.965 178.469 157.269 180.265 156.571 182.06C155.498 184.818 154.434 187.58 153.371 190.342C152.696 192.089 152.02 193.835 151.344 195.582C151.024 196.411 150.704 197.24 150.374 198.094C148.116 203.884 148.116 203.884 147 205C144.975 205.094 142.947 205.117 140.919 205.114C138.968 205.113 138.968 205.113 136.976 205.113C135.545 205.108 134.114 205.103 132.683 205.098C131.228 205.096 129.772 205.094 128.316 205.093C124.477 205.09 120.638 205.08 116.8 205.069C112.885 205.058 108.971 205.054 105.056 205.049C97.3709 205.038 89.6853 205.021 81.9998 205C81.6862 204.196 81.3726 203.391 81.0495 202.563C79.8701 199.54 78.6887 196.518 77.5061 193.497C76.9975 192.197 76.4895 190.896 75.9824 189.595C72.8273 181.502 69.5899 173.498 65.8279 165.664C64.1964 160.416 66.0208 156.743 68.4061 152.051C69.4305 150.134 70.4622 148.222 71.4998 146.312C72.6039 144.234 73.7054 142.155 74.8045 140.074C75.3494 139.043 75.8944 138.013 76.4559 136.951C87.472 115.897 96.3164 93.7942 103 71Z" fill="#E11D48"/>
<path d="M83 212C103.46 212 123.92 212 145 212C145 215.96 145 219.92 145 224C124.54 224 104.08 224 83 224C83 220.04 83 216.08 83 212Z" fill="#E11D48"/>
</g>
<defs>
<clipPath id="clip0_1702_4">
<rect width="225" height="225" fill="white"/>
</clipPath>
</defs>
</svg>
