<svg width="661" height="661" viewBox="0 0 661 661" fill="none" xmlns="http://www.w3.org/2000/svg">
<path d="M27.0278 182.435L27.9092 194.48L55.818 205.644C89.8963 218.864 105.76 226.502 105.76 229.734C105.76 230.909 107.817 230.909 110.754 230.027C114.28 228.559 114.867 229.146 113.105 232.084C111.342 235.022 111.93 235.609 115.161 234.434C117.511 233.259 121.33 235.022 123.387 237.959C125.443 240.897 128.969 242.66 131.319 241.779C136.607 239.722 136.313 241.779 127.5 259.405C121.037 271.744 120.449 274.975 123.681 277.032C126.031 278.207 134.844 283.495 143.658 288.195C158.64 296.715 159.228 297.596 157.759 306.997C156.29 316.398 156.29 316.692 176.267 324.33C187.137 328.737 198.3 334.612 201.238 337.55C205.938 342.838 205.351 343.72 193.012 352.239C185.374 357.233 179.205 364.284 178.03 368.691C173.917 384.848 191.543 402.475 211.52 402.475C224.74 402.475 239.135 387.786 237.079 376.623C233.554 358.996 233.554 357.233 238.254 356.058C243.248 355.177 265.282 369.278 290.84 390.136C299.654 397.481 312.58 406 319.631 408.938C331.675 414.52 332.851 414.52 338.139 409.526C344.308 403.944 345.483 393.662 340.489 388.668C333.438 381.617 352.534 365.459 363.403 369.278C373.098 372.51 381.911 382.792 381.911 390.724C381.911 396.893 378.974 400.712 370.16 406.588C349.596 420.102 356.94 433.028 391.312 444.192C409.82 450.067 411.289 450.361 416.577 445.66C423.922 438.904 426.272 439.197 446.249 449.48L463.582 457.999L472.689 442.135C481.208 427.152 487.671 421.571 487.671 429.209C487.671 430.678 489.14 431.265 490.609 430.384C492.372 429.503 493.547 430.678 493.547 433.028C493.547 435.966 495.31 436.847 497.954 435.966C500.304 434.791 502.36 435.672 502.36 437.728C502.36 439.491 503.829 440.079 505.298 439.197C507.061 438.316 508.236 438.904 508.236 440.372C508.236 442.135 510.292 443.604 512.349 443.604C514.699 443.604 526.744 448.304 539.083 453.886C559.941 463.287 629.566 490.608 633.091 490.608C633.973 490.608 634.56 485.614 634.56 479.445V467.988L604.595 456.824C567.285 443.016 527.331 424.802 524.687 420.396C523.512 418.633 521.162 417.752 519.693 418.633C518.224 419.808 517.049 419.22 517.049 417.752C517.049 415.989 513.818 413.932 509.705 413.051C505.592 411.876 502.36 409.82 502.36 408.351C502.36 406.882 500.304 406.294 497.954 407.176C492.078 409.526 492.372 407.469 500.891 390.724C505.004 382.792 508.236 374.86 508.236 373.391C508.236 371.922 500.304 366.34 490.609 361.052C480.915 356.058 472.983 350.476 472.983 349.008C472.983 347.832 476.214 338.432 480.327 328.443C484.44 318.455 487.671 308.76 487.671 306.997C487.671 305.235 481.208 302.003 473.57 299.947C456.531 295.834 440.667 286.433 440.667 280.851C440.667 278.795 444.78 275.269 449.48 273.213C467.107 265.868 471.807 250.004 461.231 232.965C453.299 220.039 437.142 215.045 422.159 221.508C407.764 227.383 403.063 237.666 408.058 251.767C410.995 259.993 411.289 262.637 408.351 264.399C402.182 268.219 395.131 264.693 367.223 243.247C323.743 210.344 313.755 205.938 305.529 215.926C302.591 219.451 302.591 222.095 305.529 228.852C308.467 235.903 308.173 238.547 304.06 245.01C291.722 263.812 258.525 254.117 258.525 231.496C258.525 225.033 261.169 221.802 270.276 215.926C284.377 207.113 287.315 201.531 281.733 194.774C277.326 189.486 243.542 173.328 236.785 173.328C234.729 173.328 227.09 181.848 220.334 192.424L207.995 211.226L188.018 201.237C165.691 190.074 166.572 189.78 152.765 212.695C148.946 219.158 145.126 222.683 144.539 220.92C143.951 218.864 141.601 217.395 139.251 217.395C136.901 217.395 135.138 215.926 135.138 214.163C135.138 212.695 133.963 212.107 132.2 212.988C130.438 213.87 129.262 213.282 129.262 211.519C129.262 209.463 127.206 208.582 124.856 209.757C122.506 210.638 120.449 210.051 120.449 208.582C120.449 206.819 118.686 205.644 116.63 205.644C114.28 205.644 102.235 201.237 89.3087 195.655C76.6763 190.074 56.9932 182.142 46.1234 178.029L26.1465 170.391L27.0278 182.435ZM264.106 190.661C270.57 194.187 276.445 198.006 277.326 199.475C278.502 200.943 273.801 205.938 267.044 210.638C252.649 220.333 249.711 226.796 253.237 240.31C257.643 257.055 283.79 267.043 299.947 258.524C308.761 253.53 315.224 238.547 312.874 227.383C311.405 218.864 311.992 217.395 316.693 217.395C321.393 217.395 341.076 229.44 350.477 237.959C351.946 239.135 344.895 254.999 334.907 272.919C318.162 302.591 316.693 306.41 319.924 313.167C322.275 318.748 324.625 320.217 328.444 318.748C339.314 314.048 344.014 313.754 347.833 316.986C363.403 329.912 346.071 366.047 326.975 360.171C323.743 359.29 319.043 353.708 316.399 348.126C310.23 334.906 301.416 334.612 293.778 347.245C290.546 352.533 287.315 360.465 286.434 364.872C285.258 369.278 284.083 373.097 283.202 373.097C282.614 373.097 273.507 367.222 262.638 359.877C252.062 352.533 242.367 346.657 240.898 346.657C239.723 346.657 235.61 349.301 231.791 352.239C225.328 357.527 225.034 358.408 228.559 368.397C235.61 387.492 220.921 400.419 201.238 392.487C181.261 383.967 180.674 367.809 199.769 354.883C215.633 344.013 215.046 336.963 198.006 326.093C190.662 321.392 180.674 316.692 175.679 315.811C170.979 314.636 166.572 312.285 165.691 310.229C163.928 305.235 175.092 279.088 179.205 279.088C180.967 279.088 184.493 283.495 187.137 289.077C199.475 315.223 232.085 297.303 232.085 264.693C232.085 255.292 230.322 249.711 225.622 244.716C218.277 236.784 212.402 236.197 205.057 242.954C200.063 247.36 199.769 247.36 199.769 242.072C199.769 238.841 208.289 223.564 218.865 207.994C240.017 176.266 237.373 177.147 264.106 190.661ZM494.722 371.041C500.01 374.86 499.423 376.623 480.327 412.464C461.231 448.598 460.35 449.773 454.181 445.66C450.949 443.31 443.605 439.197 438.317 436.553C428.916 431.853 428.916 431.559 433.323 422.746C435.967 417.752 437.142 411.288 436.26 408.057C434.498 402.769 432.735 402.181 420.103 403.944C407.176 405.707 405.414 405.119 401.007 398.656C396.894 392.193 396.894 390.136 400.419 381.323C405.414 368.984 418.927 357.821 426.859 358.996C432.147 359.877 434.498 362.521 440.667 376.035C444.192 383.38 450.362 381.029 459.763 368.397L468.576 356.352L478.858 361.64C484.44 364.284 491.784 368.691 494.722 371.041Z" fill="#E11D48"/>
</svg>
