<svg width="683" height="683" viewBox="0 0 683 683" fill="none" xmlns="http://www.w3.org/2000/svg">
<path d="M119.067 22.4C109.334 25.8666 100.934 33.2 96.4003 42.4L92.667 50L92.267 280.8C92.0003 505.067 92.0003 511.733 94.5337 514.8C98.0003 519.067 106 519.067 109.467 514.8C111.867 511.867 112 505.2 112 313.867V116H276.667H441.334V142C441.334 169.6 442 173.333 447.6 175.867C452.134 178 453.867 177.733 457.867 174.533L461.334 171.867V112.133C461.334 45.0666 461.334 44.9333 451.734 34C448.8 30.6666 443.2 26.2666 439.467 24.2666L432.667 20.6666L279.334 20.4C134.667 20.1333 125.6 20.1333 119.067 22.4ZM430.8 42.6666C440.267 47.6 441.334 50.9333 441.334 74.9333V96H276.667H112V75.8666C112 52.2666 113.6 47.4666 123.2 42.6666C128.534 40 130.934 40 277.067 40C423.734 40 425.467 40 430.8 42.6666Z" fill="#E11D48"/>
<path d="M271.733 59.3331C266.8 61.9998 265.467 68.5331 269.067 73.1998L271.6 76.6664L301.733 77.0664C330.533 77.3331 332.133 77.1998 334.667 74.6664C338.667 70.6664 338.267 63.5998 333.867 60.1331C330.533 57.4664 328.667 57.3331 302.8 57.3331C281.467 57.4664 274.533 57.8664 271.733 59.3331Z" fill="#E11D48"/>
<path d="M295.6 142.4C293.066 145.2 233.333 294.8 233.333 298.4C233.333 305.2 242.666 310 248.533 306.133C250.933 304.667 258.666 286.4 281.866 228.267C298.4 186.533 312 150.8 312 148.933C312 141.333 300.666 136.8 295.6 142.4Z" fill="#E11D48"/>
<path d="M204.667 172C203.2 172.533 191.6 183.467 179.067 196.267C159.733 215.733 156 220.133 156 223.467C156 226.667 159.867 231.333 179.733 251.733C205.2 278 206.667 278.933 213.867 273.2C216.4 271.2 217.333 269.333 217.333 265.6C217.333 261.2 215.733 259.2 198.667 242.133L180.133 223.333L198.667 204.533C215.6 187.6 217.333 185.333 217.333 181.067C217.333 174.133 210.8 169.467 204.667 172Z" fill="#E11D48"/>
<path d="M341.733 172C338.133 173.467 336 177.333 336 182.133C336 185.067 339.867 189.6 354.667 204.667L373.467 223.467L354.667 242.933C334.4 264.133 333.067 266.533 339.333 272.667C345.867 279.333 347.733 278.133 373.6 252.267C394.8 231.067 397.333 228.133 397.333 224.133C397.333 220.267 394.8 217.067 375.733 197.067C356.4 176.8 349.2 170.533 345.733 170.8C345.2 170.8 343.333 171.333 341.733 172Z" fill="#E11D48"/>
<path fill-rule="evenodd" clip-rule="evenodd" d="M441.333 524V535.333V546.667H269.6H97.7333L94.9333 549.733C92 552.8 92 553.6 92 591.067C92 626 92.2667 629.867 94.6667 636.4C98.2667 646.133 105.2 653.733 114.4 658.267L122 662H276.667H431.333L438.4 658.8C442.533 656.933 447.733 653.067 451.2 649.2C461.2 638 461.333 637.333 461.333 577.067V524H441.333ZM438.4 633.333C441.2 629.067 441.333 627.867 441.333 597.867V566.667H276.667H112V596.8C112 625.333 112.133 627.2 114.933 632.133C116.8 635.467 119.867 638.267 123.333 640C128.8 642.667 131.6 642.667 277.467 642.667C419.467 642.667 426.267 642.533 430.667 640.133C433.2 638.8 436.667 635.733 438.4 633.333Z" fill="#E11D48"/>
<path d="M224.267 601.733C218.934 607.467 221.734 616 229.6 618C231.334 618.4 253.867 618.667 279.734 618.4L326.934 618L329.467 614.8C332.8 610.8 332.667 604.667 329.334 601.333C326.8 598.8 324.934 598.667 276.934 598.667H227.067L224.267 601.733Z" fill="#E11D48"/>
<path d="M491.066 250.359C474.266 255.693 461.466 265.959 453.6 280.626C449.2 288.759 445.866 300.893 445.866 308.893V314.893L453.6 313.959C480.533 310.893 503.2 283.826 503.2 254.893C503.2 246.759 502.8 246.626 491.066 250.359Z" fill="#E11D48"/>
<path d="M491.867 312.493C488.133 313.426 480.4 316.226 474.533 318.626C466 322.093 461.867 322.893 453.867 323.026C445.067 323.159 442.667 322.626 433.867 318.493C424.533 314.093 422.8 313.826 408.133 313.426C395.2 313.026 390.8 313.426 383.467 315.693C360.8 322.493 344.267 339.959 335.6 365.826C332.533 375.026 332.133 378.759 332 393.826C332 405.693 332.667 414.759 334.267 422.493C343.6 466.626 368.667 509.159 392 520.626C398.533 523.826 400.4 524.093 408.933 523.426C415.733 522.893 422.4 521.293 431.2 517.693C442.267 513.293 445.333 512.759 455.2 512.626C465.467 512.626 467.733 513.159 479.2 517.826C489.6 522.226 493.467 523.159 500.533 523.159C516.933 523.159 534.933 511.026 551.467 488.626C559.867 477.426 567.867 461.959 569.2 454.359C570 450.226 569.733 449.559 566.533 448.093C559.867 445.026 547.467 434.626 542.667 427.959C522.8 400.893 527.6 367.959 554.667 345.826L561.867 339.959L551.333 330.893C539.2 320.359 529.333 315.159 516.8 312.359C505.867 310.093 500.533 310.093 491.867 312.493Z" fill="#E11D48"/>
</svg>
