<svg width="408" height="220" viewBox="0 0 408 220" fill="none" xmlns="http://www.w3.org/2000/svg">
<path d="M17.6654 2.69388C15.566 4.71429 14.8662 31.6531 14.8662 110.449C14.8662 211.918 15.0995 215.51 19.2983 217.755C22.0975 219.102 47.2903 220 84.6131 220C142.463 220 145.729 219.776 150.161 215.51C154.593 211.245 154.826 208.102 154.826 109.102C154.826 19.3061 154.36 6.7347 151.094 3.59184C148.062 0.448982 138.498 2.68221e-06 83.9133 2.68221e-06C37.7264 2.68221e-06 19.7648 0.673472 17.6654 2.69388ZM147.362 12.7959L148.062 20.2041H83.9133H19.5316V15.0408C19.5316 4.71429 21.3977 4.4898 86.0127 4.93878L146.662 5.61225L147.362 12.7959ZM147.828 110V193.061H83.68H19.5316V110V26.9388H83.68H147.828V110ZM147.362 204.735L146.662 212.143H83.68H20.6979L19.9981 204.735L19.2983 197.551H83.68H148.062L147.362 204.735Z" fill="#E11D48"/>
<path d="M65.4853 10.3271C61.5197 14.1434 68.0512 15.7148 87.4124 15.7148C103.275 15.7148 108.406 15.0414 107.707 12.7965C106.54 9.87811 68.5177 7.63321 65.4853 10.3271Z" fill="#E11D48"/>
<path d="M86.2471 47.5925C82.5148 70.0415 80.4154 102.144 82.2816 103.939C83.6812 105.286 85.0808 104.164 85.7806 100.797C87.1802 94.7354 91.8455 51.4088 91.8455 44.8986C91.8455 37.4905 87.4134 39.7354 86.2471 47.5925Z" fill="#E11D48"/>
<path d="M59.1866 61.735L48.9229 71.837L59.6531 82.1636C66.1846 88.6738 71.3165 92.0411 73.1826 90.9187C75.0488 89.7962 73.1826 86.6534 67.1177 80.5921L58.2535 71.837L66.8844 63.3064C74.5822 55.8983 75.9818 51.633 70.85 51.633C70.1502 51.633 64.785 56.1228 59.1866 61.735Z" fill="#E11D48"/>
<path d="M98.8425 54.5507C98.8425 56.1222 102.342 60.8364 106.774 64.8773L114.938 72.5099L106.774 79.6936C99.3091 86.4283 96.5099 92.0405 100.709 92.0405C101.642 92.0405 107.24 87.5507 112.839 81.9385L123.102 71.8364L112.839 61.7344C102.108 51.1834 98.8425 49.612 98.8425 54.5507Z" fill="#E11D48"/>
<path d="M42.1602 122.571C41.2271 123.469 40.5273 128.183 40.5273 132.898V141.428L82.0489 140.979L123.337 140.306V131.326V122.347L83.4485 121.673C61.7546 121.449 43.0933 121.898 42.1602 122.571ZM117.505 131.326C117.505 134.245 111.907 134.694 81.3491 134.694C50.7911 134.694 45.1927 134.245 45.1927 131.326C45.1927 128.408 50.7911 127.959 81.3491 127.959C111.907 127.959 117.505 128.408 117.505 131.326Z" fill="#E11D48"/>
<path d="M40.5273 166.123V175.103L82.0489 174.654L123.337 173.98V166.123V158.266L82.0489 157.592L40.5273 157.143V166.123ZM117.505 166.123C117.505 170.388 115.873 170.613 82.7487 170.613C49.3915 170.613 42.86 169.49 46.359 163.878C47.2921 162.531 61.9879 161.633 82.7487 161.633C115.873 161.633 117.505 161.858 117.505 166.123Z" fill="#E11D48"/>
<path d="M73.1836 206.53C73.1836 207.653 79.0153 208.775 86.0133 208.775C93.0113 208.775 98.843 207.653 98.843 206.53C98.843 205.184 93.0113 204.286 86.0133 204.286C79.0153 204.286 73.1836 205.184 73.1836 206.53Z" fill="#E11D48"/>
<path d="M256.939 2.69388C254.839 4.71429 254.14 31.4286 254.14 108.878C254.14 206.531 254.373 212.816 258.338 216.184C262.071 219.551 270.235 220 324.586 220C381.503 220 386.635 219.776 390.134 215.959C393.633 212.143 394.1 201.592 394.1 110.224C394.1 44.449 393.167 7.18368 391.767 4.26531C389.435 0.224492 386.169 2.68221e-06 324.586 2.68221e-06C277.233 2.68221e-06 259.038 0.673472 256.939 2.69388ZM347.446 12.3469C347.446 15.0408 343.481 15.7143 326.686 15.7143C307.325 15.7143 300.793 14.1429 304.759 10.3265C305.458 9.65306 315.489 8.97959 326.919 8.97959C343.714 8.97959 347.446 9.65306 347.446 12.3469ZM387.102 110V193.061L323.653 192.612L259.971 191.939L259.272 109.327L258.805 26.9388H322.953H387.102V110ZM340.448 206.531C340.448 207.878 334.15 208.776 326.452 208.776C318.755 208.776 312.456 207.878 312.456 206.531C312.456 205.184 318.755 204.286 326.452 204.286C334.15 204.286 340.448 205.184 340.448 206.531Z" fill="#E11D48"/>
<path d="M327.618 40.8572C324.819 48.4898 319.687 102.143 321.787 104.163C324.819 107.082 325.752 103.714 328.785 74.0817C330.184 59.9388 331.817 46.4694 332.284 44.449C333.217 39.7347 329.251 36.5919 327.618 40.8572Z" fill="#E11D48"/>
<path d="M234.777 107.337C226.893 105.351 172.998 105.856 171.208 108.155C168.622 111.476 172.069 112.052 201.856 111.97C216.068 111.884 229.634 112.1 231.692 112.352C236.478 112.788 239.189 108.515 234.777 107.337Z" fill="#E11D48"/>
<path d="M301.025 59.9385C295.66 64.4283 291.461 69.816 291.461 71.8364C291.461 75.8773 307.79 92.0405 311.988 92.0405C316.654 92.0405 315.254 89.3466 306.157 80.3671L297.526 71.8364L306.39 63.0813C317.82 51.8569 313.388 49.163 301.025 59.9385Z" fill="#E11D48"/>
<path d="M338.116 53.204C338.116 54.102 342.082 58.5918 346.747 63.306L355.378 71.8367L346.281 80.8162C341.382 85.755 338.116 90.4693 339.049 91.3673C339.749 92.2652 345.581 88.2244 351.646 82.3877L362.376 71.8367L352.112 61.7346C342.315 52.306 338.116 49.6122 338.116 53.204Z" fill="#E11D48"/>
<path d="M224.59 92.0282C224.59 92.9262 228.555 97.416 233.221 102.13L241.852 110.661L232.754 119.64C227.856 124.579 224.59 129.294 225.523 130.191C226.223 131.089 232.054 127.049 238.119 121.212L248.85 110.661L238.586 100.559C228.789 91.1303 224.59 88.4364 224.59 92.0282Z" fill="#E11D48"/>
<path d="M185.817 89.7357C185.817 90.6337 181.852 95.1235 177.187 99.8378L168.556 108.368L177.653 117.348C182.552 122.287 185.817 127.001 184.884 127.899C184.185 128.797 178.353 124.756 172.288 118.919L161.558 108.368L171.821 98.2664C181.619 88.8378 185.817 86.1439 185.817 89.7357Z" fill="#E11D48"/>
<path d="M286.798 131.327C286.798 134.245 292.163 134.694 321.788 134.694C351.413 134.694 356.778 134.245 356.778 131.327C356.778 128.408 351.413 127.959 321.788 127.959C292.163 127.959 286.798 128.408 286.798 131.327Z" fill="#E11D48"/>
<path d="M286.798 166.123C286.798 170.388 288.431 170.613 321.788 170.613C355.145 170.613 356.778 170.388 356.778 166.123C356.778 161.858 355.145 161.633 321.788 161.633C288.431 161.633 286.798 161.858 286.798 166.123Z" fill="#E11D48"/>
</svg>
