<svg width="825" height="748" viewBox="0 0 825 748" fill="none" xmlns="http://www.w3.org/2000/svg">
<g clip-path="url(#clip0_1674_71)">
<path d="M114.609 516.888L111.266 520.383C107.784 523.738 106.809 529.471 108.62 534.364C110.832 540.163 100.789 540.627 308.533 540.656H49.8357C74.9094 540.656 75.7452 540.516 79.3669 537.3C84.7995 532.687 84.7995 524.857 79.3669 520.243C75.7452 517.027 74.9094 516.888 49.8357 516.888H114.609Z" fill="#E11D48"/>
<path d="M114.609 516.888H402.399H546.225V540.656H403.792H308.533C100.789 540.627 110.832 540.163 108.62 534.364C106.809 529.471 107.784 523.738 111.266 520.383L114.609 516.888Z" fill="#E11D48"/>
<path fill-rule="evenodd" clip-rule="evenodd" d="M85.0781 87.6561H142.608H529.3H608.003H686.707L693.95 91.2913C697.851 93.2487 703.005 97.3033 705.373 100.239C706.402 101.547 707.305 102.487 708.097 103.514C714.163 111.381 713.699 124.321 713.452 346.313H690.05V318.91C690.05 171.126 689.632 120.233 688.378 117.996C687.845 116.989 687.416 116.139 686.827 115.422C683.651 111.557 675.825 111.541 621.871 111.433L617.754 111.425H553.12H142.608H87.1676L83.6174 111.433C38.113 111.54 30.6246 111.558 27.5044 115.272C26.8898 116.004 26.4447 116.879 25.9118 117.926L25.8764 117.996C24.6227 120.233 24.2049 171.126 24.2049 318.91V516.888H49.8357C74.9094 516.888 75.7452 517.027 79.3669 520.243C84.7995 524.857 84.7995 532.687 79.3669 537.3C75.7452 540.516 74.9094 540.656 49.8357 540.656H24.2049V554.498C24.2049 567.221 24.4834 568.759 27.548 572.394L30.8912 576.309L352.531 576.728C438.187 576.796 516.812 576.798 575.408 576.735C611.726 576.695 640.35 576.63 658.186 576.541V600.028L575.408 600.497L464.248 600.916L465.083 605.39C468.009 618.673 475.252 632.375 485.421 643.42C490.993 649.572 491.411 649.712 499.769 649.712C530.136 649.851 545.18 684.246 524.703 707.036C522.989 708.957 521.844 710.55 520.444 711.871C513.083 718.813 498.669 718.221 357.406 718.221C244.992 718.221 207.661 717.801 203.342 716.543C195.124 714.026 184.119 702.701 181.751 694.033C179.522 686.203 180.358 674.319 183.562 668.167C189.412 656.842 201.114 649.851 214.486 649.712C222.844 649.712 223.262 649.572 228.834 643.42C239.003 632.375 246.246 618.673 249.171 605.39L250.007 600.916L138.847 600.497C36.3025 600.147 24.5858 600.478 17.1165 594.988C15.6366 593.901 14.3235 592.585 12.5038 590.989C9.71784 588.473 5.95679 583.719 4.28521 580.643L1.22065 574.911L0.802758 346.313C0.555863 123.655 0.0901658 110.728 6.19232 103.078C6.97583 102.096 7.86762 101.201 8.88205 99.9598C11.2501 97.1635 16.2649 93.2487 20.3045 91.2913L27.548 87.6561H85.0781ZM456.726 641.602C451.989 634.332 446.418 620.211 444.467 610.004L442.656 601.475L357.406 601.056C289.846 600.776 272.016 601.056 271.598 602.454C271.32 603.433 270.066 608.466 268.812 613.639C266.305 624.125 261.29 636.569 256.833 642.721C255.301 644.818 254.047 647.335 254.047 648.174C254.047 649.292 283.299 649.712 357.127 649.712C426.359 649.712 460.208 649.292 460.208 648.313C460.208 647.475 458.676 644.538 456.726 641.602ZM507.987 693.334C514.813 686.902 513.838 676.696 506.037 672.781C500.187 669.705 213.511 669.705 207.939 672.781C200.417 676.836 199.581 687.042 206.268 693.334L209.75 696.55H357.127H504.505L507.987 693.334Z" fill="#E11D48"/>
<path d="M546.225 516.888H568.861L579.308 540.656H546.225V516.888Z" fill="#E11D48"/>
<path d="M677.685 352.275C678.556 352.273 678.556 352.273 679.445 352.271C681.369 352.267 683.294 352.269 685.218 352.272C686.553 352.272 687.888 352.271 689.223 352.27C692.024 352.268 694.824 352.27 697.625 352.274C701.216 352.279 704.808 352.276 708.399 352.271C711.157 352.268 713.915 352.269 716.673 352.271C717.997 352.272 719.322 352.271 720.646 352.269C722.497 352.267 724.348 352.27 726.198 352.275C727.252 352.276 728.306 352.276 729.392 352.277C731.952 352.382 731.952 352.382 734.414 353.206C734.414 353.749 734.414 354.293 734.414 354.854C735.226 355.125 736.039 355.397 736.876 355.678C739.047 359.359 738.728 363.27 738.678 367.41C738.676 368.136 738.673 368.861 738.671 369.609C738.662 371.918 738.641 374.226 738.62 376.535C738.612 378.104 738.604 379.673 738.598 381.242C738.58 385.081 738.551 388.919 738.518 392.757C739.147 392.875 739.777 392.993 740.425 393.115C742.665 393.591 744.625 394.326 746.725 395.229C746.725 395.773 746.725 396.317 746.725 396.877C747.605 397.081 748.485 397.285 749.392 397.495C752.551 398.552 753.485 399.545 755.753 401.821C758.439 401.482 760.519 400.273 762.838 398.928C763.568 398.506 764.298 398.085 765.05 397.651C765.808 397.209 766.565 396.767 767.346 396.311C768.084 395.884 768.823 395.458 769.584 395.018C772.589 393.278 775.587 391.535 778.536 389.701C779.255 389.255 779.974 388.808 780.715 388.348C781.356 387.942 781.996 387.537 782.656 387.119C785.758 385.496 787.596 385.531 791.045 386.165C796.148 389.047 798.588 394.164 801.458 399.134C802.713 401.305 803.982 403.469 805.25 405.632C809.97 413.701 814.663 421.784 819.153 429.985C820.271 432.012 821.376 433.912 822.813 435.731C824.751 438.512 824.427 441.427 823.874 444.669C821.655 450.491 816.031 452.855 810.742 455.381C810.075 455.652 809.409 455.923 808.722 456.202C800.64 459.467 800.64 459.467 794.327 465.269C792.309 472.466 793.317 480.207 794.327 487.517C795.245 488.04 795.245 488.04 796.182 488.573C798.485 489.887 800.785 491.205 803.084 492.526C804.073 493.093 805.063 493.659 806.054 494.223C819.044 501.62 819.044 501.62 823.874 506.469C824.208 512.161 822.501 516.639 819.616 521.404C819.079 522.332 819.079 522.332 818.531 523.278C817.742 524.637 816.947 525.991 816.146 527.343C814.759 529.687 813.395 532.044 812.034 534.404C810.085 537.782 808.124 541.151 806.151 544.514C804.388 547.525 802.659 550.55 800.97 553.604C800.607 554.251 800.244 554.898 799.871 555.564C799.208 556.747 798.555 557.937 797.915 559.132C795.881 562.73 794.149 564.484 790.224 565.796C785.535 566.356 782.928 565.293 778.939 562.861C778.446 562.566 777.954 562.27 777.447 561.966C773.501 559.581 769.619 557.089 765.772 554.547C763.927 553.323 763.927 553.323 761.498 552.613C761.498 552.069 761.498 551.525 761.498 550.965C756.14 550.378 753.698 551.428 749.386 554.589C746.108 556.94 742.621 559.204 738.518 559.204C738.535 560.173 738.552 561.141 738.57 562.139C738.629 565.749 738.667 569.359 738.698 572.97C738.714 574.529 738.737 576.088 738.765 577.647C738.805 579.895 738.824 582.143 738.838 584.391C738.864 585.428 738.864 585.428 738.89 586.486C738.891 591.252 738.063 594.06 735.235 597.932C732.352 599.926 729.65 599.794 726.22 599.807C725.364 599.813 725.364 599.813 724.492 599.819C722.611 599.831 720.73 599.83 718.849 599.828C717.539 599.831 716.228 599.835 714.918 599.839C712.173 599.845 709.428 599.845 706.682 599.84C703.168 599.836 699.654 599.85 696.14 599.869C693.434 599.881 690.729 599.882 688.023 599.879C686.727 599.879 685.432 599.884 684.136 599.892C682.323 599.902 680.511 599.897 678.697 599.887C677.151 599.888 677.151 599.888 675.574 599.889C671.845 599.465 669.697 598.22 667.283 595.37C665.883 592.001 665.987 588.99 666.053 585.376C666.056 584.65 666.06 583.925 666.063 583.177C666.077 580.868 666.108 578.56 666.139 576.251C666.152 574.682 666.163 573.113 666.173 571.544C666.2 567.705 666.242 563.867 666.293 560.028C665.525 559.78 664.756 559.532 663.964 559.277C661.45 558.409 659.463 557.367 657.214 555.96C656.544 555.545 655.874 555.129 655.184 554.701C653.81 553.842 652.453 552.955 651.113 552.043C648.777 550.817 647.551 550.611 644.954 550.965C643.217 551.705 643.217 551.705 641.517 552.87C640.47 553.533 640.47 553.533 639.401 554.209C638.525 554.77 637.649 555.331 636.747 555.909C634.171 557.515 631.586 559.106 629.001 560.698C628.024 561.306 628.024 561.306 627.027 561.927C626.102 562.499 626.102 562.499 625.157 563.083C624.326 563.599 624.326 563.599 623.479 564.125C620.215 565.962 616.606 566.53 612.946 565.796C609.347 563.499 607.543 560.647 605.61 556.939C604.972 555.757 604.332 554.577 603.69 553.398C603.339 552.75 602.988 552.103 602.626 551.436C600.392 547.392 598.043 543.416 595.71 539.429C592.001 533.071 588.328 526.697 584.765 520.256C583.554 518.072 582.319 515.966 580.937 513.885C580.632 512.166 580.632 512.166 580.578 510.28C580.545 509.662 580.512 509.043 580.479 508.406C581.358 504.689 584.381 502.8 587.4 500.736C588.247 500.232 589.093 499.727 589.965 499.207C590.907 498.642 591.848 498.077 592.79 497.511C593.27 497.224 593.75 496.938 594.245 496.642C595.712 495.756 597.16 494.846 598.605 493.925C599.074 493.628 599.544 493.331 600.027 493.025C601.332 492.197 602.636 491.367 603.94 490.536C606.359 489.176 608.67 488.359 611.304 487.517C612.077 480.166 612.807 472.388 610.483 465.269C606.63 460.574 600.845 458.442 595.339 456.244C589.605 453.877 583.497 450.545 580.937 444.669C579.033 435.114 589.176 423.163 593.966 415.211C596.632 410.773 599.28 406.343 601.712 401.77C608.173 389.728 608.173 389.728 612.125 386.835C616.249 385.713 619.232 385.629 623.125 387.527C624.099 388.143 625.066 388.771 626.026 389.41C627.1 390.086 628.175 390.761 629.251 391.434C629.804 391.786 630.357 392.137 630.927 392.499C633.812 394.319 636.729 396.077 639.671 397.804C640.208 398.136 640.744 398.467 641.297 398.808C643.687 400.202 645.444 400.994 648.227 401.02C651.457 399.914 654.108 398.275 656.957 396.414C662.572 392.757 662.572 392.757 666.293 392.757C666.272 391.735 666.25 390.712 666.228 389.659C666.154 385.854 666.107 382.049 666.068 378.243C666.047 376.598 666.019 374.953 665.984 373.309C665.934 370.94 665.91 368.572 665.892 366.203C665.871 365.471 665.85 364.74 665.828 363.986C665.827 360.414 665.982 358.063 668.267 355.226C671.542 352.119 673.233 352.278 677.685 352.275Z" fill="#E11D48"/>
<path d="M704.415 435.612C715.561 435.545 724.254 440.126 731.984 446.92L732.729 447.584L732.862 447.705L732.985 447.836C741.407 456.833 744.306 467.392 744.111 478.971L744.109 479.078L744.103 479.186C743.358 490.37 737.865 500.499 729.965 507.942L729.802 508.096L729.624 508.231C718.521 516.71 706.924 518.457 693.954 517.353L693.629 517.325L693.312 517.249C689.902 516.428 687.055 515.235 684.121 513.62C683.162 513.158 682.203 512.697 681.244 512.238L681.174 512.205L681.104 512.168C680.458 511.83 679.813 511.492 679.148 511.145L676.836 509.934V508.97C673.976 507.553 671.775 505.17 670.151 502.992C668.206 500.383 666.658 497.472 665.548 495.357L665.485 495.238L665.431 495.115C664.952 494.046 664.488 492.969 664.038 491.885C663.705 491.176 663.693 491.15 663.33 490.377L663.287 490.284L663.248 490.189C659.71 481.609 659.952 470.358 663.024 461.925L663.089 461.749L663.168 461.58C668.272 450.629 675.857 442.537 687.353 437.736L687.459 437.691L687.568 437.652C692.785 435.796 697.485 435.692 702.21 435.664C703.255 435.639 703.261 435.639 704.339 435.613L704.377 435.612H704.415Z" fill="#E11D48" stroke="white" stroke-width="8.62741"/>
</g>
<defs>
<clipPath id="clip0_1674_71">
<rect width="824" height="748" fill="white" transform="translate(0.5)"/>
</clipPath>
</defs>
</svg>
