<svg width="225" height="225" viewBox="0 0 225 225" fill="none" xmlns="http://www.w3.org/2000/svg">
<g clip-path="url(#clip0_1676_885)">
<path d="M100.849 15.6621C121.838 15.1996 142.836 20.8872 157.98 31.5166C173.137 42.6819 181.344 60.5123 184.52 79.9248C185.377 86.4817 186.806 92.0929 190.853 98.3955L190.905 98.4775L190.96 98.5576C193.787 102.72 196.435 106.957 199 111.327L200.095 113.209C200.718 114.298 201.323 115.356 201.929 116.413L201.981 116.505C205.658 122.721 207.61 125.788 207.751 129.394C207.694 129.424 207.634 129.457 207.568 129.491L205.188 130.729L205.182 130.732L205.174 130.736C204.307 131.189 203.465 131.63 202.624 132.069L199.929 133.464L199.918 133.47L199.906 133.476C197.354 134.807 194.811 136.133 192.266 137.453C191.683 137.754 191.118 138.046 190.553 138.339L186.6 140.385L186.502 144.835C186.424 148.385 186.34 151.93 186.245 155.473C186.205 156.937 186.166 158.402 186.128 159.866L186.127 159.883V159.9C186.081 162.04 186.034 164.155 185.976 166.266C185.956 166.964 185.936 167.643 185.917 168.321V168.335L185.916 168.349C185.702 176.956 183.518 182.815 177.892 188.479C170.081 194.894 161.763 195.166 149.1 194.543L145.819 193.724L136.5 191.395V212.5H52.3623C52.2232 198.842 52.3468 183.731 47.0371 169.269L47.0117 169.199L46.9844 169.13L46.2383 167.214H46.2373C44.0266 161.457 41.4739 156.051 38.0303 150.641L38.0244 150.633L37.0547 149.096C27.3159 133.491 21.4589 118.546 21.2334 100.736L21.2266 99.8584C21.2344 98.692 21.2424 97.5582 21.25 96.4248V96.3252C21.2031 89.275 21.2422 83.5854 22.6992 77.8965C22.8773 77.2576 23.0513 76.6362 23.2246 76.0146L23.252 75.9141L23.2773 75.8135C25.125 68.3987 26.9729 61.9955 30.1592 56.0635C30.6126 55.2779 31.0548 54.5136 31.4961 53.749L31.5078 53.7275L31.5205 53.7061C35.0988 47.4103 38.7814 42.2995 43.7354 37.625C44.5089 36.9297 45.2615 36.2542 46.0137 35.5781L46.0674 35.5293L46.1201 35.4805C59.7688 22.7288 79.8182 16.1255 100.849 15.6621Z" stroke="#E11D48" stroke-width="15"/>
<path d="M112.739 61.5781C113.898 61.7861 114.696 61.9172 115.427 62.3184C115.959 62.6109 116.439 63.0389 117.048 63.6367L117.707 64.293L117.986 64.5723L117.999 64.9678C118.264 73.2115 116.025 81.645 114.36 89.4248L113.58 93.123L113.579 93.124C113.036 95.6836 112.489 98.2426 111.939 100.801C111.379 103.419 110.824 106.037 110.277 108.656C109.483 112.458 108.673 116.257 107.86 120.053L107.123 123.607L107.12 123.617L106.403 126.906L105.787 129.796L105.775 129.852L105.758 129.905C105.313 131.231 104.875 132.286 104.228 133.229C103.574 134.18 102.744 134.962 101.59 135.807L101.283 136.031L100.905 135.995C98.7621 135.791 97.5047 135.679 96.6172 135.383C95.6094 135.047 95.0578 134.472 94.293 133.707L94.0234 133.438L94.001 133.059C93.5453 125.284 94.9245 118.266 96.542 110.834L97.3271 107.146V107.146C98.0148 103.929 98.7108 100.714 99.4102 97.501C99.8349 95.5366 100.253 93.5705 100.668 91.6025V91.6016C101.47 87.8018 102.286 84.0056 103.104 80.2109L103.852 76.667L103.854 76.6592L104.581 73.3506L105.206 70.4561L105.215 70.4141L105.228 70.374C105.791 68.5342 106.224 67.1164 106.618 66.0342C107.009 64.9607 107.393 64.12 107.895 63.4834C108.975 62.1109 110.447 61.9095 112.394 61.5771L112.566 61.5469L112.739 61.5781Z" fill="#E11D48" stroke="#E11D48" stroke-width="2"/>
<path d="M71.4102 75.6714C72.4708 75.1289 73.638 75.0878 75.1543 75.3247L75.2412 75.3384L75.3252 75.3667C76.2891 75.698 76.9269 75.9098 77.5576 76.3335C78.1585 76.7372 78.7404 77.3258 79.707 78.2925L80.0098 78.5952L80 79.0229C79.9283 82.1095 78.7599 84.703 77.2227 87.02C75.7137 89.2943 73.7529 91.4264 72.1123 93.4487L72.1133 93.4497C71.3165 94.4527 70.9546 94.9095 70.5703 95.5063C70.2037 96.0757 69.8155 96.7744 69.0469 98.1714C69.5041 100.556 70.7849 102.762 72.4307 104.915C73.2882 106.036 74.2289 107.125 75.1826 108.208C75.8925 109.014 76.6149 109.822 77.3008 110.626L77.9727 111.428L78.0156 111.481L78.0518 111.54C78.9193 112.955 79.4611 113.823 79.7197 114.691C79.989 115.594 79.9442 116.469 79.8936 117.789L79.8877 117.959L79.8242 118.12C79.3907 119.21 79.1257 119.89 78.6885 120.532C78.2609 121.16 77.6777 121.737 76.707 122.708L76.3994 123.014L75.9658 123C74.2614 122.941 72.9455 122.769 71.7266 122.246C70.5057 121.722 69.4723 120.884 68.2559 119.665L68.2031 119.612L68.1582 119.551L66.2061 116.902V116.901L64.0723 114.045L64.0635 114.035L61.8779 111.025V111.024L59.6406 108.012V108.011C57.8118 105.545 55.9961 103.071 54.1914 100.587L53.8447 100.112L54.0938 99.5776C56.4861 94.445 59.9508 90.1075 63.1963 85.7183L65.1377 83.0571L65.1406 83.0532L67.0068 80.52L68.7139 78.2017L68.7305 78.1792L68.748 78.1577C69.6303 77.0885 70.4097 76.1831 71.4102 75.6714Z" fill="#E11D48" stroke="#E11D48" stroke-width="2"/>
<path d="M137.952 75.0669L138.148 75.0737L138.327 75.1538C140.979 76.343 143.078 78.4352 144.88 80.6724C145.784 81.7953 146.629 82.9754 147.437 84.1187C148.25 85.2704 149.019 86.3767 149.795 87.3931L151.993 90.1548L152 90.1626L152.007 90.1714L153.983 92.769H153.982L155.773 95.1021L155.846 95.1958L155.894 95.3042C156.371 96.3761 156.731 97.1444 156.777 97.9546C156.824 98.7653 156.555 99.5687 156.203 100.685L156.182 100.751L156.151 100.815C154.909 103.417 153.568 105.491 151.822 107.746L151.823 107.747L150.093 109.995L150.088 110L148.291 112.296L148.292 112.297L146.491 114.635L146.49 114.637C142.124 120.28 142.091 120.323 139.707 122.707L139.362 123.051L138.879 122.993C136.662 122.722 135.388 122.572 134.517 122.282C133.514 121.948 133.002 121.416 132.293 120.707L132.062 120.476L132.012 120.154C131.53 117.071 131.473 114.652 133.168 111.699L133.197 111.647L133.232 111.6C134.676 109.659 136.181 107.809 137.737 105.977L139.316 104.05V104.049C140.477 102.635 141.652 101.233 142.828 99.8374C140.735 95.3474 137.397 91.7398 134.121 87.6997L134.081 87.6499L134.048 87.5962C132.975 85.8605 132.26 84.4613 131.93 82.9438C131.598 81.4175 131.673 79.8607 132.014 77.8345L132.085 77.4077L132.445 77.1675C133.894 76.2019 134.758 75.6191 135.499 75.3276C136.338 74.998 137.027 75.0349 137.952 75.0669Z" fill="#E11D48" stroke="#E11D48" stroke-width="2"/>
</g>
<defs>
<clipPath id="clip0_1676_885">
<rect width="225" height="225" fill="white"/>
</clipPath>
</defs>
</svg>
