<svg width="225" height="225" viewBox="0 0 225 225" fill="none" xmlns="http://www.w3.org/2000/svg">
<g clip-path="url(#clip0_1676_885)">
<path d="M100.717 9.66309C122.779 9.17703 145.11 15.1314 161.479 26.6396V26.6406C178.122 38.8698 186.86 58.0341 190.297 78.0977L190.457 79.0537C191.244 85.1212 192.473 89.8138 195.901 95.1543L195.912 95.1709L195.923 95.1865C199.25 100.087 202.326 105.069 205.292 110.212C205.919 111.307 206.527 112.37 207.136 113.433L207.141 113.441L207.146 113.451C211.17 120.255 214.564 125.136 213.58 132.327C212.841 133.131 212.513 133.475 212.177 133.741C211.813 134.029 211.427 134.239 210.337 134.814C209.528 135.235 208.742 135.643 207.956 136.052L207.953 136.054C207.079 136.511 206.23 136.955 205.381 137.398L202.686 138.793L202.682 138.795C200.129 140.126 197.577 141.457 195.023 142.781C194.441 143.083 193.876 143.376 193.311 143.668L192.52 144.077L192.5 144.967C192.422 148.524 192.338 152.081 192.243 155.637C192.203 157.099 192.164 158.561 192.126 160.023L192.125 160.03C192.079 162.17 192.033 164.304 191.974 166.438C191.954 167.136 191.934 167.814 191.915 168.492L191.914 168.498C191.665 178.489 188.966 185.939 181.944 192.913C171.984 201.241 161.246 201.171 148.221 200.509L148.205 200.505C148.17 200.496 148.224 200.51 148.188 200.501L148.157 200.493L148.054 200.467L148.03 200.461C148.028 200.46 148.024 200.46 148.021 200.459L147.959 200.443C147.956 200.443 147.953 200.442 147.95 200.441L147.888 200.426L147.772 200.396L147.729 200.386C147.701 200.379 147.741 200.389 147.713 200.382L147.635 200.362C147.618 200.358 147.635 200.363 147.618 200.358L147.532 200.337L147.347 200.29L147.265 200.27C147.262 200.269 147.258 200.268 147.256 200.268L147.068 200.221C147.057 200.218 147.063 200.22 147.052 200.217L146.239 200.014C146.22 200.009 146.245 200.015 146.225 200.01L146.006 199.955C146.004 199.955 146.001 199.954 145.999 199.953L145.89 199.926L145.54 199.839C145.534 199.837 145.532 199.837 145.525 199.835L145.408 199.806C145.406 199.805 145.404 199.804 145.401 199.804L145.331 199.786L145.067 199.721C145.066 199.72 145.064 199.72 145.061 199.719L144.967 199.695C144.964 199.695 144.962 199.694 144.96 199.693L144.897 199.678L144.673 199.622C144.663 199.62 144.668 199.621 144.658 199.618L144.564 199.595C144.548 199.591 144.566 199.595 144.55 199.591L144.511 199.581L144.364 199.545L142.5 199.079V218.5H46.457C46.0418 202.664 47.0642 186.751 41.4053 171.337L41.3994 171.322L41.3945 171.309L40.6475 169.393C38.5429 163.908 36.156 158.87 32.9688 153.862L32.9678 153.861L31.9619 152.268C21.6943 135.814 15.2738 119.547 15.2266 99.8848L15.25 96.3848V96.3652C15.2035 89.3789 15.2099 82.9312 16.8965 76.3701C17.0829 75.7015 17.2644 75.0522 17.4453 74.4033L17.4551 74.3623C19.3234 66.8646 21.3219 59.8112 24.9121 53.1514C25.3832 52.3352 25.8413 51.5427 26.2988 50.75L26.3037 50.7412C30.0926 44.075 34.1315 38.4277 39.6611 33.2197C40.457 32.5044 41.2302 31.8098 42.0029 31.1152L42.0244 31.0957C57.0284 17.078 78.6413 10.1495 100.717 9.66309Z" stroke="#E11D48" stroke-width="3"/>
<path d="M117 65C115 63 115 63 112.562 62.5625C108.449 63.2647 108.449 63.2647 106.183 70.6667L105.558 73.5654L104.83 76.8737L104.082 80.4219C103.263 84.216 102.448 88.0108 101.646 91.8086C101.231 93.778 100.813 95.7467 100.388 97.714C99.6883 100.927 98.9921 104.14 98.3048 107.355L97.5192 111.047C95.9021 118.477 94.5528 125.376 94.9997 133C96.5786 134.579 96.5786 134.579 101 135C103.199 133.39 103.939 132.181 104.809 129.587L105.426 126.693L106.144 123.404L106.882 119.844C107.695 116.048 108.504 112.252 109.298 108.452C109.845 105.83 110.401 103.21 110.962 100.591C111.512 98.0335 112.058 95.4754 112.601 92.9166L113.382 89.2188C115.064 81.361 117.259 73.0885 117 65Z" fill="#E11D48"/>
<path d="M79 78.9999C77 76.9999 77 76.9999 75 76.3124C72.1356 75.8649 71.332 76.5976 69.5195 78.7941L67.8125 81.1132L65.9453 83.6464L64 86.3124C60.7217 90.7461 57.3386 94.9825 55 99.9999C56.8029 102.481 58.6165 104.953 60.4434 107.416L62.6875 110.437L64.873 113.447L67.0117 116.309L68.9636 118.959C71.333 121.334 72.6681 121.885 76 122C78 120 78 120 78.8945 117.75C79 115 79 115 77.1992 112.062C73.7572 107.866 68.8728 103.505 68 97.9999C69.7513 94.8155 69.7513 94.8155 71.3301 92.8281C74.7272 88.6387 78.8685 84.6643 79 78.9999Z" fill="#E11D48"/>
<path d="M149 87.9999C145.836 83.8578 142.795 78.253 137.918 76.0663C136 75.9999 136 75.9999 133 77.9999C132.337 81.9459 132.782 83.6482 134.898 87.0702C138.248 91.2023 141.86 95.0842 144 99.9998C142.688 101.554 141.38 103.111 140.09 104.683L138.5 106.625C136.952 108.446 135.461 110.278 134.035 112.196C132.504 114.863 132.533 117.014 133 120C134.444 121.444 134.444 121.444 139 122C141.336 119.664 141.336 119.664 145.699 114.025L147.5 111.687L149.301 109.385L151.031 107.137C152.742 104.927 154.042 102.912 155.249 100.384C156 97.9998 156 97.9998 154.98 95.7108L153.187 93.3748L151.211 90.7772L149 87.9999Z" fill="#E11D48"/>
</g>
<defs>
<clipPath id="clip0_1676_885">
<rect width="225" height="225" fill="white"/>
</clipPath>
</defs>
</svg>
