<svg width="924" height="980" viewBox="0 0 924 980" fill="none" xmlns="http://www.w3.org/2000/svg">
<g clip-path="url(#clip0_1675_140)">
<path d="M270.789 406.902C271.974 406.904 273.158 406.905 274.379 406.907C278.128 406.912 281.876 406.925 285.625 406.938C288.181 406.943 290.737 406.947 293.293 406.951C299.529 406.962 305.765 406.979 312 407C312.005 408.179 312.009 409.358 312.013 410.573C312.035 415.002 312.089 419.43 312.153 423.858C312.176 425.764 312.191 427.671 312.196 429.578C312.25 445.36 313.992 456.979 325.301 468.711C329.194 472.012 333.101 473.711 338 475C338.616 475.174 339.232 475.347 339.866 475.526C342.097 476.021 344.09 476.143 346.373 476.167C347.242 476.179 348.111 476.19 349.006 476.202C350.424 476.213 350.424 476.213 351.871 476.225C353.374 476.242 353.374 476.242 354.908 476.259C365.403 476.37 375.899 476.417 386.394 476.46C391.364 476.482 396.333 476.524 401.303 476.583C407.318 476.654 413.333 476.691 419.349 476.703C421.632 476.713 423.914 476.736 426.197 476.771C440.393 476.977 452.222 476.832 463.325 466.926C469.207 460.838 473.027 453.191 473.206 444.69C473.226 443.85 473.246 443.009 473.266 442.143C473.283 441.245 473.3 440.347 473.317 439.422C473.348 438.032 473.348 438.032 473.38 436.614C473.445 433.659 473.504 430.705 473.563 427.75C473.606 425.745 473.65 423.74 473.694 421.734C473.801 416.823 473.902 411.912 474 407C481.911 406.907 489.822 406.836 497.734 406.793C501.408 406.772 505.082 406.744 508.757 406.698C512.31 406.654 515.863 406.631 519.416 406.62C521.416 406.61 523.415 406.578 525.415 406.547C538.125 406.544 546.577 410.242 555.875 418.707C565.298 428.353 566.634 439.774 566.567 452.585C566.541 454.417 566.515 456.25 566.489 458.082C566.479 459.992 566.472 461.901 566.467 463.811C566.448 468.794 566.399 473.776 566.344 478.759C566.292 483.861 566.27 488.963 566.245 494.064C566.191 504.043 566.106 514.022 566 524C565.371 524.001 564.742 524.003 564.094 524.004C557.506 524.024 550.92 524.079 544.333 524.153C541.879 524.176 539.425 524.19 536.972 524.196C533.431 524.205 529.892 524.246 526.352 524.293C525.266 524.289 524.18 524.285 523.062 524.281C513.878 524.454 507.001 527.119 500.125 533.25C493.439 540.488 491.938 549.061 491.789 558.641C491.761 559.876 491.733 561.11 491.703 562.383C491.651 564.976 491.607 567.57 491.571 570.164C491.54 571.394 491.509 572.624 491.477 573.891C491.457 575.015 491.437 576.139 491.417 577.298C491.211 578.635 491.211 578.635 491 580C488 582 488 582 486.075 581.773C483.807 580.928 481.877 579.889 479.805 578.637C479.006 578.162 478.207 577.687 477.383 577.197C475.734 576.204 474.085 575.209 472.438 574.213C462.427 568.272 453.153 563.709 441.364 566.66C429.78 570.758 424.657 578.597 419.064 589.048C417.274 592.332 415.35 595.536 413.438 598.75C409.302 605.756 405.206 612.785 401.131 619.827C400.148 621.524 399.163 623.219 398.178 624.915C389.195 640.402 389.195 640.402 388 658C389.186 661.705 390.782 664.812 393 668C393.352 668.521 393.704 669.042 394.066 669.579C399.086 676.241 406.447 679.622 413.649 683.523C415.358 684.456 417.05 685.417 418.743 686.379C419.752 686.931 420.761 687.484 421.801 688.053C424 690 424 690 424.583 693.041C424 696 424 696 422.307 697.672C421.527 698.098 420.746 698.525 419.942 698.965C418.649 699.701 418.649 699.701 417.33 700.451C416.417 700.942 415.504 701.432 414.563 701.938C402.657 708.532 392.589 714.594 388 728C387.612 730.782 387.612 730.782 387.625 733.688C387.597 734.64 387.569 735.593 387.539 736.574C388.754 745.601 393.768 753.544 398.25 761.312C398.825 762.32 399.4 763.327 399.992 764.365C403.637 770.723 407.372 777.007 411.317 783.184C412.632 785.384 413.789 787.544 414.914 789.84C416.999 794.075 419.339 798.106 421.813 802.125C422.213 802.802 422.613 803.479 423.026 804.176C426.963 810.566 432.16 816.201 439.532 818.512C454.587 821.489 464.055 816.399 476.536 808.875C477.596 808.236 478.657 807.596 479.75 806.938C481.135 806.054 481.135 806.054 482.547 805.152C485 804 485 804 487.203 804.254C488.49 804.788 489.754 805.377 491 806C491.022 807.194 491.022 807.194 491.045 808.412C491.12 812.067 491.216 815.721 491.313 819.375C491.335 820.627 491.358 821.878 491.381 823.168C491.719 834.882 493.569 845.263 501.891 853.98C509.355 860.889 516.092 861.311 525.961 861.414C527.107 861.433 528.253 861.453 529.433 861.473C533.081 861.532 536.728 861.579 540.375 861.625C542.853 861.663 545.331 861.702 547.809 861.742C553.873 861.84 559.936 861.919 566 862C566 871.24 566 880.48 566 890C452.15 890 338.3 890 221 890C220.839 776.723 220.839 776.723 220.805 729.461C220.798 719.331 220.79 709.202 220.782 699.072C220.781 697.698 220.78 696.324 220.779 694.95C220.762 673.052 220.732 651.153 220.695 629.255C220.656 606.107 220.632 582.96 220.624 559.813C220.619 545.947 220.601 532.082 220.569 518.217C220.548 508.711 220.541 499.206 220.546 489.7C220.549 484.214 220.545 478.729 220.524 473.243C220.504 468.219 220.503 463.196 220.517 458.172C220.518 456.356 220.513 454.54 220.501 452.724C220.41 438.816 222.144 428.437 232 418C243.886 407.166 255.396 406.832 270.789 406.902Z" fill="#E11D48"/>
<path d="M0.000384897 180C25.4104 180 50.8204 180 77.0004 180C77.004 186.125 77.0077 192.251 77.0114 198.562C77.0368 239.005 77.0667 279.448 77.117 319.891C77.1183 320.926 77.1183 320.926 77.1196 321.982C77.1383 336.976 77.1578 351.969 77.1783 366.963C77.1883 374.316 77.1982 381.668 77.2079 389.021C77.2089 389.753 77.2098 390.484 77.2108 391.238C77.2423 414.962 77.2607 438.686 77.2725 462.41C77.2846 486.786 77.3098 511.162 77.3515 535.537C77.3573 538.979 77.3631 542.42 77.3687 545.862C77.3698 546.539 77.3709 547.216 77.3721 547.914C77.3896 558.825 77.3934 569.737 77.392 580.648C77.3909 591.613 77.4046 602.577 77.4325 613.542C77.4472 619.485 77.4554 625.428 77.4462 631.371C77.4379 636.808 77.448 642.244 77.4727 647.681C77.4784 649.652 77.4773 651.622 77.4689 653.593C77.4584 656.265 77.4724 658.937 77.4926 661.609C77.4837 662.38 77.4748 663.15 77.4656 663.944C77.5405 669.087 78.7374 672.044 82.0004 676C84.4401 677.22 86.0306 677.138 88.7586 677.158C89.7626 677.168 90.7667 677.178 91.8011 677.188C92.9067 677.194 94.0122 677.199 95.1513 677.205C96.3122 677.215 97.4732 677.225 98.6693 677.235C102.522 677.267 106.374 677.292 110.227 677.316C112.892 677.337 115.557 677.358 118.222 677.379C124.53 677.429 130.837 677.474 137.145 677.517C145.029 677.572 152.913 677.632 160.797 677.693C174.865 677.802 188.933 677.901 203 678C203 702.75 203 727.5 203 753C163.15 753.161 163.15 753.161 146.405 753.195C134.859 753.219 123.313 753.247 111.768 753.302C103.358 753.342 94.9479 753.367 86.5378 753.376C82.0889 753.382 77.6403 753.394 73.1914 753.423C68.9946 753.45 64.7983 753.458 60.6014 753.452C59.0701 753.454 57.5387 753.461 56.0075 753.477C40.0715 753.63 25.8345 749.998 13.9144 739.004C3.8897 728.509 -0.167312 716.348 -0.122663 702.092C-0.123817 701.19 -0.124971 700.287 -0.126159 699.358C-0.128817 696.318 -0.124311 693.279 -0.11987 690.24C-0.120305 688.045 -0.121181 685.851 -0.122459 683.656C-0.124701 677.613 -0.120687 671.57 -0.115681 665.527C-0.111372 659.015 -0.112823 652.504 -0.113583 645.992C-0.114281 634.705 -0.110999 623.419 -0.105345 612.132C-0.0994301 600.294 -0.0955796 588.455 -0.0944923 576.617C-0.0944236 575.881 -0.0943549 575.145 -0.094284 574.387C-0.0939457 570.65 -0.0936443 566.914 -0.0933572 563.177C-0.0912562 536.703 -0.0845173 510.229 -0.0750546 483.755C-0.0658717 458.034 -0.0587873 432.314 -0.0545467 406.593C-0.0544152 405.8 -0.0542837 405.008 -0.0541482 404.191C-0.0528297 396.231 -0.0515539 388.27 -0.0503093 380.31C-0.047773 364.093 -0.0449518 347.877 -0.0419582 331.66C-0.041821 330.914 -0.0416837 330.169 -0.0415422 329.401C-0.03234 279.6 -0.0162665 229.8 0.000384897 180Z" fill="#E11D48"/>
<path d="M553.688 648.75C554.979 648.719 554.979 648.719 556.295 648.688C560.901 648.66 565.131 649.37 569.095 650.702C571.485 651.506 573.779 652.535 576 653.766C579.894 655.922 583.565 658.696 587.145 661.949C596.236 671.713 599.466 683.167 599.246 696.285C598.442 708.425 592.492 719.602 583.707 727.922C580.119 730.677 576.485 732.796 572.761 734.38C568.855 736.042 564.85 737.117 560.693 737.722C555.41 738.492 549.881 738.503 544 738C540.337 737.114 537.282 735.827 534 734C532.793 733.415 531.585 732.831 530.375 732.25C529.592 731.838 528.808 731.425 528 731C528 730.34 528 729.68 528 729C527.423 728.929 526.845 728.858 526.25 728.785C525.229 728.429 524.258 727.892 523.338 727.221C520.373 725.061 517.925 721.511 515.958 718.112C515.113 716.652 514.357 715.22 513.688 713.938C513.107 712.633 512.544 711.321 512 710C511.554 709.043 511.554 709.043 511.098 708.066C507.358 698.948 507.566 686.578 510.907 677.359C516.629 665.015 524.948 656.168 537.555 650.875C543.004 648.925 547.941 648.784 553.688 648.75Z" fill="#020202"/>
<path d="M335 407C373.61 407 412.22 407 452 407C452 446.706 452 446.706 446.923 452.281C442.702 454.764 439.056 454.552 434.241 454.502C433.263 454.507 432.285 454.512 431.278 454.518C428.049 454.531 424.822 454.514 421.594 454.496C419.349 454.496 417.103 454.498 414.858 454.5C410.154 454.502 405.45 454.489 400.746 454.467C394.717 454.438 388.688 454.441 382.658 454.454C378.022 454.461 373.386 454.453 368.75 454.44C366.527 454.436 364.304 454.436 362.081 454.439C358.974 454.442 355.867 454.426 352.76 454.404C351.842 454.409 350.923 454.413 349.977 454.418C345.206 454.362 341.773 454.246 338 451C330.437 438.394 335 421.701 335 407Z" fill="#E11D48"/>
<path d="M412 81C412.047 81.0235 412.093 81.0465 412.138 81.0689C412.244 81.122 412.344 81.1723 412.439 81.2204C414.009 82.0168 414.114 82.2126 415.438 84.6875L415.438 84.6888C415.787 86.7415 415.919 87.5218 415.751 88.2306C415.648 88.6652 415.431 89.0729 415.082 89.7305C414.605 90.3194 414.299 90.6975 413.976 91.0607C413.398 91.7117 412.766 92.3151 411 94C410.34 94 409.68 94 409 94C408.985 93.7343 408.97 93.4771 408.956 93.2282C408.717 89.0577 408.631 87.1965 408.941 85.7883C409.182 84.6896 409.664 83.8665 410.5 82.4375C411.243 81.7259 411.243 81.7259 412 81Z" fill="#EDEDED"/>
<path d="M662 584C662 584.33 662 584.66 662 585C661.031 585.124 660.062 585.248 659.063 585.375C657.547 585.684 657.547 585.684 656 586C655.67 586.66 655.34 587.32 655 588C653.34 588.681 651.673 589.347 650 590C649.34 590.66 648.68 591.32 648 592C646.68 591.34 645.36 590.68 644 590C650.175 585.749 654.414 583.157 662 584Z" fill="#383838"/>
<path d="M41.0004 748C41.0004 749.32 41.0004 750.64 41.0004 752C36.6826 751.492 32.9674 750.803 29.0004 749C29.0004 748.67 29.0004 748.34 29.0004 748C30.4368 747.804 31.8746 747.619 33.3129 747.438C34.1134 747.333 34.9139 747.229 35.7387 747.121C38.0004 747 38.0004 747 41.0004 748Z" fill="#212121"/>
<path d="M687 584C689.64 584.33 692.28 584.66 695 585C694.613 586.161 694.411 586.769 694.176 587.365C693.918 588.019 693.622 588.658 693 590C692.053 590.316 691.105 590.632 690.131 590.956C690.088 590.971 690.044 590.985 690 591C687.875 587.635 687.255 586.654 687.075 585.568C687 585.121 687 584.656 687 584Z" fill="#0D0D0D"/>
<path d="M459 567C460.461 567.619 461.919 568.246 463.375 568.875C464.188 569.223 465 569.571 465.836 569.93C468 571 468 571 470 573C468.02 573.99 468.02 573.99 466 575C465.103 574.288 465.103 574.288 464.188 573.562C461.997 571.835 461.997 571.835 459 571C459 569.68 459 568.36 459 567Z" fill="#EDEDED"/>
<path d="M476 570C476.66 570.33 477.32 570.66 478 571C477.67 572.65 477.34 574.3 477 576C473.541 574.751 470.853 573.325 468 571C470.739 569.63 472.971 569.874 476 570Z" fill="#161616"/>
<path d="M516 718C518.932 720.853 521.644 723.651 524 727C523.78 727.074 523.559 727.147 523.338 727.221C522.567 727.478 521.793 727.736 521 728C519.965 727.1 518.947 726.179 517.938 725.25C517.369 724.74 516.801 724.229 516.215 723.703C515.624 722.875 515.321 722.449 515.201 721.977C515.075 721.479 515.154 720.928 515.317 719.797C515.529 719.24 515.74 718.683 515.958 718.112C515.972 718.075 515.986 718.037 516 718Z" fill="#DEDEDE"/>
<path d="M705 704C705.66 704.33 706.32 704.66 707 705C707 705.66 707 706.32 707 707C708.32 706.67 709.64 706.34 711 706C711.33 707.65 711.66 709.3 712 711C707.486 711 705.871 709.822 702.475 707.346C702.468 707.341 702.461 707.336 702.454 707.331C702.307 707.223 702.155 707.113 702 707C702.99 706.67 703.98 706.34 705 706C705 705.34 705 704.68 705 704Z" fill="#1E1E1E"/>
<path d="M438 568C437.67 569.32 437.34 570.64 437 572C436.01 572 435.02 572 434 572C431.313 574.438 431.313 574.438 429 577C428.34 576.34 427.68 575.68 427 575C428.454 573.828 429.913 572.662 431.375 571.5C432.594 570.525 432.594 570.525 433.836 569.531C436 568 436 568 438 568Z" fill="#D5D5D5"/>
<path d="M705 680C704.361 680.289 703.722 680.577 703.063 680.875C701.939 681.359 701.386 681.597 701.003 681.998C700.63 682.387 700.418 682.93 700 684C698.357 684.722 696.69 685.394 695 686C694.34 685.34 693.68 684.68 693 684C694.43 683.134 695.87 682.282 697.313 681.438C698.514 680.724 698.514 680.724 699.739 679.996C700.747 679.552 701.305 679.306 701.881 679.258C702.596 679.199 703.337 679.446 705 680Z" fill="#232323"/>
<path d="M846 668C846.66 668.99 847.32 669.98 848 671C847.485 671.577 846.969 672.155 846.438 672.75C845.547 673.863 845.123 674.394 845.003 674.987C844.893 675.527 845.037 676.119 845.313 677.25C845.54 677.827 845.767 678.405 846 679C845.01 679.33 844.02 679.66 843 680C842.01 679.01 841.02 678.02 840 677C840.177 676.796 840.354 676.592 840.531 676.388C841.624 675.127 842.716 673.866 843.809 672.605C844.399 671.884 844.74 671.466 844.997 671.008C845.35 670.379 845.543 669.674 846 668Z" fill="#212121"/>
<path d="M421 665C423.97 665.99 426.94 666.98 430 668C430 669.32 430 670.64 430 672C425.569 670.792 423.019 669.483 420 666C420.33 665.67 420.66 665.34 421 665Z" fill="#282828"/>
<path d="M694 657C694.99 657.33 695.98 657.66 697 658C697.33 658.99 697.66 659.98 698 661C693.25 664 693.25 664 691 664C691 663.01 691 662.02 691 661C691.66 661 692.32 661 693 661C692.67 660.01 692.34 659.02 692 658C692.66 657.67 693.32 657.34 694 657Z" fill="#141414"/>
<path d="M477 810C476 813 476 813 474.153 814.168C473.422 814.504 472.691 814.841 471.938 815.188C471.204 815.532 470.471 815.876 469.715 816.23C468.866 816.611 468.866 816.611 468 817C467.34 816.34 466.68 815.68 466 815C467.456 814.162 468.915 813.329 470.375 812.5C471.188 812.036 472 811.572 472.836 811.094C475 810 475 810 477 810Z" fill="#242424"/>
<path d="M410 746C417 754.448 417 754.448 417 758C416.01 757.67 415.02 757.34 414 757C414 756.34 414 755.68 414 755C413.34 755 412.68 755 412 755C410.502 751.629 410 749.796 410 746Z" fill="#E2E2E2"/>
<path d="M499 733C499.017 733.008 499.034 733.017 499.05 733.025C499.694 733.347 500.338 733.669 501 734C501 734.66 501 735.32 501 736C501.426 736.142 501.851 736.283 502.278 736.426C502.846 736.615 503.418 736.806 504 737C504.887 738.347 505.308 738.986 505.698 739.643C506.051 740.236 506.378 740.844 507 742C506.01 742 505.02 742 504 742C503.67 740.68 503.34 739.36 503 738C501.68 738.33 500.36 738.66 499 739C497.875 735.25 497.875 735.25 499 733Z" fill="#292929"/>
<path d="M531 976C531.867 976.278 531.867 976.278 532.75 976.562C535.207 977.04 536.644 976.757 539 976C539.33 976.66 539.66 977.32 540 978C536.124 979.193 533.084 980 529 980C529 979.34 529 978.68 529 978C529.66 978 530.32 978 531 978C531 977.34 531 976.68 531 976Z" fill="#212121"/>
<path d="M669 794C669.66 794.33 670.32 794.66 671 795C670.028 798.272 669.343 799.745 666.563 801.812C664 803 664 803 661 803C661 802.34 661 801.68 661 801C661.763 800.773 662.527 800.546 663.313 800.312C666.548 798.733 667.417 797.167 669 794Z" fill="#E0E0E0"/>
<path d="M462 792C463.32 792.66 464.64 793.32 466 794C463.312 796.252 461.354 797.882 458 799C457.34 798.34 456.68 797.68 456 797C457.98 795.35 459.96 793.7 462 792Z" fill="#171717"/>
<path d="M923 710C923.33 710 923.66 710 924 710C924.314 715.959 923.809 719.707 921 725C920.01 725.495 920.01 725.495 919 726C919.217 725.133 919.434 724.265 919.651 723.397C920.755 718.981 921.864 714.546 923 710Z" fill="#D3D3D3"/>
<path d="M693 663C693.66 663.33 694.32 663.66 695 664C694.5 665.938 694.5 665.938 693 668C690.304 668.688 687.799 668.819 685 669C687.46 666.365 689.578 664.255 693 663Z" fill="#DCDCDC"/>
<path d="M461 797C461.66 797.66 462.32 798.32 463 799C459.433 801.489 456.11 803.55 452 805C452.246 803.141 452.246 803.141 453 801C454.848 799.734 454.848 799.734 457.063 798.75C458.163 798.247 458.163 798.247 459.286 797.734C459.851 797.492 460.417 797.25 461 797Z" fill="#E7E7E7"/>
<path d="M558 735C561.63 735 565.26 735 569 735C567.117 736.883 565.984 737.268 564.058 737.457C563.652 737.497 563.211 737.528 562.721 737.563C562.455 737.582 562.173 737.602 561.875 737.625C561.482 737.657 561.089 737.69 560.693 737.722C560.173 737.765 559.65 737.808 559.118 737.852C558.07 737.925 558.07 737.925 557 738C557.33 737.01 557.66 736.02 558 735Z" fill="#242424"/>
<path d="M396 627C397.138 630.413 397.226 631.649 396 635C392.938 637.312 392.938 637.312 390 639C391.567 634.692 393.684 630.938 396 627Z" fill="#D1D1D1"/>
<path d="M462 468C462.33 468.99 462.66 469.98 463 471C462.34 471 461.68 471 461 471C461 471.99 461 472.98 461 474C459.577 474.217 459.577 474.217 458.125 474.438C455.107 474.829 455.107 474.829 453 476C452.34 475.34 451.68 474.68 451 474C451.711 473.651 452.421 473.301 453.153 472.941C454.072 472.486 454.991 472.031 455.938 471.562C457.313 470.884 457.313 470.884 458.715 470.191C460.906 469.195 460.906 469.195 462 468Z" fill="#242424"/>
<path d="M166 58C166.66 58.33 167.32 58.66 168 59C167.67 60.65 167.34 62.3 167 64C166.01 64.33 165.02 64.66 164 65C163.34 64.34 162.68 63.68 162 63C163.32 61.35 164.64 59.7 166 58Z" fill="#E1E1E1"/>
<path d="M459 947C459.66 947 460.32 947 461 947C460.904 947.892 460.818 948.643 460.692 949.308C460.36 951.06 459.75 952.22 457.938 953.812C457.299 954.204 456.659 954.596 456 955C455.34 954.67 454.68 954.34 454 954C454.33 953.34 454.66 952.68 455 952C455.66 952 456.32 952 457 952C457.66 950.35 458.32 948.7 459 947Z" fill="#ECECEC"/>
<path d="M417 591C417.66 591 418.32 591 419 591C418.422 594.356 417.36 595.64 415 598C415 598.99 415 599.98 415 601C414.01 601 413.02 601 412 601C413.333 597.412 414.831 594.164 417 591Z" fill="#D2D2D2"/>
<path d="M177 50C177.172 50.0859 177.344 50.1718 177.516 50.2579C178.005 50.5025 178.497 50.7485 179 51C175.556 54.5352 174.609 55.5068 173.491 56.2028C173.067 56.4666 172.619 56.6908 172 57C172 56.34 172 55.68 172 55C171.432 54.7157 170.863 54.4314 170.282 54.1406C170.188 54.0939 170.094 54.0471 170 54C174.033 51.5356 174.982 50.9557 175.977 50.4717C176.284 50.3228 176.594 50.1829 177 50Z" fill="#D2D2D2"/>
<path d="M466 592C469.465 593.485 469.465 593.485 473 595C472.01 596.32 471.02 597.64 470 599C469.01 598.67 468.02 598.34 467 598C467 596.68 467 595.36 467 594C466.34 593.67 465.68 593.34 465 593C465.33 592.67 465.66 592.34 466 592Z" fill="#141414"/>
<path d="M472 454C470.666 457.594 469.04 460.755 467 464C465.944 460.832 465.87 460.015 467 457C469.465 454 469.465 454 472 454Z" fill="#E8E8E8"/>
<path d="M570 408C570.5 408.5 570.999 408.999 571.5 409.5C572.654 410.654 573.815 411.815 575 413C574.855 413.291 574.71 413.581 574.564 413.874C574.378 414.245 574.191 414.619 574 415C571.938 415.625 571.938 415.625 570 416C570 413.333 570 410.667 570 408Z" fill="#E8E8E8"/>
<path d="M126 115C126.209 115.418 126.419 115.836 126.628 116.256C127.081 117.16 127.536 118.071 128 119C126.941 120.589 126.443 121.336 125.763 121.836C125.159 122.281 124.411 122.53 123 123C122.34 123.99 121.68 124.98 121 126C120.778 125.555 120.555 125.11 120.33 124.659C120.221 124.441 120.111 124.222 120 124C120.66 123.01 121.32 122.02 122 121C122.66 121 123.32 121 124 121C124.238 120.287 124.476 119.573 124.715 118.857C125.139 117.586 125.565 116.305 126 115Z" fill="#222222"/>
<path d="M477.563 783.938C478.769 783.968 478.769 783.968 480 784C480 784.99 480 785.98 480 787C476.535 788.485 476.535 788.485 473 790C473 789.34 473 788.68 473 788C473.66 788 474.32 788 475 788C474.67 787.01 474.34 786.02 474 785C475 784 475 784 477.563 783.938Z" fill="#191919"/>
<path d="M422 718C422.66 718.33 423.32 718.66 424 719C422.711 720.376 421.374 721.708 420 723C419.34 723 418.68 723 418 723C418 723.66 418 724.32 418 725C416.68 724.34 415.36 723.68 414 723C415.286 722.136 416.579 721.284 417.875 720.438C418.954 719.724 418.954 719.724 420.055 718.996C420.697 718.667 421.339 718.339 422 718Z" fill="#282828"/>
<path d="M326 469C331.75 468.875 331.75 468.875 334 470C334 471.32 334 472.64 334 474C328.25 472.375 328.25 472.375 326 469Z" fill="#D2D2D2"/>
<path d="M579 422C581.517 424.517 582.11 426.576 583 430C582.654 432.196 582.628 432.361 582.132 433.658C582.091 433.764 582.048 433.877 582 434C580 432 580 432 579.875 428.375C579.917 427.261 579.958 426.148 580 425C579.34 424.67 578.68 424.34 578 424C578.285 423.431 578.569 422.863 578.86 422.281C578.906 422.188 578.953 422.094 579 422Z" fill="#CCCCCC"/>
<path d="M874 81C874.99 81 875.98 81 877 81C876.67 81.99 876.34 82.98 876 84C876.99 84.33 877.98 84.66 879 85C878.34 87.31 877.68 89.62 877 92C876.67 92 876.34 92 876 92C875.948 91.8261 875.896 91.6521 875.844 91.4782C874.933 88.4432 874.021 85.4037 873.085 82.282C873.057 82.1881 873.029 82.0941 873 82C873.33 81.67 873.66 81.34 874 81Z" fill="#111111"/>
<path d="M443 801C445.64 801.33 448.28 801.66 451 802C451 802.66 451 803.32 451 804C448.086 804.81 446.539 805.218 443.688 804.062C443.131 803.712 442.574 803.361 442 803C442.33 802.34 442.66 801.68 443 801Z" fill="#F2F2F2"/>
<path d="M544 977C543.67 977.99 543.34 978.98 543 980C539.7 980 536.4 980 533 980C533 979.67 533 979.34 533 979C534.455 978.47 535.915 977.951 537.375 977.438C538.187 977.147 539 976.857 539.836 976.559C542 976 542 976 544 977Z" fill="#D7D7D7"/>
<path d="M845 671C844.999 671.003 844.998 671.005 844.997 671.008C843.95 673.624 843.348 674.795 840.875 676.25C840.761 676.296 840.646 676.342 840.531 676.388C840.026 676.59 839.52 676.792 839 677C839 676.34 839 675.68 839 675C838.34 674.67 837.68 674.34 837 674C842.378 671.194 842.726 671.013 844.59 671.001C844.719 671 844.855 671 845 671Z" fill="#E8E8E8"/>
<path d="M274 64C274.99 64 275.98 64 277 64C276.819 65.1779 276.726 65.7866 276.607 66.3903C276.479 67.0359 276.323 67.6758 276 69C275.01 69.495 275.01 69.495 274 70C273.34 70.99 272.68 71.98 272 73C272.43 69.6828 272.649 67.9958 272.894 66.8708C273.147 65.7066 273.428 65.1443 274 64Z" fill="#DDDDDD"/>
<path d="M435.188 812.938C435.786 813.288 436.384 813.639 437 814C436.67 814.99 436.34 815.98 436 817C431.125 815.25 431.125 815.25 430 813C433 812 433 812 435.188 812.938Z" fill="#D8D8D8"/>
<path d="M409 743C409.99 743.33 410.98 743.66 412 744C412.99 743.67 413.98 743.34 415 743C415 744.32 415 745.64 415 747C414.34 747 413.68 747 413 747C412.67 747.99 412.34 748.98 412 750C411.01 747.69 410.02 745.38 409 743Z" fill="#1A1A1A"/>
<path d="M688 687C688.66 687.33 689.32 687.66 690 688C689.333 688.97 688.99 689.47 688.628 689.955C688.243 690.471 687.837 690.97 687 692C686.34 692 685.68 692 685 692C684.404 693.194 683.807 694.387 683.195 695.61C683.131 695.74 683.066 695.87 683 696C682.688 693.188 682.688 693.188 683 690C683.674 689.45 684.157 689.057 684.562 688.75C685.586 687.977 686.121 687.761 688 687Z" fill="#3E3E3E"/>
<path d="M589 632C589.99 632.33 590.98 632.66 592 633C592 633.99 592 634.98 592 636C592.66 636.33 593.32 636.66 594 637C593.782 637.437 593.564 637.873 593.343 638.315C593.229 638.542 593.115 638.77 593 639C589.535 637.02 589.535 637.02 586 635C586.18 634.82 586.36 634.64 586.541 634.46C587.351 633.649 588.166 632.835 589 632Z" fill="#313131"/>
<path d="M609 535C609.032 535.028 609.063 535.056 609.094 535.085C611.836 537.566 613.464 539.247 614 543C613.01 543 612.02 543 611 543C609.236 539.912 609 538.767 609 535Z" fill="#D3D3D3"/>
<path d="M315 456C319 460.625 319 460.625 319 464C318.01 463.67 317.02 463.34 316 463C316 462.34 316 461.68 316 461C315.34 461 314.68 461 314 461C314.33 459.35 314.66 457.7 315 456Z" fill="#2B2B2B"/>
<path d="M225 399C225 399.52 225 399.949 224.99 400.32C224.94 402.09 224.654 402.52 223 405C222.34 405 221.68 405 221 405C220.67 405.99 220.34 406.98 220 408C219.424 407.424 218.848 406.848 218.259 406.259C218.173 406.173 218.087 406.087 218 406C220.31 403.69 222.62 401.38 225 399Z" fill="#E1E1E1"/>
<path d="M52.0004 121C52.1261 121.126 52.2519 121.252 52.3777 121.377C53.9022 122.902 55.43 124.43 57.0004 126C56.3404 126 55.6804 126 55.0004 126C54.6704 126.66 54.3404 127.32 54.0004 128C53.254 127.134 52.8642 126.682 52.5038 126.207C52.1099 125.688 51.7512 125.143 51.0004 124C51.3304 123.01 51.6604 122.02 52.0004 121Z" fill="#181818"/>
<path d="M123 118C123.568 118.284 124.135 118.567 124.715 118.857C124.81 118.905 124.905 118.952 125 119C123.161 121.146 121.322 123.292 119.434 125.494C119.29 125.662 119.145 125.831 119 126C118.986 125.979 118.973 125.958 118.959 125.937C118.313 124.968 117.666 123.998 117 123C118.98 121.35 120.96 119.7 123 118Z" fill="#D5D5D5"/>
<path d="M461 949C464 952.875 464 952.875 464 954C461.69 954.66 459.38 955.32 457 956C456.67 955.34 456.34 954.68 456 954C457.55 952.45 459.1 950.9 460.692 949.308C460.795 949.206 460.897 949.103 461 949Z" fill="#2B2B2B"/>
<path d="M417 795C421.429 800.143 421.429 800.143 422 804C419 803 419 803 417 800C416.875 797.312 416.875 797.312 417 795Z" fill="#333333"/>
<path d="M572 734C572.253 734.127 572.506 734.253 572.761 734.38C573.169 734.585 573.581 734.79 574 735C570.648 737.573 569.419 738.516 568.058 738.782C567.27 738.937 566.438 738.864 565.125 738.75C564.424 738.502 563.723 738.255 563 738C563.353 737.817 563.705 737.636 564.058 737.457C566.644 736.144 569.242 734.944 572 734Z" fill="#DADADA"/>
<path d="M426 576C426.66 577.32 427.32 578.64 428 580C427.01 580.33 426.02 580.66 425 581C425 581.99 425 582.98 425 584C424.01 584 423.02 584 422 584C423.125 581.028 424.223 578.666 426 576Z" fill="#D0D0D0"/>
<path d="M281 55C281.008 55.0251 281.015 55.05 281.023 55.0747C282.125 58.7501 282.118 58.765 281 61C280.01 61 279.02 61 278 61C277.67 61.66 277.34 62.32 277 63C277 59.5313 278.186 58.19 280.197 55.916C280.369 55.7207 280.548 55.5186 280.733 55.3077C280.768 55.2671 280.804 55.2262 280.84 55.1849C280.859 55.1632 280.878 55.1414 280.897 55.1195C280.931 55.08 280.966 55.0402 281 55Z" fill="#D5D5D5"/>
<path d="M297 49C295.02 49.99 295.02 49.99 293 51C293 51.99 293 52.98 293 54C292.01 54 291.02 54 290 54C290 53.34 290 52.68 290 52C289.141 51.7135 288.281 51.427 287.402 51.134C287.269 51.0895 287.135 51.0448 287 51C289.317 49.9411 291.253 49.3125 293.411 49.0711C294.521 48.9469 295.69 48.9251 297 49Z" fill="#CBCBCB"/>
<path d="M614.188 784.375C614.786 784.581 615.384 784.787 616 785C614.02 786.32 612.04 787.64 610 789C609.67 788.01 609.34 787.02 609 786C612 784 612 784 614.188 784.375Z" fill="#161616"/>
<path d="M626 784C627.98 784 629.96 784 632 784C632 784.66 632 785.32 632 786C632.66 786.33 633.32 786.66 634 787C631.395 787.931 630.358 788.149 627.75 787.062C627.173 786.712 626.595 786.361 626 786C626 785.34 626 784.68 626 784Z" fill="#1A1A1A"/>
<path d="M695 702C697.31 702 699.62 702 702 702C702.33 702.99 702.66 703.98 703 705C702.01 705.33 701.02 705.66 700 706C698.613 705.29 697.941 704.947 697.298 704.557C696.696 704.192 696.119 703.786 695 703C695 702.67 695 702.34 695 702Z" fill="#2B2B2B"/>
<path d="M569 649C571.31 649.66 573.62 650.32 576 651C576 651.99 576 652.98 576 654C573.441 653.032 571.333 652.082 569.095 650.702C568.734 650.48 568.37 650.247 568 650C568.33 649.67 568.66 649.34 569 649Z" fill="#DBDBDB"/>
<path d="M692 632C694.725 634.353 695.815 636.625 697 640C696.01 639.67 695.02 639.34 694 639C694 638.34 694 637.68 694 637C693.34 637 692.68 637 692 637C692 635.35 692 633.7 692 632Z" fill="#1B1B1B"/>
<path d="M515 544C515.66 544 516.32 544 517 544C516.67 545.65 516.34 547.3 516 549C514.68 549.33 513.36 549.66 512 550C512.574 547.133 512.862 546.139 515 544Z" fill="#202020"/>
<path fill-rule="evenodd" clip-rule="evenodd" d="M526.025 542.865L523.881 542.871C523.621 542.871 523.369 542.87 523.124 542.87C518.255 542.865 516.204 542.862 512.406 546.452C509.621 549.895 509.432 552.748 509.434 557.083L509.512 559.773C509.534 562.649 509.562 565.522 509.623 568.397C509.667 570.393 509.701 572.389 509.726 574.385C509.773 579.004 509.83 583.622 509.921 588.24L510 592C508.335 592 507.282 592 506.277 592.22C504.544 592.598 502.954 593.63 498.625 596.438C495.153 598.696 491.923 600.685 487.989 602.027C484.598 601.996 482.456 601.035 479.545 599.344L477.563 598.125C473.979 596.029 470.425 593.895 466.91 591.686L464.868 590.395C463.557 589.577 462.247 588.758 460.938 587.938C459.768 587.163 458.59 586.4 457.403 585.652C452.66 583.349 449.026 583.452 444 584.812C442.686 585.771 441.731 586.468 440.876 587.271C438.599 589.412 437.036 592.313 431.313 602.938C428.349 608.487 425.123 613.864 421.875 619.25C420.686 621.216 419.227 623.384 417.676 625.687C411.613 634.689 404.154 645.766 406 655C409.12 662.131 416.561 666.175 423.549 669.048C423.888 669.183 424.227 669.317 424.567 669.452C430.963 671.985 437.543 674.59 442 680C444.831 688.64 443.942 698.079 443 707C439.791 708.022 436.976 709.014 434.028 710.664C432.439 711.672 430.851 712.68 429.26 713.685L427.528 714.777C425.767 715.894 424.002 716.999 422.216 718.075L420.442 719.129C419.295 719.816 418.148 720.502 417 721.188L413.875 723.043L413.642 723.202L413.314 723.424C409.829 725.786 406.459 728.07 405.442 732.352L405.563 734.625C405.597 735.814 405.614 736.385 405.674 736.952C405.729 737.477 405.822 737.997 406 739C407.685 741.526 409.19 744.082 410.664 746.732C415.006 754.549 419.481 762.285 424 770C424.374 770.635 424.747 771.27 425.12 771.905C427.592 776.107 430.063 780.309 432.427 784.572L433.723 786.953C434.505 788.384 435.285 789.816 436.063 791.25C438.418 795.751 440.616 799.211 445 802C449.461 802.89 453.858 802.201 457.835 799.972L459.879 798.707L462.158 797.304L464.563 795.812L464.686 795.737L464.688 795.736L464.69 795.734C467.797 793.829 470.904 791.923 474 790L477.235 787.938L479.813 786.312C480.893 785.575 481.409 785.222 481.957 784.926C482.459 784.654 482.987 784.43 484 784C487.165 783.571 488.658 783.821 491.504 785.309C493.137 786.415 494.791 787.492 496.465 788.535L498.938 790.062C501.679 791.77 504.1 793.034 507.163 794.088L510 795C509.939 799.658 509.887 804.316 509.854 808.975C509.842 810.879 509.828 812.783 509.813 814.688C509.775 817.489 509.737 820.291 509.72 823.093L509.707 825.762L509.7 826.181C509.621 830.382 509.555 833.932 511.206 837.89C514.148 841.349 516.764 842.86 521.308 843.374L525.114 843.372C527.323 843.384 529.532 843.391 531.741 843.378C533.319 843.368 534.898 843.363 536.476 843.363C539.773 843.366 543.07 843.365 546.367 843.35C550.648 843.327 554.93 843.31 559.212 843.316C562.556 843.321 565.901 843.321 569.246 843.314C570.842 843.309 572.439 843.305 574.036 843.301C576.327 843.303 578.619 843.304 580.911 843.29L583.016 843.275C583.178 843.274 583.339 843.274 583.498 843.274L583.799 843.273C587.613 843.269 590.71 843.266 594 841C597.446 836.3 598.456 832.893 598.454 827.108L598.391 824.566C598.373 821.838 598.351 819.11 598.302 816.382C598.267 814.49 598.24 812.598 598.22 810.705C598.182 806.324 598.137 801.942 598.064 797.561L598 794C603 794 607.248 791.252 611.243 788.398C616.496 784.563 619.472 783.288 626 784V786C627.577 786.459 628.313 786.674 628.998 786.998C629.597 787.283 630.157 787.653 631.206 788.347L631.207 788.348C635.895 791.433 640.625 794.457 645.433 797.351L647.25 798.438C652.111 801.388 655.287 802.679 661 802C665.784 800.408 667.893 798.278 670.371 793.912C671.152 792.461 671.947 791.018 672.754 789.582L674.094 787.203C676.152 783.497 678.259 779.826 680.407 776.172C682.81 772.09 685.2 768.001 687.575 763.902C689.233 761.038 690.895 758.178 692.585 755.333C693.561 753.693 694.53 752.049 695.491 750.4L696.813 748.125C700.328 742.343 702.408 736.908 702 730C700.137 728.136 698.863 726.863 697.49 725.708C694.528 723.215 691.103 721.272 680.288 715.139C679.081 714.454 677.875 713.768 676.669 713.079C673.868 711.476 671.066 709.877 668.26 708.282L666 707C664.77 698.129 663.54 688.735 666 680C669.813 676.51 671.735 674.75 673.904 673.379C676.111 671.985 678.573 670.995 683.538 668.996L686 668C686.383 667.818 686.767 667.637 687.152 667.455C693.244 664.579 699.458 661.646 702 655C702.674 651.066 703.07 647.528 700.707 644.152C698.957 641.945 697.611 639.64 696.248 637.179C690.778 627.227 685.06 617.417 679.309 607.625L679.266 607.552C677.734 604.95 676.203 602.349 674.688 599.738C674.284 599.041 673.887 598.342 673.491 597.644C670.461 592.308 667.5 587.093 662 584C657.799 583.23 655.559 583.187 651.78 585.158L649.414 586.648L646.76 588.291C643.166 590.517 639.513 592.632 635.852 594.744L633.125 596.312L630.328 597.939L627.633 599.488L627.615 599.499C624.796 601.127 622.265 602.589 619 603L618.799 602.799C616.18 600.178 615.004 599.001 611.25 597.75L608 597V595C605.441 593.903 603.053 593.011 600.325 592.434L598 592C598.042 587.342 598.076 582.684 598.098 578.025C598.106 576.121 598.115 574.217 598.125 572.312C598.151 569.511 598.176 566.709 598.187 563.907L598.196 561.238C598.199 560.97 598.203 560.702 598.208 560.434C598.212 560.208 598.216 559.983 598.22 559.758V559.754C598.304 555.277 598.384 551.026 596 547L593 546V544C591.491 543.497 590.741 543.247 589.971 543.106C589.211 542.968 588.431 542.936 586.882 542.873L582.99 542.871C580.735 542.865 578.48 542.861 576.225 542.864C574.611 542.866 572.998 542.867 571.384 542.866C568.024 542.864 564.664 542.862 561.304 542.866C556.928 542.872 552.551 542.875 548.175 542.87C544.763 542.865 541.351 542.863 537.939 542.864C536.312 542.866 534.686 542.867 533.059 542.867C530.714 542.864 528.37 542.861 526.025 542.865ZM598.161 641.551C609.984 651.024 618.943 667.08 621 682C622.789 703.333 619.259 720.18 605.614 736.93C596.926 746.994 587.278 753.047 575 758L572.43 759.039C557.903 763.912 540.893 761.939 527 756C522.825 753.898 518.907 751.56 515 749L512.391 747.562C509.896 745.932 508.479 744.327 506.773 742H507C506.378 740.844 506.051 740.236 505.698 739.643C505.308 738.986 504.887 738.347 504 737L502.278 736.426C501.869 735.989 501.444 735.556 501 735.125V734L499.05 733.025C487.974 720.019 486.26 702.177 486.653 685.742C486.96 678.945 488.147 673.232 491 667L492.286 664.168C495.835 657.099 500.499 650.688 506 645H508V643C531.323 622.738 560.82 621.369 586.541 634.46L586 635L593 639L593.343 638.315C594.969 639.335 596.576 640.413 598.161 641.551ZM556.295 648.688L553.688 648.75C547.941 648.784 543.004 648.925 537.555 650.875C524.948 656.168 516.629 665.015 510.907 677.359C507.566 686.578 507.358 698.948 511.098 708.066L512 710C512.544 711.321 513.107 712.633 513.688 713.938C514.357 715.22 515.113 716.652 515.958 718.112L515.317 719.797C515.154 720.928 515.075 721.479 515.201 721.977C515.321 722.449 515.624 722.875 516.215 723.703L517.938 725.25C518.947 726.179 519.965 727.1 521 728L523.338 727.221C524.258 727.892 525.229 728.429 526.25 728.785L528 729V731L530.375 732.25C531.585 732.831 532.793 733.415 534 734C537.282 735.827 540.337 737.114 544 738C549.881 738.503 555.41 738.492 560.693 737.722L561.875 737.625C562.173 737.602 562.455 737.582 562.721 737.563C563.211 737.528 563.652 737.497 564.058 737.457C563.705 737.636 563.353 737.817 563 738L565.125 738.75C566.438 738.864 567.27 738.937 568.058 738.782C569.419 738.516 570.648 737.573 574 735L572.761 734.38C576.485 732.796 580.119 730.677 583.707 727.922C592.492 719.602 598.442 708.425 599.246 696.285C599.466 683.167 596.236 671.713 587.145 661.949C583.565 658.696 579.894 655.922 576 653.766V651L569 649L568 650C568.37 650.247 568.734 650.48 569.095 650.702C565.131 649.37 560.901 648.66 556.295 648.688Z" fill="#E11D48"/>
<path fill-rule="evenodd" clip-rule="evenodd" d="M566 912H221C221 913.915 220.877 916.468 220.735 919.411C220.25 929.481 219.545 944.105 222.801 953.248L223.743 955.148L224.786 957.254L225.875 959.375C227.16 962.014 228.487 964.473 230 967L233 968V970C243.979 980.498 243.979 980.498 279.958 980.371C283.275 980.359 286.592 980.356 289.909 980.36C296.42 980.368 302.931 980.363 309.442 980.348C317.084 980.33 324.726 980.324 332.367 980.323C345.989 980.322 359.61 980.309 373.232 980.286C386.485 980.262 399.738 980.245 412.991 980.241L415.472 980.24L420.425 980.239L422.894 980.238L425.357 980.238C438.061 980.234 450.765 980.224 463.469 980.212C468.053 980.207 472.638 980.203 477.222 980.2C484.557 980.196 491.892 980.19 499.227 980.176L503.03 980.169L507.319 980.161C511.085 980.16 514.851 980.158 518.617 980.149L522.015 980.14L525.196 980.143L528.114 980.131C538.03 980.116 547.178 976.087 554.375 969.25C557.878 965.404 560.326 962.717 562.036 959.622C566 952.447 566 943.081 566 912ZM336.066 932.726L339.24 932.696L342.72 932.694L346.387 932.668C349.707 932.648 353.028 932.638 356.348 932.633C358.423 932.629 360.499 932.623 362.574 932.616C369.817 932.591 377.06 932.578 384.303 932.574C391.05 932.571 397.796 932.541 404.542 932.499C410.338 932.464 416.133 932.449 421.929 932.448C425.389 932.447 428.848 932.439 432.308 932.41C436.17 932.379 440.031 932.388 443.892 932.401L447.355 932.356C452.82 932.406 454.83 932.425 456.503 933.184C457.476 933.626 458.336 934.318 459.695 935.412C462.705 938.791 463.126 940.223 463.063 944.625L463.036 947.102L463 949H461L460.692 949.308C460.818 948.643 460.904 947.892 461 947H459L457 952H455L454 954L455.999 955C453.693 955.257 453.692 955.257 450.928 955.267L447.75 955.293L444.265 955.291L440.593 955.311C437.269 955.327 433.944 955.333 430.62 955.335C428.022 955.336 425.424 955.343 422.826 955.35L422.731 955.35L422.292 955.351C415.743 955.367 409.193 955.372 402.643 955.371C395.888 955.369 389.134 955.391 382.379 955.422C376.579 955.448 370.779 955.459 364.978 955.458C361.514 955.457 358.051 955.463 354.587 955.484C350.723 955.507 346.859 955.498 342.995 955.486L339.522 955.52C334.703 955.482 332.875 955.467 331.243 954.894C330.246 954.543 329.322 953.984 327.833 953.083C324.933 949.786 324.108 947.985 323.625 943.562C324.065 939.39 325.071 937.93 328 935C331.284 932.811 332.256 932.745 336.066 932.726Z" fill="#E11D48"/>
<path fill-rule="evenodd" clip-rule="evenodd" d="M0.000384897 0H721V158H0.000384897V0ZM85.5206 47.7048C86.9566 47.6933 88.3925 47.673 89.8283 47.6433C101.178 47.4097 111.715 48.0709 120.438 56.25C126.262 61.8614 129.71 67.9232 130.177 76.0935C130.232 79.3399 130.277 82.5855 130.296 85.8323C130.307 87.2197 130.327 88.6072 130.357 89.9944C130.538 98.4574 130.298 108.26 126.628 116.256L128 119C126.941 120.589 126.443 121.336 125.763 121.836C125.159 122.281 124.411 122.53 123 123L121 126L120.33 124.659L119.434 125.494L119 126L118.959 125.937L118.657 126.219C109.488 132.367 100.69 132.631 89.9872 132.521C87.5049 132.5 85.0255 132.521 82.5434 132.547C72.8443 132.564 64.1696 132.166 56.4981 126H55.0004L54.0004 128C53.254 127.134 52.8642 126.682 52.5038 126.207C52.1099 125.688 51.7512 125.143 51.0004 124L52.0004 121L52.3777 121.377C46.1834 112.86 45.1057 104.668 45.328 93.4841C45.3754 90.938 45.3691 88.3961 45.3559 85.8496C45.3918 75.6931 46.2316 67.6532 52.0004 59H54.0004L54.7035 57.1992C56.3314 54.4386 58.0007 53.4331 60.7504 51.8125L63.2973 50.2695C69.0727 47.5571 75.6076 47.6231 81.9624 47.6873C83.1569 47.6994 84.3451 47.7114 85.5206 47.7048ZM310.781 47.6843C312.93 47.6875 315.077 47.664 317.225 47.6387C328.713 47.5846 337.281 49.125 346 57C352.524 63.5522 354.311 68.8079 354.301 77.957L354.314 80.5685C354.32 82.3882 354.32 84.2079 354.316 86.0276C354.313 88.7929 354.336 91.5571 354.362 94.3223C354.364 96.0964 354.365 97.8704 354.364 99.6445L354.392 102.123C354.32 111.1 351.219 118.474 345 125C338.071 130.463 331.147 132.31 322.453 132.371L319.995 132.398C318.284 132.413 316.573 132.422 314.862 132.426C312.272 132.437 309.684 132.487 307.094 132.537C296.99 132.637 288.64 132.345 280.914 125.022C273.533 117.192 270.874 109.893 270.762 99.207L270.738 96.9462C270.724 95.3703 270.713 93.7944 270.705 92.2185C270.694 90.6234 270.673 89.0283 270.644 87.4333C270.506 79.9806 270.617 73.1664 272.894 66.8708C273.147 65.7066 273.428 65.1443 274 64H274.106C275.359 61.4254 277.045 58.9387 279.305 56.5312C279.779 56.1031 280.255 55.6956 280.733 55.3077L280.84 55.1849L280.897 55.1195C280.931 55.08 280.966 55.0402 281 55L281.023 55.0747C283.106 53.4209 285.227 52.1342 287.402 51.134L287 51C289.317 49.9411 291.253 49.3125 293.411 49.0711C298.775 47.7775 304.504 47.665 310.781 47.6843ZM189.969 48.6992L192.512 48.6862C194.277 48.6805 196.042 48.68 197.807 48.6843C200.493 48.6875 203.178 48.664 205.864 48.6387C207.586 48.6364 209.309 48.6357 211.032 48.6367L213.441 48.6088C221.491 48.675 227.982 51.6579 234 57C240.389 63.9603 242.307 70.7723 242.336 80.207L242.356 82.5265C242.367 84.1375 242.371 85.7486 242.371 87.3596C242.375 89.7958 242.412 92.2302 242.45 94.666C242.533 106.14 241.393 115.552 233.068 124.19C224.223 131.931 215.958 132.865 204.711 132.562C202.372 132.5 200.036 132.481 197.696 132.469C186.954 132.358 176.614 132.196 168 125C161.608 118.116 158.517 111.161 158.637 101.758L158.636 99.4311C158.638 97.8159 158.648 96.2006 158.664 94.5854C158.688 92.1387 158.685 89.693 158.678 87.2461C158.703 73.5348 158.712 68.4552 160.786 64.4427C162.006 62.0814 163.942 60.0896 167.016 56.9258C168.127 55.8734 169.21 54.9499 170.282 54.1406L170 54C174.033 51.5356 174.982 50.9557 175.977 50.4717C176.284 50.3228 176.594 50.1829 177 50L177.516 50.2579C181.154 49.0417 185.099 48.6936 189.969 48.6992ZM420.077 78.8714L422.678 78.8616L425.553 78.8663L428.594 78.8594C431.964 78.8531 435.333 78.8539 438.703 78.8547H438.746C441.163 78.8517 443.581 78.8483 445.998 78.8446C451.896 78.8366 457.794 78.8335 463.692 78.8329C468.485 78.8325 473.278 78.8304 478.071 78.8272C491.652 78.8184 505.233 78.8138 518.814 78.8146L521.034 78.8147L523.257 78.8148C535.146 78.8152 547.035 78.8057 558.924 78.7916C571.124 78.7772 583.324 78.7703 595.523 78.7711C602.376 78.7715 609.228 78.7687 616.08 78.758C622.524 78.7479 628.967 78.7482 635.41 78.7555C637.779 78.7565 640.147 78.7542 642.516 78.7481C645.742 78.7405 648.968 78.745 652.194 78.7528L655.055 78.7372L657.672 78.7511L659.929 78.7505C663.274 79.1534 665.399 80.3765 667.719 82.7812C670.098 86.9008 669.741 91.4067 669 96C665.958 99.6683 662.525 100.778 658 102C654.75 102.285 651.514 102.274 648.253 102.261L645.295 102.272C642.027 102.283 638.759 102.279 635.491 102.275C633.147 102.279 630.803 102.284 628.458 102.29C622.093 102.304 615.727 102.304 609.362 102.302C603.95 102.3 598.538 102.305 593.126 102.31L591.405 102.312C578.827 102.323 566.249 102.321 553.67 102.315C542.168 102.309 530.666 102.321 519.164 102.34C507.347 102.359 495.531 102.367 483.714 102.364C477.082 102.362 470.451 102.364 463.819 102.378C457.583 102.391 451.348 102.389 445.112 102.376C442.824 102.374 440.535 102.376 438.247 102.385C435.123 102.395 431.999 102.387 428.875 102.374L426.131 102.397C420.666 102.35 416.842 101.594 412 99C410.522 97.3783 409.65 95.7417 409.151 94H409L408.956 93.2282C408.543 91.3688 408.504 89.3794 408.571 87.1562C408.669 86.6646 408.792 86.2109 408.941 85.7883C409.182 84.6896 409.664 83.8665 410.5 82.4375L412 81C412.047 81.0235 412.093 81.0465 412.138 81.0689C412.244 81.122 412.344 81.1723 412.439 81.2204C412.926 80.821 413.448 80.4208 414 80C416.251 78.8746 417.503 78.8736 419.968 78.8715L420.077 78.8714Z" fill="#E11D48"/>
<path d="M300.123 70.353L303.934 70.3359L305.977 70.3214C307.402 70.318 308.827 70.3272 310.252 70.3481C312.428 70.3749 314.599 70.3484 316.776 70.3164C318.162 70.3197 319.548 70.3261 320.934 70.3359L324.748 70.353C326.398 70.6812 327.211 70.8429 327.926 71.1999C328.621 71.5468 329.224 72.078 330.413 73.1255C332.316 76.5716 332.489 78.7332 332.461 82.6562L332.45 86.5039L332.375 90.5L332.371 94.4961C332.307 101.529 332.285 103.924 331.626 106.128C331.285 107.265 330.775 108.352 330 110C325.516 110.124 321.033 110.214 316.548 110.275C315.023 110.3 313.499 110.334 311.974 110.377C309.779 110.438 307.586 110.466 305.391 110.488L301.392 110.568C299.645 110.275 298.798 110.133 298.055 109.776C297.355 109.439 296.748 108.911 295.569 107.885C293.697 104.443 293.498 102.25 293.504 98.3438L293.502 94.4961L293.563 90.5L293.541 86.5039C293.604 77.0203 293.626 73.6106 295.338 72.0317C296.299 71.1454 297.792 70.836 300.123 70.353Z" fill="#E11D48"/>
<path d="M192.067 70.5039L194.113 70.4995C195.536 70.5012 196.959 70.5127 198.382 70.5334C200.56 70.5625 202.735 70.554 204.912 70.541C206.297 70.5473 207.682 70.5556 209.067 70.5664L212.878 70.5959C214.706 70.8326 215.464 70.9306 216.161 71.1914C216.654 71.3759 217.117 71.6418 217.907 72.0959C219.42 74.7304 219.425 77.0553 219.43 79.9422C219.431 80.254 219.431 80.5724 219.434 80.8984L219.45 82.9347C219.456 84.3552 219.455 85.7758 219.446 87.1963C219.438 89.361 219.467 91.5231 219.498 93.6875C219.5 95.0703 219.499 96.4531 219.496 97.8359L219.502 101.634C218.9 105.676 218.075 107.314 215 110C213.532 110.295 212.75 110.452 211.959 110.535C211.057 110.631 210.144 110.63 208.188 110.629L206.216 110.636C204.844 110.635 203.472 110.622 202.101 110.597C200.006 110.563 197.916 110.576 195.821 110.596C194.485 110.589 193.149 110.579 191.813 110.566L188.145 110.533C186.495 110.254 185.711 110.12 184.992 109.827C184.342 109.561 183.745 109.163 182.608 108.404C180.489 105.235 180.482 103.004 180.47 99.2948L180.469 98.9688L180.458 96.9296C180.455 95.5108 180.462 94.092 180.479 92.6733C180.5 90.5063 180.479 88.3427 180.454 86.1758C180.456 84.7943 180.461 83.4127 180.469 82.0312L180.483 78.2363C180.757 76.52 180.886 75.7139 181.184 74.976C181.448 74.3226 181.844 73.7227 182.592 72.5916C185.77 70.4913 188.015 70.4958 191.716 70.5033L192.067 70.5039Z" fill="#E11D48"/>
<path fill-rule="evenodd" clip-rule="evenodd" d="M412.439 81.2204C414.009 82.0168 414.114 82.2126 415.438 84.6875L415.438 84.6888C415.787 86.7415 415.919 87.5218 415.751 88.2306C415.648 88.6652 415.431 89.0729 415.082 89.7305C414.605 90.3194 414.299 90.6975 413.976 91.0607C413.398 91.7117 412.766 92.3151 411 94H409.151H409L408.956 93.2282C408.543 91.3688 408.504 89.3794 408.571 87.1562C408.669 86.6646 408.792 86.2109 408.941 85.7883C409.182 84.6896 409.664 83.8665 410.5 82.4375L412 81L412.138 81.0689C412.244 81.122 412.344 81.1723 412.439 81.2204ZM287 51C289.317 49.9411 291.253 49.3125 293.411 49.0711C294.521 48.9469 295.69 48.9251 297 49L293 51V54H290V52L287.402 51.134L287 51ZM281 55L281.023 55.0747C282.125 58.7501 282.118 58.765 281 61H278L277 63C277 59.5313 278.186 58.19 280.197 55.916C280.369 55.7207 280.548 55.5186 280.733 55.3077L280.84 55.1849L280.897 55.1195L281 55ZM274 64H274.106H277C276.819 65.1779 276.726 65.7866 276.607 66.3903C276.479 67.0359 276.323 67.6758 276 69L274 70L272 73C272.43 69.6828 272.649 67.9958 272.894 66.8708C273.147 65.7066 273.428 65.1443 274 64ZM177.516 50.2579L179 51C175.556 54.5352 174.609 55.5068 173.491 56.2028C173.067 56.4666 172.619 56.6908 172 57V55L170.282 54.1406L170 54C174.033 51.5356 174.982 50.9557 175.977 50.4717C176.284 50.3228 176.594 50.1829 177 50L177.516 50.2579ZM168 59L166 58L162 63L164 65L167 64L168 59ZM52.0004 121L52.3777 121.377L57.0004 126H56.4981H55.0004L54.0004 128C53.254 127.134 52.8642 126.682 52.5038 126.207C52.1099 125.688 51.7512 125.143 51.0004 124L52.0004 121ZM119 126L118.959 125.937L117 123L123 118L124.715 118.857L126 115L126.628 116.256L128 119C126.941 120.589 126.443 121.336 125.763 121.836C125.159 122.281 124.411 122.53 123 123L121 126L120.33 124.659L119.434 125.494L119 126Z" fill="#050505"/>
<path d="M87.8754 70.8125L91.7934 70.7754L95.5551 70.7695L99.0077 70.7571C101.931 70.9944 103.582 71.382 106 73C107.238 75.4749 107.185 77.7529 107.125 80.3578C107.113 80.8827 107.1 81.4208 107.098 81.9766L107.094 84.0531C107.088 86.2438 107.076 88.4343 107.063 90.625C107.058 92.1094 107.053 93.5937 107.049 95.0781C107.038 98.7188 107.021 102.359 107 106H105L104 109C100.736 110.632 96.701 110.474 92.8918 110.324C91.7748 110.28 90.6772 110.237 89.6242 110.24C87.574 110.25 85.5249 110.281 83.475 110.312L79.5668 110.328L75.9713 110.356C74.3084 110.157 73.5762 110.069 72.9299 109.786C72.4214 109.563 71.966 109.219 71.1525 108.604C68.387 104.753 68.5397 100.093 68.6914 95.4669C68.7273 94.3711 68.7631 93.2773 68.7601 92.1965C68.7504 90.074 68.7194 87.9524 68.6879 85.8301C68.6814 84.4818 68.6761 83.1335 68.6723 81.7852L68.6439 78.0627C68.8455 76.3305 68.9331 75.578 69.2236 74.9143C69.4468 74.4045 69.7896 73.9472 70.3959 73.1384C74.3949 70.3011 79.3351 70.5073 84.1742 70.7093C85.4206 70.7614 86.6602 70.8131 87.8754 70.8125Z" fill="#E11D48"/>
<path fill-rule="evenodd" clip-rule="evenodd" d="M875.844 91.4782L876 92H877L879 85L876 84L877 81H874L873 82L873.085 82.282L875.844 91.4782Z" fill="#010101"/>
<path fill-rule="evenodd" clip-rule="evenodd" d="M744 0H924V158H744V0ZM793.66 78.823L796.055 78.8031C798.677 78.7833 801.3 78.7717 803.922 78.7617L806.635 78.7494C811.376 78.7285 816.116 78.7142 820.856 78.7048C825.75 78.6938 830.643 78.6594 835.537 78.6197C839.301 78.5935 843.066 78.5851 846.83 78.5816C848.634 78.5767 850.437 78.5651 852.241 78.5465C854.769 78.5221 857.296 78.5231 859.824 78.53L862.072 78.4912C866.78 78.5382 869.583 79.6196 873.085 82.282L873 82L874 81H877L876 84L879 85L877 92H876L875.844 91.4782C875.095 95.4511 873.389 97.4393 870 100C865.398 101.898 861.471 102.253 856.514 102.259L854.319 102.269C851.94 102.278 849.562 102.272 847.184 102.266C845.523 102.267 843.862 102.269 842.201 102.271C838.727 102.274 835.253 102.27 831.779 102.261C827.331 102.249 822.884 102.256 818.437 102.268C815.009 102.275 811.582 102.273 808.155 102.268C806.515 102.266 804.875 102.268 803.235 102.273C800.943 102.278 798.65 102.27 796.358 102.259L792.409 102.254C787.425 101.883 784.874 100.796 781.188 97.4375C778.643 94.1415 778.279 91.2206 778.5 87.1211C779.308 83.6947 781.274 82.0771 784 80C786.554 78.7233 789.213 78.7647 791.975 78.8076C792.532 78.8163 793.094 78.825 793.66 78.823Z" fill="#E11D48"/>
<path fill-rule="evenodd" clip-rule="evenodd" d="M919.651 723.397C921.452 719.103 922.622 714.652 923.36 710H923L919.651 723.397ZM861.771 753.113L861.065 753.113L860.585 753.114C860.98 753.114 861.375 753.113 861.771 753.113ZM683.241 695.686C683.226 695.661 683.21 695.636 683.195 695.61L685 692H687C687.837 690.97 688.243 690.471 688.628 689.955C688.99 689.47 689.333 688.97 690 688L688 687C686.121 687.761 685.586 687.977 684.562 688.75C683.463 689.759 682.718 690.989 682.137 693.02C682.456 694.122 682.81 694.977 683.241 695.686ZM839 676.47V677L840.531 676.388L840 677L843 680L846 679L845.313 677.25C845.037 676.119 844.893 675.527 845.003 674.987C845.123 674.394 845.547 673.863 846.438 672.75L848 671L846 668C845.543 669.674 845.35 670.379 844.997 671.008L845 671C844.855 671 844.719 671 844.59 671.001C844.163 671.984 843.64 672.977 843 674C841.535 675.162 840.343 675.934 839 676.47ZM705 704L707 705V707L711 706L712 711C707.486 711 705.871 709.822 702.475 707.346C702.468 707.341 702.461 707.336 702.454 707.331C702.307 707.223 702.155 707.113 702 707L705 706V704ZM705 680L703.063 680.875C701.939 681.359 701.386 681.597 701.003 681.998C700.63 682.387 700.418 682.93 700 684C698.357 684.722 696.69 685.394 695 686L693 684C694.43 683.134 695.87 682.282 697.313 681.438L699.739 679.996C700.747 679.552 701.305 679.306 701.881 679.258C702.596 679.199 703.337 679.446 705 680ZM695 702H702L703 705L700 706C698.613 705.29 697.941 704.947 697.298 704.557C696.696 704.192 696.119 703.786 695 703V702Z" fill="black"/>
<path fill-rule="evenodd" clip-rule="evenodd" d="M924 181H847C846.956 226.654 846.911 272.308 846.844 317.961L846.841 320.033C846.82 334.902 846.798 349.771 846.775 364.64C846.764 371.939 846.752 379.238 846.741 386.537L846.738 388.739C846.702 412.319 846.675 435.899 846.654 459.479C846.632 483.75 846.603 508.022 846.559 532.293L846.541 542.573L846.537 544.618C846.518 555.47 846.507 566.323 846.503 577.175C846.498 587.523 846.486 597.87 846.464 608.217L846.459 610.145C846.446 615.473 846.433 620.802 846.433 626.131C846.437 631.67 846.437 637.209 846.419 642.748C846.411 644.762 846.405 646.776 846.399 648.79C846.407 651.575 846.414 654.359 846.401 657.143L846.385 659.656C846.42 663.954 846.147 667.412 844.59 671.001C844.719 671 844.855 671 845 671L844.997 671.008C845.35 670.379 845.543 669.674 846 668L848 671L846.438 672.75C845.547 673.863 845.123 674.394 845.003 674.987C844.893 675.527 845.037 676.119 845.313 677.25L846 679L843 680L840 677L840.531 676.388L839 677V676.47C837.936 676.895 836.776 677.171 835.309 677.376L832.352 677.379L828.941 677.403C826.392 677.391 823.843 677.39 821.294 677.401C819.201 677.41 817.109 677.415 815.016 677.414C810.585 677.407 806.155 677.411 801.724 677.429C792.308 677.47 782.893 677.487 773.477 677.497C763.209 677.509 752.942 677.52 742.674 677.561C738.216 677.58 733.757 677.596 729.298 677.589C727.162 677.586 725.025 677.584 722.889 677.59L716.903 677.615C711.049 677.586 705.813 677.282 700.323 679.457L698 681C696.028 682.027 694.08 683.081 692.141 684.17L690.125 685.312L688.039 686.42C686.58 687.258 685.455 687.932 684.562 688.75C685.586 687.977 686.121 687.761 688 687L690 688C689.333 688.97 688.99 689.47 688.628 689.955C688.243 690.471 687.837 690.97 687 692H685L683.195 695.61C683.21 695.636 683.226 695.661 683.241 695.686C684.189 697.245 685.512 698.097 687.675 699.321C689.038 700.035 690.389 700.769 691.73 701.522L693.813 702.695C697.08 704.487 700.315 706.317 703.509 708.237L705.188 709.25C708.28 711.011 708.28 711.011 711 713C718.882 721.821 720.815 730.335 721 742H719C718.045 744.935 717.065 747.836 715.93 750.707L715 753C735.428 753.022 755.856 753.04 776.283 753.05C786.216 753.055 796.148 753.061 806.08 753.072C814.803 753.082 823.526 753.09 832.248 753.093C836.857 753.095 841.465 753.095 846.074 753.101C850.48 753.108 854.887 753.114 859.293 753.114L860.585 753.114L861.065 753.113L861.771 753.113L864.173 753.114C866.434 753.119 868.696 753.125 870.958 753.123L873.015 753.12C886.757 753.131 898.998 748.823 909.063 739.375C913.938 734.242 917.322 728.949 919.651 723.397L923 710H923.36C924.291 704.135 924.537 697.949 924.5 691.348C924.487 689.23 924.482 687.113 924.484 684.996C924.498 679.13 924.497 673.265 924.477 667.4C924.456 660.998 924.452 654.596 924.454 648.195C924.46 636.374 924.451 624.553 924.428 612.733C924.404 600.982 924.385 589.232 924.381 577.482L924.38 575.267C924.378 571.555 924.377 567.842 924.376 564.129C924.368 537.857 924.343 511.585 924.306 485.314C924.269 459.754 924.239 434.195 924.222 408.635L924.22 406.244C924.215 398.316 924.21 390.388 924.205 382.46C924.194 366.293 924.183 350.127 924.171 333.961L924.17 331.707C924.133 281.471 924.068 231.236 924 181ZM707 705L705 704V706L702 707C702.155 707.113 702.307 707.223 702.454 707.331L702.475 707.346C705.871 709.822 707.486 711 712 711L711 706L707 707V705ZM703.063 680.875L705 680C703.337 679.446 702.596 679.199 701.881 679.258C701.305 679.306 700.747 679.552 699.739 679.996L697.313 681.438C695.87 682.282 694.43 683.134 693 684L695 686C696.69 685.394 698.357 684.722 700 684C700.418 682.93 700.63 682.387 701.003 681.998C701.386 681.597 701.939 681.359 703.063 680.875ZM702 702H695V703C696.119 703.786 696.696 704.192 697.298 704.557C697.941 704.947 698.613 705.29 700 706L703 705L702 702Z" fill="#E11D48"/>
<path fill-rule="evenodd" clip-rule="evenodd" d="M687.075 585.568C688.085 587.37 689.099 589.167 690.131 590.956L693 590C693.622 588.658 693.918 588.019 694.176 587.365C694.411 586.769 694.613 586.161 695 585L687 584C687 584.656 687 585.121 687.075 585.568ZM613.651 543H614C613.464 539.247 611.836 537.566 609.094 535.085C611.215 537.627 612.662 540.26 613.651 543ZM582.132 433.658C582.628 432.361 582.654 432.196 583 430C582.11 426.576 581.517 424.517 579 422L578.86 422.281C580.337 425.947 581.395 429.733 582.132 433.658ZM574.902 414.418C574.79 414.237 574.678 414.055 574.564 413.874L575 413L571.5 409.5C572.752 411.117 573.883 412.755 574.902 414.418ZM225.676 399.747C225.447 399.935 225.218 400.126 224.99 400.32C225 399.949 225 399.52 225 399L218 406L218.259 406.259C218.799 405.723 219.346 405.211 219.899 404.727L222 403C223.224 401.847 224.441 400.763 225.676 399.747ZM203.07 633.336C203.057 637.34 203.045 641.345 203.033 645.35L203.033 645.414C203.045 641.388 203.057 637.362 203.07 633.336Z" fill="black"/>
<path d="M824 181H100V656H203L203.033 645.414L203.033 645.35L203.07 633.336C203.123 615.888 203.179 598.441 203.245 580.994C203.267 575.182 203.289 569.371 203.31 563.56L203.318 561.536C203.355 551.483 203.388 541.43 203.417 531.377C203.448 520.3 203.484 509.224 203.528 498.148L203.535 496.354C203.558 490.749 203.582 485.143 203.596 479.538C203.609 473.605 203.624 467.671 203.651 461.738C203.662 459.55 203.672 457.362 203.682 455.174V455.164C203.684 452.121 203.687 449.078 203.704 446.035L203.722 443.27C203.716 440.877 203.733 438.493 203.81 436.102C204.739 425.832 210.766 413.703 218.259 406.259L218 406L225 399C225 399.52 225 399.949 224.99 400.32C225.218 400.126 225.447 399.935 225.676 399.747C229.38 396.697 233.243 394.253 237.92 392.358L240 391.562C248.573 388.254 257.232 387.891 266.351 387.866L269.444 387.873C272.985 387.868 276.526 387.865 280.067 387.867C283.327 387.87 286.587 387.87 289.847 387.867C296.242 387.862 302.637 387.861 309.032 387.864C314.274 387.866 319.516 387.867 324.759 387.867L327.018 387.866L331.565 387.865C345.761 387.862 359.957 387.864 374.154 387.87C386.37 387.874 398.586 387.875 410.802 387.871C425.053 387.865 439.305 387.862 453.556 387.865L458.117 387.866L460.384 387.866C465.637 387.867 470.89 387.867 476.143 387.865C482.603 387.862 489.063 387.861 495.523 387.865C498.178 387.868 500.833 387.869 503.487 387.871H503.535C507.219 387.867 510.903 387.864 514.587 387.868L517.938 387.873C536.9 387.832 553.597 391.938 567.875 405.25C569.184 406.65 570.39 408.066 571.5 409.5L575 413L574.564 413.874C574.678 414.055 574.79 414.237 574.902 414.418C576.472 416.98 577.778 419.598 578.86 422.281L579 422C581.517 424.517 582.11 426.576 583 430C582.654 432.196 582.628 432.361 582.132 433.658C583.215 439.431 583.603 445.504 583.609 451.936C583.609 453.903 583.617 455.869 583.632 457.835C583.68 463.009 583.714 468.183 583.729 473.357C583.745 478.711 583.777 484.065 583.816 489.418C583.894 499.833 583.952 510.249 583.989 520.664L584 524L586.043 524.162L588.743 524.398C596.567 525.056 602.41 528.522 608.057 533.907C608.419 534.298 608.765 534.69 609.094 535.085C611.836 537.566 613.464 539.247 614 543H613.651C615.671 548.598 615.778 554.643 615.805 561.281C615.81 562.862 615.825 564.442 615.848 566.023C615.911 569.695 615.966 573.366 615.988 577.038L616 580C618 581 618 581 620.25 581.812C623 582 623 582 625.563 580.5C629.519 577.563 633.719 575.124 637.996 572.684L641 571C649.554 565.985 658.631 565.839 668.313 567.562C677.361 571.09 682.066 576.889 686.844 585.156L687.075 585.568C687 585.121 687 584.656 687 584L695 585C694.613 586.161 694.411 586.769 694.176 587.365C693.918 588.019 693.622 588.658 693 590L690.131 590.956L690.258 591.176L690.378 591.382C692.187 594.486 693.995 597.59 695.788 600.704C698.039 604.616 700.3 608.52 702.61 612.398C704.277 615.194 705.93 617.996 707.567 620.809C708.376 622.207 709.188 623.604 710 625C711.299 627.175 712.592 629.351 713.849 631.55L715.063 633.688C716.773 636.496 717.791 638.835 719 642L720 656H824V181Z" fill="#E11D48"/>
</g>
<defs>
<clipPath id="clip0_1675_140">
<rect width="924" height="980" fill="white"/>
</clipPath>
</defs>
</svg>
