<svg width="684" height="684" viewBox="0 0 684 684" fill="none" xmlns="http://www.w3.org/2000/svg">
<g clip-path="url(#clip0_1674_71)">
<path d="M160.1 2.36653C148.633 6.49987 140.1 16.3665 137.833 28.3665C137.167 32.3665 136.5 45.6999 136.5 57.9665V80.4999H81.4334H26.3667L19.4334 83.9665C15.5667 85.8332 10.7667 89.5665 8.50008 92.2332C-0.0332525 102.633 0.500081 87.5665 0.766747 327.167L1.16675 545.167L4.10008 550.633C5.70008 553.567 9.30008 558.1 11.9667 560.5C22.5001 569.7 15.3001 569.167 132.9 569.567L239.3 569.967L238.5 574.233C235.7 586.9 228.767 599.967 219.033 610.5C213.7 616.367 213.3 616.5 205.3 616.5C192.5 616.633 181.3 623.3 175.7 634.1C172.633 639.967 171.833 651.3 173.967 658.767C176.233 667.033 186.767 677.833 194.633 680.233C198.767 681.433 234.5 681.833 342.1 681.833C503.033 681.833 491.967 682.633 502.233 671.167C521.833 649.433 507.433 616.633 478.367 616.5C470.367 616.5 469.967 616.367 464.633 610.5C454.9 599.967 447.967 586.9 445.167 574.233L444.367 569.967L550.767 569.567C668.367 569.167 661.167 569.7 671.7 560.5C674.367 558.1 677.967 553.567 679.567 550.633L682.5 545.167L682.9 327.167C683.167 87.8332 683.7 103.3 675.167 92.4999C672.9 89.6999 667.967 85.8332 664.233 83.9665L657.3 80.4999H581.967H506.633L469.167 43.4332C446.233 20.4999 429.833 5.29987 426.5 3.69987C421.3 1.29987 416.367 1.16653 293.167 0.899867C188.5 0.6332 164.233 0.899867 160.1 2.36653ZM409.833 64.7665C409.833 87.9665 410.367 108.633 411.167 111.167C413.433 119.433 419.833 127.967 426.767 132.1L433.167 135.833L478.5 136.5L523.833 137.167V281.567V426.1L520.1 429.3L516.367 432.5H341.833H167.3L163.567 429.3L159.833 426.1L159.433 232.233C159.3 125.7 159.433 36.4999 159.833 33.9665C160.367 31.5665 162.1 28.0999 163.833 26.3665L167.033 23.1665H288.5H409.833V64.7665ZM471.167 77.1665L507.833 113.833H473.833C438.1 113.7 437.3 113.567 434.1 107.567C432.233 104.233 431.833 40.4999 433.567 40.4999C434.1 40.4999 451.033 57.0332 471.167 77.1665ZM136.767 266.1C137.167 421.833 137.3 429.433 139.7 434.9C142.767 441.967 153.167 451.433 160.233 453.567C164.1 454.767 209.567 455.167 342.1 455.167C539.7 455.167 525.567 455.833 536.1 445.567C547.3 434.633 546.5 446.9 546.5 277.167V126.5L542.9 120.5C540.767 117.167 537.033 111.967 534.367 108.767L529.433 103.167H591.3C656.5 103.3 655.567 103.167 658.9 109.433C660.1 111.567 660.5 160.1 660.5 301.033V489.833H385.167H109.7L106.5 493.167C103.167 496.367 102.233 501.833 103.967 506.5C106.367 512.767 93.7001 512.5 386.5 512.5H660.5V525.833C660.5 538.233 660.233 539.567 657.3 542.5C655.567 544.233 652.1 545.967 649.7 546.5C647.167 546.9 506.633 547.033 337.433 546.9L29.5667 546.5L26.3667 542.767C23.4334 539.3 23.1667 537.833 23.1667 525.7V512.5H47.7001C71.7001 512.5 72.5001 512.367 75.9668 509.3C81.1668 504.9 81.1668 497.433 75.9668 493.033C72.5001 489.967 71.7001 489.833 47.7001 489.833H23.1667V301.033C23.1667 160.1 23.5667 111.567 24.7667 109.433C27.9667 103.167 27.7001 103.3 83.4334 103.167H136.5L136.767 266.1ZM425.433 578.633C427.3 588.367 432.633 601.833 437.167 608.767C439.033 611.567 440.5 614.367 440.5 615.167C440.5 616.1 408.1 616.5 341.833 616.5C271.167 616.5 243.167 616.1 243.167 615.033C243.167 614.233 244.367 611.833 245.833 609.833C250.1 603.967 254.9 592.1 257.3 582.1C258.5 577.167 259.7 572.367 259.967 571.433C260.367 570.1 277.433 569.833 342.1 570.1L423.7 570.5L425.433 578.633ZM484.367 638.5C491.833 642.233 492.767 651.967 486.233 658.1L482.9 661.167H341.833H200.767L197.433 658.1C191.033 652.1 191.833 642.367 199.033 638.5C204.367 635.567 478.767 635.567 484.367 638.5Z" fill="#E11D48"/>
<path d="M195.7 48.3666C192.634 49.6999 188.767 52.8999 187.034 55.2999L183.834 59.8332L183.434 146.9C183.167 232.9 183.167 234.1 185.834 238.9C187.434 241.7 190.767 245.433 193.434 247.167L198.367 250.5L281.7 250.9C338.767 251.167 366.767 250.9 370.1 249.833C376.5 247.967 383.034 242.5 385.3 236.9C388.1 230.5 387.967 66.3666 385.3 60.0999C383.167 54.8999 377.167 49.1666 372.1 47.2999C369.567 46.3666 340.634 45.8332 284.767 45.8332C206.1 45.8332 200.9 46.0999 195.7 48.3666ZM364.5 111.433V154.5L345.567 135.567C335.034 125.167 324.767 115.967 322.634 115.167C316.1 112.767 312.367 115.433 297.167 134.633L282.767 152.633L275.967 145.967C268.1 138.233 263.3 135.967 258.634 137.833C256.767 138.5 244.234 151.967 230.634 167.833L205.834 196.633V132.633V68.4999H285.167H364.5V111.433ZM364.5 208.1V228.5H287.167C244.634 228.5 209.834 228.1 209.834 227.7C209.834 226.633 261.967 165.833 262.9 165.833C263.3 165.833 270.1 172.1 277.834 179.833C292.767 194.5 294.767 195.433 301.7 191.833C308.634 188.367 309.167 180.233 303.167 173.433L299.167 168.9L309.434 155.967L319.7 143.033L342.1 165.433L364.5 187.833V208.1Z" fill="#E11D48"/>
<path d="M234.5 92.7663C224.233 98.7663 227.967 113.833 239.7 113.833C245.967 113.833 251.833 107.166 250.633 101.3C250.1 99.033 248.767 96.0997 247.433 94.8997C244.367 91.833 237.833 90.7663 234.5 92.7663Z" fill="#E11D48"/>
<path d="M189.034 286.367C182.234 289.433 180.767 299.167 186.234 304.233C189.3 307.033 190.234 307.167 222.367 307.167H255.3L258.5 303.833C263.034 299.433 263.034 292.767 258.367 288.367C255.034 285.167 254.767 285.167 224.1 284.9C200.234 284.633 192.234 284.9 189.034 286.367Z" fill="#E11D48"/>
<path d="M291.033 286.5C284.233 290.233 283.167 297.967 288.9 304.1L291.567 307.167H393.167H494.767L497.567 304.1C500.633 300.767 501.433 294.1 499.167 289.833C496.367 284.633 492.633 284.5 391.967 284.5C311.3 284.633 293.967 284.9 291.033 286.5Z" fill="#E11D48"/>
<path d="M191.834 330.766C183.167 332.9 180.1 343.833 186.634 349.966L190.1 353.166L287.3 353.566C353.567 353.833 386.367 353.433 389.967 352.5C394.1 351.3 395.834 349.966 397.434 346.5C399.567 342.233 399.567 341.433 397.434 337.3C395.834 333.833 393.967 332.366 390.234 331.3C385.167 329.833 197.567 329.433 191.834 330.766Z" fill="#E11D48"/>
<path d="M430.233 330.767C426.1 331.567 421.833 337.433 421.833 341.967C421.833 343.967 423.3 347.433 425.033 349.433L428.233 353.167H460.9H493.567L497.034 349.967C501.834 345.433 501.834 338.233 497.034 333.7C493.7 330.5 493.433 330.5 463.433 330.367C446.767 330.233 431.833 330.367 430.233 330.767Z" fill="#E11D48"/>
</g>
<defs>
<clipPath id="clip0_1674_71">
<rect width="682.667" height="682.667" fill="white" transform="translate(0.5 0.5)"/>
</clipPath>
</defs>
</svg>
