<svg width="250" height="201" viewBox="0 0 250 201" fill="none" xmlns="http://www.w3.org/2000/svg">
<g clip-path="url(#clip0_1676_891)">
<path d="M17.7174 0.85282C18.5234 0.849144 19.3294 0.845467 20.1598 0.841679C22.8759 0.830616 25.5919 0.826794 28.308 0.822989C30.2493 0.816727 32.1906 0.81008 34.1318 0.803077C39.4171 0.785649 44.7023 0.77511 49.9875 0.766871C53.2879 0.761725 56.5882 0.755649 59.8885 0.74936C70.2095 0.730303 80.5305 0.716073 90.8515 0.707748C102.775 0.697973 114.697 0.671648 126.62 0.631247C135.83 0.60111 145.039 0.586281 154.249 0.582967C159.752 0.580614 165.255 0.571618 170.758 0.546506C175.936 0.523262 181.113 0.518977 186.291 0.529267C188.191 0.529764 190.091 0.523413 191.992 0.509711C194.587 0.492046 197.18 0.499071 199.775 0.512244C200.527 0.501275 201.279 0.490306 202.053 0.479004C207.177 0.541778 210.044 1.7925 214 4.99999C218.507 10.0693 218.557 14.3144 218.454 20.769C218.455 21.7355 218.456 22.702 218.456 23.6978C218.453 26.8796 218.422 30.0605 218.391 33.2422C218.384 35.4532 218.378 37.6642 218.374 39.8753C218.359 45.6852 218.319 51.4948 218.275 57.3046C218.234 63.2369 218.216 69.1692 218.196 75.1016C218.153 86.7345 218.085 98.3672 218 110C213.798 108.151 210.943 105.816 207 103C207 82.87 207 62.74 207 42C141.99 42 76.9804 42 10.0004 42C10.1241 63.9037 10.2479 85.8075 10.3754 108.375C10.4094 115.3 10.4434 122.226 10.4784 129.361C10.5183 135.549 10.5183 135.549 10.5608 141.738C10.5786 144.502 10.5931 147.266 10.6031 150.03C10.6184 154.208 10.6494 158.386 10.6815 162.564C10.6837 163.803 10.6859 165.042 10.6881 166.318C10.6993 167.437 10.7104 168.557 10.7219 169.71C10.7274 170.689 10.733 171.668 10.7387 172.677C10.7776 175.193 10.7776 175.193 13.0004 177C15.4605 177.289 15.4605 177.289 18.3679 177.218C19.5075 177.216 20.6471 177.214 21.8212 177.212C23.0778 177.2 24.3344 177.188 25.6291 177.176C27.6537 177.169 29.6783 177.162 31.703 177.156C33.8845 177.148 36.066 177.135 38.2475 177.122C42.8 177.095 47.3523 177.091 51.9048 177.092C53.4643 177.092 55.0237 177.092 56.5832 177.092C57.7549 177.092 57.7549 177.092 58.9504 177.092C69.5497 177.091 80.1486 177.072 90.7477 177.004C97.8951 176.957 105.042 176.943 112.189 176.965C115.969 176.976 119.747 176.97 123.527 176.924C127.09 176.882 130.652 176.881 134.216 176.912C136.131 176.918 138.045 176.879 139.96 176.839C148.439 176.969 152.812 179.281 159.079 184.972C161 187 161 187 161 188C141.416 188.093 121.832 188.164 102.247 188.207C93.1539 188.228 84.0606 188.256 74.9672 188.302C67.0411 188.342 59.1151 188.367 51.1889 188.376C46.9923 188.382 42.7959 188.394 38.5994 188.423C34.648 188.45 30.6971 188.458 26.7457 188.452C25.2968 188.454 23.848 188.461 22.3993 188.477C20.4178 188.497 18.4361 188.49 16.4545 188.481C14.7925 188.487 14.7925 188.487 13.0969 188.492C8.44894 187.753 5.31402 185.45 2.18789 182C-0.222525 177.94 -0.128418 174.03 -0.140053 169.378C-0.143024 168.714 -0.145995 168.05 -0.149056 167.366C-0.157723 165.142 -0.15925 162.918 -0.160744 160.694C-0.165374 159.099 -0.170398 157.504 -0.175789 155.909C-0.188901 151.576 -0.195357 147.243 -0.199801 142.91C-0.202733 140.203 -0.206837 137.495 -0.211304 134.787C-0.224976 126.313 -0.234645 117.839 -0.238507 109.365C-0.242987 99.5872 -0.260537 89.8094 -0.289507 80.0315C-0.31113 72.4704 -0.32121 64.9094 -0.322546 57.3483C-0.323594 52.8337 -0.329491 48.3193 -0.347367 43.8048C-0.363859 39.5571 -0.365997 35.3097 -0.357228 31.062C-0.356458 29.5056 -0.360792 27.9492 -0.370686 26.3928C-0.38343 24.2626 -0.377516 22.1332 -0.367104 20.003C-0.36857 18.8126 -0.370037 17.6222 -0.371548 16.3958C0.199433 11.1827 1.6314 7.26881 5.56289 3.62499C9.72647 0.849268 12.8282 0.851635 17.7174 0.85282Z" fill="#E11D48"/>
<path d="M193 130C196.028 132.335 198.693 134.614 201.125 137.562C204.093 141.043 207.243 144.292 210.5 147.5C214.219 151.168 217.737 154.932 221.125 158.906C223.935 162.044 226.95 164.971 229.947 167.927C233.236 171.189 236.313 174.561 239.301 178.098C241.215 180.24 243.278 182.162 245.375 184.125C247.855 186.586 248.947 187.857 250.188 191.188C249.94 194.896 248.629 197.371 246 200C241.227 200.712 238.76 200.17 234.793 197.395C233.245 196.217 231.711 195.022 230.188 193.812C228.494 192.516 226.8 191.22 225.105 189.926C224.253 189.267 223.4 188.607 222.521 187.928C218.74 185.036 214.873 182.268 211 179.5C204.596 174.893 198.225 170.243 191.875 165.562C191.105 164.995 190.336 164.428 189.543 163.844C184.678 160.252 179.832 156.635 175 153C176 150 176 150 178.938 147.688C184.818 142.898 188.77 136.214 193 130Z" fill="#E11D48"/>
<path d="M100 72C100.735 72.3983 100.735 72.3983 101.484 72.8047C107.6 75.6938 113.343 76.5119 120 77.0625C136.987 78.4998 136.987 78.4998 142.938 83.4375C143.958 84.7059 143.958 84.7059 145 86C145.577 86.6806 146.155 87.3612 146.75 88.0625C149.796 92.7836 149.472 98.5781 149 104C147.333 108.738 145.146 111.201 141 114C135.469 115.844 129.935 115.567 124.375 113.938C113.696 107.807 108.012 99.2051 103.688 87.9375C103.305 86.9467 103.305 86.9467 102.916 85.9358C101.227 81.2889 100.466 76.922 100 72Z" fill="#E11D48"/>
<path d="M156 109C161.717 111.175 167.036 114.045 172.431 116.913C173.648 117.556 174.868 118.194 176.091 118.827C177.864 119.744 179.628 120.68 181.391 121.617C182.443 122.17 183.495 122.723 184.579 123.292C187 125 187 125 187.923 127.054C188.143 132.589 182.302 138.481 178.891 142.461C173.563 148.009 173.563 148.009 169 149C168.653 148.543 168.307 148.085 167.949 147.614C161.118 138.612 154.249 129.672 147 121C147.398 120.553 147.797 120.105 148.207 119.645C151.18 116.252 153.828 112.982 156 109Z" fill="#E11D48"/>
<path d="M58 17.9999C60 19.6249 60 19.6249 61 21.9999C60.9344 25.7396 60.7635 28.0602 58.375 30.9999C54.8842 32.4697 52.6085 31.984 49 30.9999C47 29.3749 47 29.3749 46 26.9999C46.0656 23.2601 46.2365 20.9395 48.625 17.9999C52.1158 16.5301 54.3915 17.0157 58 17.9999Z" fill="#F3F3F3"/>
<path d="M81.0001 17C84.01 19.2902 85.6979 20.7914 86.6251 24.5C85.6851 28.26 84.114 29.7474 81.0001 32C77.148 32.0664 75.0016 31.8723 72.0626 29.3125C70.6619 26.264 70.5158 24.3207 71.0001 21C73.7753 16.9439 76.1949 16.1174 81.0001 17Z" fill="#F2F2F2"/>
<path d="M31.9999 17.0001C34.3749 18.5626 34.3749 18.5626 35.9999 21.0001C36.5624 24.5001 36.5624 24.5001 35.9999 28.0001C33.5813 30.6951 31.9923 31.8064 28.4374 32.5001C25.1489 31.8255 24.0114 30.658 21.9999 28.0001C20.9989 25.1399 20.7648 23.686 21.7499 20.8126C24.519 16.7974 27.4347 16.4411 31.9999 17.0001Z" fill="#F4F4F4"/>
</g>
<defs>
<clipPath id="clip0_1676_891">
<rect width="250" height="201" fill="white"/>
</clipPath>
</defs>
</svg>
