<svg width="531" height="451" viewBox="0 0 531 451" fill="none" xmlns="http://www.w3.org/2000/svg">
<path d="M134.557 118.372L123.296 103.545L150.937 75.4233L178.579 47.8133L194.959 60.0844L211.339 72.8668L234.885 62.1296C255.872 52.9263 258.943 49.8585 261.503 31.4518L265.086 11L303.988 12.5339L342.891 14.0677L345.962 33.497C349.545 55.4827 347.498 53.4376 374.627 63.6635C395.102 71.3329 397.15 71.3329 408.923 62.1296C415.577 57.0166 423.256 52.415 425.815 52.415C428.374 52.415 442.195 64.6861 457.039 79.5137L483.657 106.101L471.372 120.929L459.599 135.756L469.836 160.298C479.562 182.284 482.121 184.841 498.501 186.375L516.929 187.908L518.465 227.278L520 267.159L499.525 270.227C481.609 273.295 478.538 275.851 469.324 297.326L459.599 321.357L471.372 336.696L483.657 352.034L455.504 379.644L427.351 407.254L411.482 395.495C395.614 383.735 395.614 383.735 374.115 392.938C349.033 404.187 345.45 408.277 345.45 426.684V441H305.012H264.574L260.991 421.571C258.431 405.209 255.36 401.63 235.397 393.449C212.874 383.735 212.362 383.735 196.494 394.983L180.626 406.743L152.985 379.133C127.391 353.568 125.855 351.523 133.022 341.297" stroke="#E11D48" stroke-width="20"/>
<path d="M279.009 216.668C273.403 215.368 18.6418 216.025 13.3628 217.374C3.39141 219.921 1.88237 230.373 11.0282 234.364C14.6008 236.04 45.9684 236.367 144.959 236.101C215.952 235.797 276.408 235.02 279.145 234.321C290.29 231.474 290.223 219.268 279.009 216.668Z" fill="#E11D48"/>
<path d="M232.066 173.208C226.372 174.675 222.998 178.541 222.998 183.341C222.998 186.275 229.113 190.808 252.52 205.875L282.253 224.675L252.52 244.141C220.468 265.341 218.359 267.741 228.27 273.875C238.603 280.541 241.555 279.341 282.464 253.475C315.993 232.275 320 229.341 320 225.341C320 221.475 315.993 218.275 285.838 198.275C255.262 178.008 243.874 171.741 238.392 172.008C237.548 172.008 234.596 172.541 232.066 173.208Z" fill="#E11D48"/>
</svg>
